<svg width="40" height="40" viewBox="0 0 40 40" fill="none" xmlns="http://www.w3.org/2000/svg">
<path fill-rule="evenodd" clip-rule="evenodd" d="M10.3012 19.9944V15.6999H6.00666V19.9944H10.3012ZM18.2906 19.9944V15.6999H13.6961V19.9944H18.2906ZM26.2919 19.9944H21.6974V15.6999H26.2919V19.9944ZM33.9933 19.9944V15.6999H29.6988V19.9944H33.9933ZM9.23359 6.99076H30.7544L33.4055 12.293H6.58247L9.23359 6.99076ZM19.994 23.9891H7.998V32.9861H19.994V23.9891ZM9.23359 2.99609C7.72209 2.99609 6.33056 3.84781 5.65878 5.20336L2.41986 11.6812C2.14395 12.233 2 12.8448 2 13.4686V19.9944C2 21.4699 2.80373 22.7655 4.00333 23.4613V32.9981C4.00333 35.2054 5.79074 36.9928 7.998 36.9928H19.994C22.2013 36.9928 23.9887 35.2054 23.9887 32.9981V24.0011H31.99V35.0014C31.99 36.1051 32.8897 37.0048 33.9933 37.0048C35.097 37.0048 35.9967 36.1051 35.9967 35.0014V23.4733C37.1963 22.7775 38 21.4939 38 20.0064V13.4806C38 12.8568 37.856 12.245 37.5801 11.6932L34.3412 5.22735C33.6694 3.8718 32.2779 3.02009 30.7664 3.02009H9.23359V2.99609Z" fill="white"/>
</svg>
