<svg id="acom-white" xmlns="http://www.w3.org/2000/svg" width="21.598" height="36" viewBox="0 0 21.598 36">
  <path id="Caminho_4699" data-name="Caminho 4699" d="M1729.316,1027.976a7.634,7.634,0,0,0,1.938-.426,1.46,1.46,0,0,0,1.046-1.379,1.629,1.629,0,0,0-.8-1.574,5.06,5.06,0,0,0-2.355-.435,3.093,3.093,0,0,0-2.468.851,3.509,3.509,0,0,0-.692,1.7H1721.3a7.116,7.116,0,0,1,1.369-4q1.93-2.451,6.634-2.451a11.831,11.831,0,0,1,5.44,1.209q2.377,1.209,2.377,4.563v8.512q0,.888.033,2.144a2.7,2.7,0,0,0,.29,1.294,1.742,1.742,0,0,0,.717.563v.714h-5.278a5.29,5.29,0,0,1-.307-1.055q-.086-.5-.137-1.122a10.054,10.054,0,0,1-2.332,1.854,7.036,7.036,0,0,1-3.562.9,6.146,6.146,0,0,1-4.187-1.438,5.121,5.121,0,0,1-1.653-4.078,5.285,5.285,0,0,1,2.659-4.955,11.89,11.89,0,0,1,4.287-1.191Zm2.968,2.264a5.394,5.394,0,0,1-.942.469,8,8,0,0,1-1.3.333l-1.1.2a7.324,7.324,0,0,0-2.23.666,2.214,2.214,0,0,0-1.146,2.058,2.148,2.148,0,0,0,.7,1.8,2.657,2.657,0,0,0,1.7.555,5.073,5.073,0,0,0,2.931-.918,3.9,3.9,0,0,0,1.392-3.355Z" transform="translate(-1718.635 -1012.142)" fill="#fff"/>
  <rect id="Ret창ngulo_2881" data-name="Ret창ngulo 2881" width="21.598" height="4.772" fill="#fff"/>
  <rect id="Ret창ngulo_2882" data-name="Ret창ngulo 2882" width="21.598" height="4.77" transform="translate(0 31.23)" fill="#fff"/>
</svg>