<svg id="acom-empresa-white" xmlns="http://www.w3.org/2000/svg" width="52.444" height="51" viewBox="0 0 52.444 51">
  <g id="Grupo_71" data-name="Grupo 71" transform="translate(17.521 8.467)">
    <path id="Caminho_4690" data-name="Caminho 4690" d="M554.214,33.476a7.732,7.732,0,0,0,1.964-.432,1.483,1.483,0,0,0,1.061-1.4,1.647,1.647,0,0,0-.814-1.6,5.139,5.139,0,0,0-2.39-.438,3.133,3.133,0,0,0-2.505.86,3.54,3.54,0,0,0-.7,1.727h-4.75a7.222,7.222,0,0,1,1.39-4.059q1.952-2.48,6.724-2.483a12.054,12.054,0,0,1,5.524,1.222q2.4,1.233,2.408,4.63v8.633c0,.6.009,1.333.038,2.177a2.788,2.788,0,0,0,.288,1.314,1.712,1.712,0,0,0,.73.571v.727h-5.362a6.173,6.173,0,0,1-.3-1.067c-.06-.34-.1-.718-.139-1.14a10.347,10.347,0,0,1-2.362,1.88,7.222,7.222,0,0,1-3.614.916,6.222,6.222,0,0,1-4.248-1.461,5.205,5.205,0,0,1-1.677-4.14,5.367,5.367,0,0,1,2.7-5.027,12.208,12.208,0,0,1,4.351-1.208Zm3,2.29a5.137,5.137,0,0,1-.948.484,9.17,9.17,0,0,1-1.32.333l-1.125.211a7.277,7.277,0,0,0-2.261.672,2.246,2.246,0,0,0-1.163,2.089,2.176,2.176,0,0,0,.708,1.819,2.692,2.692,0,0,0,1.728.568,5.1,5.1,0,0,0,2.968-.936,3.922,3.922,0,0,0,1.414-3.4Z" transform="translate(-545.467 -25.651)" fill="#fff"/>
  </g>
  <g id="Grupo_72" data-name="Grupo 72" transform="translate(15.376)">
    <rect id="Ret창ngulo_2879" data-name="Ret창ngulo 2879" width="21.538" height="4.839" fill="#fff"/>
  </g>
  <g id="Grupo_73" data-name="Grupo 73" transform="translate(15.376 31.427)">
    <rect id="Ret창ngulo_2880" data-name="Ret창ngulo 2880" width="21.538" height="4.84" fill="#fff"/>
  </g>
  <g id="Grupo_74" data-name="Grupo 74" transform="translate(0 41.798)">
    <path id="Caminho_4691" data-name="Caminho 4691" d="M518.521,83.268a2.458,2.458,0,0,0,.388.833,2.207,2.207,0,0,0,.674.611,1.879,1.879,0,0,0,.98.242,1.948,1.948,0,0,0,1.373-.459,2.4,2.4,0,0,0,.687-1.222h.8A3.206,3.206,0,0,1,522.489,85a2.79,2.79,0,0,1-1.927.611,3.067,3.067,0,0,1-1.342-.273,2.466,2.466,0,0,1-.922-.751,3.256,3.256,0,0,1-.528-1.111,5.022,5.022,0,0,1-.172-1.333,4.767,4.767,0,0,1,.173-1.272,3.41,3.41,0,0,1,.527-1.11,2.647,2.647,0,0,1,.922-.789,2.838,2.838,0,0,1,1.342-.3,2.6,2.6,0,0,1,2.258,1.151,3.453,3.453,0,0,1,.5,1.183,5.184,5.184,0,0,1,.128,1.358H518.4A3.562,3.562,0,0,0,518.521,83.268Zm3.969-2.444a2.4,2.4,0,0,0-.413-.744,2.059,2.059,0,0,0-.649-.521,1.857,1.857,0,0,0-.865-.2,1.888,1.888,0,0,0-.878.2,2.04,2.04,0,0,0-.649.521,2.594,2.594,0,0,0-.426.751,3.636,3.636,0,0,0-.21.871h4.249a2.906,2.906,0,0,0-.161-.881Z" transform="translate(-517.598 -78.664)" fill="#fff"/>
    <path id="Caminho_4692" data-name="Caminho 4692" d="M529.26,78.873v1.111h.038a2.518,2.518,0,0,1,.833-.954,2.333,2.333,0,0,1,1.317-.343,2.24,2.24,0,0,1,1.177.318,1.562,1.562,0,0,1,.706.967A2.017,2.017,0,0,1,534.2,79a2.478,2.478,0,0,1,1.222-.318q2.175,0,2.175,2.3V85.44h-.8V81.023a1.938,1.938,0,0,0-.343-1.24,1.474,1.474,0,0,0-1.208-.427,1.718,1.718,0,0,0-.866.2,1.523,1.523,0,0,0-.547.528,2.247,2.247,0,0,0-.287.757,4.621,4.621,0,0,0-.082.889v3.714h-.8V80.984a2.745,2.745,0,0,0-.07-.63,1.465,1.465,0,0,0-.229-.521,1.085,1.085,0,0,0-.427-.35,1.5,1.5,0,0,0-.648-.128,1.976,1.976,0,0,0-.889.184,1.62,1.62,0,0,0-.611.509,2.24,2.24,0,0,0-.35.763,3.783,3.783,0,0,0-.111.961v3.667h-.8V78.873Z" transform="translate(-521.652 -78.663)" fill="#fff"/>
    <path id="Caminho_4693" data-name="Caminho 4693" d="M546.009,78.873V80.12h.026a2.143,2.143,0,0,1,.909-1.062,2.739,2.739,0,0,1,1.43-.376,2.864,2.864,0,0,1,1.3.28,2.679,2.679,0,0,1,.922.757,3.222,3.222,0,0,1,.547,1.111,5.049,5.049,0,0,1,0,2.658A3.222,3.222,0,0,1,550.6,84.6a2.613,2.613,0,0,1-.922.751,3.111,3.111,0,0,1-2.017.184,2.523,2.523,0,0,1-.667-.268,2.172,2.172,0,0,1-.541-.444,1.87,1.87,0,0,1-.362-.623h-.026v3.667h-.8V78.873Zm4.4,2.27a2.819,2.819,0,0,0-.382-.9,2.112,2.112,0,0,0-.667-.642,1.848,1.848,0,0,0-.98-.249,2.408,2.408,0,0,0-1.111.229,1.928,1.928,0,0,0-.712.611,2.42,2.42,0,0,0-.376.889,5.11,5.11,0,0,0-.111,1.069,4.313,4.313,0,0,0,.121,1.012,2.62,2.62,0,0,0,.394.9,2.112,2.112,0,0,0,.712.642,2.154,2.154,0,0,0,1.074.249,1.85,1.85,0,0,0,.98-.249,2.109,2.109,0,0,0,.667-.642,2.814,2.814,0,0,0,.382-.9,4.3,4.3,0,0,0,0-2.023Z" transform="translate(-527.869 -78.663)" fill="#fff"/>
    <path id="Caminho_4694" data-name="Caminho 4694" d="M557.519,78.932V80.47h.026a2.523,2.523,0,0,1,.948-1.233,2.485,2.485,0,0,1,1.533-.394v.8a2.43,2.43,0,0,0-.992.147,2.2,2.2,0,0,0-1.272,1.247,2.537,2.537,0,0,0-.178.961v3.5h-.8V78.932Z" transform="translate(-532.14 -78.721)" fill="#fff"/>
    <path id="Caminho_4695" data-name="Caminho 4695" d="M563.083,83.268a2.456,2.456,0,0,0,.388.833,2.221,2.221,0,0,0,.674.611,1.883,1.883,0,0,0,.98.242A1.947,1.947,0,0,0,566.5,84.5a2.411,2.411,0,0,0,.687-1.222h.8a3.2,3.2,0,0,1-.935,1.73,2.788,2.788,0,0,1-1.927.611,3.063,3.063,0,0,1-1.342-.273,2.472,2.472,0,0,1-.922-.751,3.268,3.268,0,0,1-.528-1.111,5.025,5.025,0,0,1-.172-1.333,4.761,4.761,0,0,1,.172-1.271,3.414,3.414,0,0,1,.528-1.111,2.657,2.657,0,0,1,.922-.789,2.834,2.834,0,0,1,1.342-.3,2.6,2.6,0,0,1,2.258,1.151,3.437,3.437,0,0,1,.5,1.183,5.184,5.184,0,0,1,.127,1.359h-5.05A3.554,3.554,0,0,0,563.083,83.268Zm3.969-2.444a2.4,2.4,0,0,0-.413-.744,2.048,2.048,0,0,0-.648-.521,1.862,1.862,0,0,0-.866-.2,1.888,1.888,0,0,0-.878.2,2.047,2.047,0,0,0-.648.521,2.6,2.6,0,0,0-.427.751,3.675,3.675,0,0,0-.21.871h4.249a2.885,2.885,0,0,0-.16-.881Z" transform="translate(-534.137 -78.664)" fill="#fff"/>
    <path id="Caminho_4696" data-name="Caminho 4696" d="M576.644,80.148a1.3,1.3,0,0,0-.375-.451,1.566,1.566,0,0,0-.541-.261,2.461,2.461,0,0,0-.649-.083,2.66,2.66,0,0,0-.54.057,1.669,1.669,0,0,0-.5.191,1.083,1.083,0,0,0-.369.35.969.969,0,0,0-.14.534.753.753,0,0,0,.133.451,1.188,1.188,0,0,0,.333.311,2.168,2.168,0,0,0,.445.21q.242.083.444.133l1.069.242a3.044,3.044,0,0,1,.68.184,2.193,2.193,0,0,1,.6.35,1.727,1.727,0,0,1,.427.534,1.607,1.607,0,0,1,.166.75,1.648,1.648,0,0,1-.242.91,1.973,1.973,0,0,1-.617.611,2.645,2.645,0,0,1-.846.333,4.417,4.417,0,0,1-.928.1,3.014,3.014,0,0,1-1.877-.547,2.334,2.334,0,0,1-.821-1.756h.8a1.58,1.58,0,0,0,.591,1.222,2.142,2.142,0,0,0,1.342.413,3,3,0,0,0,.6-.064,1.944,1.944,0,0,0,.579-.216,1.387,1.387,0,0,0,.445-.388.957.957,0,0,0,.171-.579.919.919,0,0,0-.121-.489,1.04,1.04,0,0,0-.324-.333,2.036,2.036,0,0,0-.464-.222c-.173-.06-.35-.111-.528-.153l-1.031-.229a5.912,5.912,0,0,1-.726-.236,2.313,2.313,0,0,1-.579-.333,1.392,1.392,0,0,1-.388-.483,1.6,1.6,0,0,1-.14-.707,1.575,1.575,0,0,1,.222-.852,1.737,1.737,0,0,1,.579-.572,2.7,2.7,0,0,1,.794-.318,3.844,3.844,0,0,1,.871-.1,3.2,3.2,0,0,1,.922.128,2.11,2.11,0,0,1,.751.394,1.948,1.948,0,0,1,.516.667,2.384,2.384,0,0,1,.217.928h-.8a1.5,1.5,0,0,0-.151-.633Z" transform="translate(-537.974 -78.665)" fill="#fff"/>
    <path id="Caminho_4697" data-name="Caminho 4697" d="M582.668,79.891a1.878,1.878,0,0,1,.556-.687,2.334,2.334,0,0,1,.821-.394,3.982,3.982,0,0,1,1.042-.128,4.584,4.584,0,0,1,.866.083,2.1,2.1,0,0,1,.778.311,1.708,1.708,0,0,1,.556.642,2.319,2.319,0,0,1,.216,1.074V84.28a.421.421,0,0,0,.47.483.623.623,0,0,0,.255-.051v.674c-.093.018-.176.03-.249.039a2.35,2.35,0,0,1-.273.012,1.207,1.207,0,0,1-.489-.082.667.667,0,0,1-.287-.236.876.876,0,0,1-.133-.363,3.128,3.128,0,0,1-.031-.464h-.025a5.421,5.421,0,0,1-.445.566,2.171,2.171,0,0,1-.5.413,2.285,2.285,0,0,1-.623.254,3.426,3.426,0,0,1-.833.089,3.273,3.273,0,0,1-.858-.111,1.917,1.917,0,0,1-.7-.343,1.642,1.642,0,0,1-.47-.6,1.989,1.989,0,0,1-.171-.859,1.7,1.7,0,0,1,.306-1.074,1.925,1.925,0,0,1,.808-.592,4.627,4.627,0,0,1,1.132-.287q.63-.082,1.279-.159a4.4,4.4,0,0,0,.445-.063.768.768,0,0,0,.318-.133.616.616,0,0,0,.2-.261,1.126,1.126,0,0,0,.07-.432,1.467,1.467,0,0,0-.133-.667,1.054,1.054,0,0,0-.369-.413,1.484,1.484,0,0,0-.546-.21,3.731,3.731,0,0,0-.667-.057,2.024,2.024,0,0,0-1.247.363,1.421,1.421,0,0,0-.509,1.164h-.8a2.659,2.659,0,0,1,.239-.991Zm4.007,1.959a.46.46,0,0,1-.292.2,3.061,3.061,0,0,1-.382.089q-.51.09-1.05.159a5.778,5.778,0,0,0-.986.21,1.929,1.929,0,0,0-.731.4.956.956,0,0,0-.287.744,1.167,1.167,0,0,0,.121.541,1.3,1.3,0,0,0,.324.407,1.411,1.411,0,0,0,.47.261,1.729,1.729,0,0,0,.547.089,2.744,2.744,0,0,0,.878-.14,2.16,2.16,0,0,0,.731-.407,1.938,1.938,0,0,0,.68-1.513V81.851Z" transform="translate(-541.556 -78.663)" fill="#fff"/>
    <path id="Caminho_4698" data-name="Caminho 4698" d="M596.67,80.148a1.3,1.3,0,0,0-.375-.451,1.566,1.566,0,0,0-.54-.261,2.467,2.467,0,0,0-.649-.083,2.666,2.666,0,0,0-.541.057,1.667,1.667,0,0,0-.5.191,1.08,1.08,0,0,0-.369.35.962.962,0,0,0-.14.534.748.748,0,0,0,.134.451,1.176,1.176,0,0,0,.333.311,2.134,2.134,0,0,0,.445.21q.241.083.444.133l1.069.242a3.058,3.058,0,0,1,.681.184,2.217,2.217,0,0,1,.6.35,1.718,1.718,0,0,1,.425.534,1.606,1.606,0,0,1,.166.75,1.649,1.649,0,0,1-.241.91,1.981,1.981,0,0,1-.617.611,2.649,2.649,0,0,1-.846.333,4.417,4.417,0,0,1-.929.1,3.016,3.016,0,0,1-1.877-.547,2.325,2.325,0,0,1-.82-1.756h.8a1.581,1.581,0,0,0,.592,1.222,2.141,2.141,0,0,0,1.342.413,2.988,2.988,0,0,0,.6-.064,1.946,1.946,0,0,0,.579-.216,1.4,1.4,0,0,0,.444-.388.957.957,0,0,0,.171-.579.92.92,0,0,0-.121-.489,1.061,1.061,0,0,0-.325-.333,2.034,2.034,0,0,0-.464-.222q-.261-.09-.528-.153l-1.03-.229a5.891,5.891,0,0,1-.726-.236,2.332,2.332,0,0,1-.579-.333,1.4,1.4,0,0,1-.388-.483,1.6,1.6,0,0,1-.14-.707,1.574,1.574,0,0,1,.222-.852,1.738,1.738,0,0,1,.579-.572,2.7,2.7,0,0,1,.794-.318,3.846,3.846,0,0,1,.872-.1,3.209,3.209,0,0,1,.922.128,2.112,2.112,0,0,1,.75.394,1.933,1.933,0,0,1,.516.667,2.382,2.382,0,0,1,.217.928h-.8a1.52,1.52,0,0,0-.155-.633Z" transform="translate(-545.406 -78.665)" fill="#fff"/>
  </g>
</svg>