<svg width="24" height="24" viewBox="0 0 24 24" fill="none" xmlns="http://www.w3.org/2000/svg">
<path d="M13.3436 3.33547C13.3436 2.59976 12.7439 2 12.0082 2C11.2724 2 10.6727 2.59976 10.6727 3.33547V17.4418L7.61791 14.387C7.09812 13.8673 6.25046 13.8673 5.73066 14.387C5.21087 14.9068 5.21087 15.7545 5.73066 16.2743L10.9686 21.5122C10.9686 21.5122 11.0006 21.5442 11.0166 21.5602C11.2645 21.8321 11.6163 22 12.0002 22C12.384 22 12.7439 21.8321 12.9838 21.5602C12.9998 21.5442 13.0158 21.5282 13.0317 21.5122L18.2697 16.2743C18.7894 15.7545 18.7894 14.9068 18.2697 14.387C17.7499 13.8673 16.9022 13.8673 16.3824 14.387L13.3276 17.4418V3.33547H13.3436Z" fill="white"/>
</svg>
