<svg width="40" height="40" viewBox="0 0 40 40" fill="none" xmlns="http://www.w3.org/2000/svg">
<path d="M21.5755 2.8042H5.90807C3.74865 2.8042 2 4.55285 2 6.71227V34.0922C2 36.2516 3.74865 38.0003 5.90807 38.0003H33.288C35.4474 38.0003 37.1961 36.2516 37.1961 34.0922V18.4013L33.288 22.3093V34.0922H5.90807V6.71227H17.6557L21.5638 2.8042H21.5755Z" fill="white"/>
<path fill-rule="evenodd" clip-rule="evenodd" d="M32.1499 11.7709L34.0981 9.82274L30.19 5.91467L28.2418 7.86284L32.1499 11.7709ZM25.4604 10.6325L13.7362 22.3567V26.2648H17.6443L29.3685 14.5406L25.4604 10.6325ZM20.4139 29.0345C19.6746 29.7621 18.6888 30.1846 17.6443 30.1846H13.7362C11.5768 30.1846 9.82812 28.4359 9.82812 26.2765V22.3685C9.82812 21.3357 10.2389 20.3381 10.9782 19.5988L27.4203 3.14499C28.946 1.61931 31.4223 1.61931 32.9479 3.14499L36.856 7.05306C38.3817 8.57873 38.3817 11.055 36.856 12.5807L20.4022 29.0345H20.4139Z" fill="white"/>
</svg>
