<svg width="46" height="37" viewBox="0 0 46 37" fill="none" xmlns="http://www.w3.org/2000/svg">
<g clip-path="url(#clip0_642_11326)">
<path d="M45.4064 31.8197H38.4187V29.3431H42.9297V22.8418L36.6054 20.2325L34.7479 10.4143H24.4432V2.85166H9.14104V0.375H26.8757V7.93765H36.7823L38.7725 18.4635L45.4064 21.2055V31.8197Z" fill="#FF0023"/>
<path d="M7.50468 31.8197H0.959229V0.375H5.47028V2.85166H3.43589V29.3431H7.50468V31.8197Z" fill="#FF0023"/>
<path d="M28.3794 29.3431H15.9961V31.8197H28.3794V29.3431Z" fill="#FF0023"/>
<path d="M33.598 36.375C30.5907 36.375 28.114 33.8983 28.114 30.891C28.114 27.8836 30.5907 25.4069 33.598 25.4069C36.6054 25.4069 39.0821 27.8836 39.0821 30.891C39.0821 33.9426 36.6496 36.375 33.598 36.375ZM33.598 27.8836C31.9174 27.8836 30.5907 29.2546 30.5907 30.891C30.5907 32.5273 31.9617 33.8983 33.598 33.8983C35.2344 33.8983 36.6054 32.5273 36.6054 30.891C36.6054 29.2546 35.2786 27.8836 33.598 27.8836Z" fill="#FF0023"/>
<path d="M11.7504 36.375C8.74301 36.375 6.26635 33.8983 6.26635 30.891C6.26635 27.8836 8.74301 25.4069 11.7504 25.4069C14.7577 25.4069 17.2344 27.8836 17.2344 30.891C17.2344 33.9426 14.7577 36.375 11.7504 36.375ZM11.7504 27.8836C10.0698 27.8836 8.74301 29.2546 8.74301 30.891C8.74301 32.5273 10.114 33.8983 11.7504 33.8983C13.3867 33.8983 14.7577 32.5273 14.7577 30.891C14.7577 29.2546 13.431 27.8836 11.7504 27.8836Z" fill="#FF0023"/>
</g>
<defs>
<clipPath id="clip0_642_11326">
<rect width="44.4472" height="36" fill="white" transform="translate(0.959229 0.375)"/>
</clipPath>
</defs>
</svg>
