<svg width="40" height="40" viewBox="0 0 40 40" fill="none" xmlns="http://www.w3.org/2000/svg">
<path fill-rule="evenodd" clip-rule="evenodd" d="M13.1575 29.0027C13.1575 30.1908 12.1854 31.1629 10.9973 31.1629C9.80918 31.1629 8.83708 30.1908 8.83708 29.0027C8.83708 27.8146 9.80918 26.8425 10.9973 26.8425C12.1854 26.8425 13.1575 27.8146 13.1575 29.0027ZM28.9919 27.1989C28.009 27.1989 27.1989 27.9982 27.1989 28.9919C27.1989 29.9964 28.009 30.7957 29.0027 30.7957C29.9964 30.7957 30.8065 29.9856 30.8065 28.9919C30.8065 27.9982 29.9964 27.1881 29.0027 27.1881L28.9919 27.1989ZM29.0027 14.594V19.9946H34.4032V19.1413L31.1305 14.594H29.0027ZM5.59676 9.1935V25.3951H6.9685C7.9622 24.2934 9.39874 23.5913 10.9973 23.5913C12.5959 23.5913 14.0324 24.2826 15.0261 25.3951H24.9739C25.1035 25.2439 25.2439 25.1035 25.3951 24.9739V9.1935H5.59676ZM16.3978 29.0027H23.6022C23.6022 31.9838 26.0216 34.4032 29.0027 34.4032C31.9838 34.4032 34.4032 31.9838 34.4032 29.0027H36.0234C37.1143 29.0027 38 28.117 38 27.0261V18.6768C38 18.2232 37.8596 17.7804 37.5896 17.4131L33.6148 11.8938C33.2043 11.3321 32.5563 10.9973 31.865 10.9973H29.0027V7.57334C29.0027 6.48243 28.117 5.59674 27.0261 5.59674H3.9766C2.88569 5.59674 2 6.48243 2 7.57334V27.0153C2 28.1062 2.88569 28.9919 3.9766 28.9919H5.59676C5.59676 31.973 8.0162 34.3924 10.9973 34.3924C13.9784 34.3924 16.3978 31.973 16.3978 28.9919V29.0027Z" fill="#F80032"/>
</svg>
