<svg width="40" height="40" viewBox="0 0 40 40" fill="none" xmlns="http://www.w3.org/2000/svg">
<path fill-rule="evenodd" clip-rule="evenodd" d="M5.23935 20V28.6383C5.23935 29.0378 5.56329 29.3617 5.96281 29.3617H34.0372C34.4367 29.3617 34.7606 29.0378 34.7606 28.6383V20H5.23935ZM5.96281 10.6383H34.0372C34.4367 10.6383 34.7606 10.9622 34.7606 11.3617V14.6011H5.23935V11.3617C5.23935 10.9622 5.56329 10.6383 5.96281 10.6383ZM2 11.3617C2 9.16977 3.77085 7.39893 5.96281 7.39893H34.0372C36.2184 7.39893 38 9.16977 38 11.3617V28.6383C38 30.8302 36.2292 32.6011 34.0372 32.6011H5.96281C3.77085 32.6011 2 30.8302 2 28.6383V11.3617Z" fill="#F80032"/>
<path d="M23.5962 25.3991C23.5962 24.4057 24.406 23.5959 25.3994 23.5959H28.9951C29.9885 23.5959 30.7984 24.4057 30.7984 25.3991C30.7984 26.3925 29.9885 27.2024 28.9951 27.2024H25.3994C24.406 27.2024 23.5962 26.3925 23.5962 25.3991Z" fill="#F80032"/>
</svg>
