<svg width="32" height="32" viewBox="0 0 32 32" fill="none" xmlns="http://www.w3.org/2000/svg">
<path d="M22.8682 2.76709L19.5741 6.06121H5.29412V21.2965H9.41176V24.1212L11.7835 22.0459C12.3353 21.5683 13.0435 21.2965 13.7682 21.2965H26.7059V10.4506L30 7.1565V21.5683C30 23.2318 28.6494 24.5906 26.9776 24.5906H13.8671L9.07412 28.7906C7.92118 29.8036 6.11765 28.98 6.11765 27.4483V24.5906H5.02235C3.35059 24.5906 2 23.24 2 21.5683V5.78944C2 4.11768 3.35059 2.76709 5.02235 2.76709H22.8682Z" fill="#880021"/>
<path d="M28.1472 5.57529C28.7896 4.93294 28.7896 3.88706 28.1472 3.2447C27.5048 2.60235 26.459 2.60235 25.8166 3.2447L15.3166 13.7447L11.6766 10.1047C11.0343 9.46235 9.98838 9.46235 9.34602 10.1047C8.70367 10.7471 8.70367 11.7929 9.34602 12.4353L14.0566 17.1459C14.7566 17.8459 15.8848 17.8459 16.5766 17.1459L28.1472 5.57529Z" fill="#880021"/>
</svg>
