<svg width="46" height="37" viewBox="0 0 46 37" fill="none" xmlns="http://www.w3.org/2000/svg">
<g clip-path="url(#clip0_642_11319)">
<path d="M37.9789 36.375H0.959229V11.8578H37.9789V22.4538H42.9445V2.85776H10.8459V9.55234H8.40751V0.375H45.4272V24.8922H35.4962V14.3405H3.44199V33.9366H35.4962V27.0647H37.9789V36.375Z" fill="#FF0023"/>
<path d="M16.6538 26.577C16.6538 27.375 16.8312 28.04 17.1858 28.4834C17.5405 28.9711 18.1612 29.1927 19.0036 29.2371V24.7592C18.5159 24.6262 17.9839 24.4489 17.4962 24.2716C17.0085 24.0942 16.5651 23.8282 16.1661 23.5179C15.7671 23.2075 15.4568 22.8528 15.1908 22.3651C14.9247 21.9218 14.8361 21.3454 14.8361 20.6804C14.8361 20.1041 14.9691 19.572 15.1908 19.1287C15.4124 18.6853 15.7228 18.2863 16.1218 18.0203C16.5208 17.71 16.9642 17.4883 17.4518 17.311C17.9395 17.1336 18.4715 17.0893 19.0479 17.0893V15.6706H19.8459V17.0893C20.3779 17.0893 20.91 17.178 21.3977 17.311C21.8853 17.444 22.3287 17.6656 22.6834 17.976C23.038 18.2863 23.3484 18.641 23.5701 19.0844C23.7917 19.5277 23.8804 20.0597 23.8804 20.6804H21.7523C21.708 20.0597 21.575 19.572 21.2646 19.2617C20.9543 18.907 20.4666 18.774 19.8016 18.774V22.6755C20.3336 22.8085 20.91 22.9858 21.442 23.2075C21.974 23.3849 22.4617 23.6509 22.8607 23.9612C23.2597 24.2716 23.6144 24.6706 23.8361 25.1139C24.1021 25.5573 24.1908 26.1336 24.1908 26.7986C24.1908 27.508 24.0578 28.0844 23.8361 28.6164C23.6144 29.1484 23.3041 29.5474 22.905 29.9021C22.506 30.2568 22.0627 30.4784 21.5307 30.7001C20.9986 30.8775 20.4223 30.9661 19.8016 31.0105V32.4292H19.0036V31.0105C18.3385 31.0105 17.7178 30.8775 17.1858 30.7001C16.6538 30.5228 16.1661 30.2124 15.7671 29.8578C15.3681 29.5031 15.0578 29.0597 14.8361 28.5277C14.6144 27.9957 14.5257 27.375 14.5257 26.71H16.6538V26.577ZM19.0036 18.7297C18.3385 18.7297 17.8065 18.8627 17.4518 19.1287C17.0972 19.439 16.9198 19.8824 16.9198 20.5474C16.9198 20.8578 16.9642 21.0794 17.0972 21.3011C17.2302 21.5228 17.3632 21.7001 17.5848 21.8331C17.7622 21.9661 17.9839 22.0991 18.2499 22.1878C18.5159 22.2765 18.7376 22.3651 19.0036 22.4095V18.7297ZM19.8016 29.2371C20.4666 29.1927 20.9986 29.0154 21.442 28.6607C21.8853 28.306 22.0627 27.774 22.0627 27.0647C22.0627 26.71 22.0183 26.444 21.8853 26.178C21.7523 25.9119 21.575 25.7346 21.3533 25.6016C21.1316 25.4243 20.91 25.2913 20.644 25.2026C20.378 25.1139 20.1119 25.0252 19.8016 24.9366V29.2371Z" fill="#FF0023"/>
</g>
<defs>
<clipPath id="clip0_642_11319">
<rect width="44.468" height="36" fill="white" transform="translate(0.959229 0.375)"/>
</clipPath>
</defs>
</svg>
