<svg width="32" height="32" viewBox="0 0 32 32" fill="none" xmlns="http://www.w3.org/2000/svg">
<path fill-rule="evenodd" clip-rule="evenodd" d="M16 9.39603C16.552 9.39603 17 9.84403 17 10.396V10.732C18.104 10.892 18.872 11.276 19.264 11.468C19.92 11.796 20.192 12.596 19.864 13.26C19.536 13.916 18.736 14.188 18.072 13.86C17.68 13.66 17.016 13.332 16 13.332C15.528 13.332 15.136 13.452 14.904 13.612C14.712 13.74 14.664 13.852 14.664 14.004C14.664 14.156 14.712 14.268 14.904 14.396C15.136 14.548 15.528 14.676 16 14.676C16.864 14.676 17.808 14.892 18.576 15.396C19.384 15.932 20 16.82 20 18.004C20 19.188 19.384 20.076 18.576 20.612C18.096 20.932 17.552 21.132 17 21.244V21.604C17 22.156 16.552 22.604 16 22.604C15.448 22.604 15 22.156 15 21.604V21.268C13.896 21.108 13.128 20.724 12.736 20.532C12.08 20.204 11.808 19.404 12.136 18.74C12.464 18.084 13.264 17.812 13.928 18.14C14.32 18.34 14.984 18.668 16 18.668C16.472 18.668 16.864 18.548 17.096 18.388C17.288 18.26 17.336 18.148 17.336 17.996C17.336 17.844 17.288 17.732 17.096 17.604C16.864 17.452 16.472 17.324 16 17.324C15.136 17.324 14.192 17.108 13.424 16.604C12.616 16.068 12 15.18 12 13.996C12 12.812 12.616 11.924 13.424 11.388C13.904 11.068 14.448 10.868 15 10.756V10.396C15 9.84403 15.448 9.39603 16 9.39603ZM21.464 15.996C21.464 17.028 22.296 17.86 23.328 17.86C24.36 17.86 25.192 17.028 25.192 15.996C25.192 14.964 24.36 14.132 23.328 14.132C22.296 14.132 21.464 14.964 21.464 15.996ZM8.664 17.868C7.632 17.868 6.8 17.036 6.8 16.004C6.8 14.972 7.632 14.14 8.664 14.14C9.696 14.14 10.528 14.972 10.528 16.004C10.528 17.036 9.696 17.868 8.664 17.868ZM6 5.33203C3.792 5.33203 2 7.12403 2 9.33203V22.668C2 24.876 3.792 26.668 6 26.668H26C28.208 26.668 30 24.876 30 22.668V9.33203C30 7.12403 28.208 5.33203 26 5.33203H6Z" fill="#880021"/>
</svg>
