<svg xmlns="http://www.w3.org/2000/svg" width="26.617" height="26.618" viewBox="0 0 26.617 26.618">
  <path id="facebook" d="M29.3,4.261H5.619A1.469,1.469,0,0,0,4.151,5.729h0V29.411a1.469,1.469,0,0,0,1.468,1.468h12.75V20.58H14.912V16.551h3.457V13.585a4.84,4.84,0,0,1,5.167-5.31,28.517,28.517,0,0,1,3.1.158v3.6H24.52c-1.669,0-1.991.792-1.991,1.956v2.567h3.99L26,20.585h-3.47V30.878H29.3a1.468,1.468,0,0,0,1.469-1.468h0V5.729A1.468,1.468,0,0,0,29.3,4.261Z" transform="translate(-4.151 -4.261)" fill="#fff"/>
</svg>