<svg width="32" height="32" viewBox="0 0 32 32" fill="none" xmlns="http://www.w3.org/2000/svg">
<path d="M1.6001 6.99966C1.6001 6.00619 2.41 5.19629 3.40347 5.19629H28.5967C29.5902 5.19629 30.4001 6.00619 30.4001 6.99966C30.4001 7.99314 29.5902 8.80304 28.5967 8.80304H3.40347C2.41 8.80304 1.6001 7.99314 1.6001 6.99966Z" fill="white"/>
<path d="M1.6001 15.9948C1.6001 15.0013 2.41 14.1914 3.40347 14.1914H28.5967C29.5902 14.1914 30.4001 15.0013 30.4001 15.9948C30.4001 16.9883 29.5902 17.7982 28.5967 17.7982H3.40347C2.41 17.7982 1.6001 16.9883 1.6001 15.9948Z" fill="white"/>
<path d="M3.40347 23.1973C2.41 23.1973 1.6001 24.0072 1.6001 25.0006C1.6001 25.9941 2.41 26.804 3.40347 26.804H28.5967C29.5902 26.804 30.4001 25.9941 30.4001 25.0006C30.4001 24.0072 29.5902 23.1973 28.5967 23.1973H3.40347Z" fill="white"/>
</svg>