<svg id="instagram" xmlns="http://www.w3.org/2000/svg" width="27.992" height="28" viewBox="0 0 27.992 28">
  <path id="Caminho_4710" data-name="Caminho 4710" d="M28.37,8.231a10.225,10.225,0,0,0-.651-3.4,7.172,7.172,0,0,0-4.1-4.1A10.257,10.257,0,0,0,20.231.088C18.728.017,18.252,0,14.451,0S10.174.017,8.68.082a10.233,10.233,0,0,0-3.4.649A6.831,6.831,0,0,0,2.8,2.349a6.893,6.893,0,0,0-1.613,2.48,10.258,10.258,0,0,0-.651,3.4C.466,9.725.449,10.2.449,14s.017,4.278.082,5.77a10.225,10.225,0,0,0,.651,3.4,7.171,7.171,0,0,0,4.1,4.1,10.258,10.258,0,0,0,3.4.651c1.492.066,1.97.082,5.77.082s4.278-.016,5.77-.082a10.225,10.225,0,0,0,3.4-.651,7.161,7.161,0,0,0,4.1-4.1,10.265,10.265,0,0,0,.651-3.4c.066-1.494.082-1.97.082-5.77S28.436,9.725,28.37,8.231ZM25.849,19.663a7.669,7.669,0,0,1-.487,2.6A4.644,4.644,0,0,1,22.7,24.919a7.7,7.7,0,0,1-2.6.487c-1.477.066-1.92.082-5.656.082s-4.184-.016-5.656-.082a7.669,7.669,0,0,1-2.6-.487,4.308,4.308,0,0,1-1.608-1.044,4.353,4.353,0,0,1-1.035-1.608,7.7,7.7,0,0,1-.487-2.6c-.066-1.477-.082-1.92-.082-5.656S3,9.83,3.067,8.358a7.669,7.669,0,0,1,.487-2.6A4.261,4.261,0,0,1,4.6,4.151,4.346,4.346,0,0,1,6.208,3.107a7.707,7.707,0,0,1,2.6-.487c1.477-.066,1.92-.082,5.656-.082s4.184.017,5.656.082a7.669,7.669,0,0,1,2.6.487,4.306,4.306,0,0,1,1.608,1.044,4.352,4.352,0,0,1,1.044,1.608,7.705,7.705,0,0,1,.487,2.6c.066,1.477.082,1.92.082,5.656s-.021,4.174-.086,5.651Zm0,0" transform="translate(-0.449 0)" fill="#fff"/>
  <path id="Caminho_4711" data-name="Caminho 4711" d="M132.142,124.5a7.193,7.193,0,1,0,7.192,7.193,7.193,7.193,0,0,0-7.192-7.193Zm0,11.858a4.666,4.666,0,1,1,4.666-4.666A4.666,4.666,0,0,1,132.142,136.358Zm0,0" transform="translate(-118.14 -117.69)" fill="#fff"/>
  <path id="Caminho_4712" data-name="Caminho 4712" d="M365.807,90.281a1.679,1.679,0,1,1-1.679-1.679,1.679,1.679,0,0,1,1.679,1.679Zm0,0" transform="translate(-342.65 -83.756)" fill="#fff"/>
</svg>