<svg xmlns="http://www.w3.org/2000/svg" width="26.617" height="26.619" viewBox="0 0 26.617 26.619">
  <path id="linkedin" d="M24.7,0H1.92A1.92,1.92,0,0,0,0,1.92V24.7a1.92,1.92,0,0,0,1.92,1.92H24.7a1.92,1.92,0,0,0,1.92-1.92V1.92A1.92,1.92,0,0,0,24.7,0ZM9.441,20.119H6.2V10.368H9.441ZM7.821,9.042H7.8a1.69,1.69,0,1,1,.043-3.369,1.69,1.69,0,1,1-.022,3.369ZM21.13,20.119H17.894V14.9c0-1.311-.47-2.206-1.642-2.206a1.775,1.775,0,0,0-1.663,1.186,2.22,2.22,0,0,0-.107.791v5.446H11.236s.043-8.836,0-9.752h3.242v1.38A3.217,3.217,0,0,1,17.4,10.14c2.133,0,3.731,1.394,3.731,4.39Zm0,0" fill="#fff"/>
</svg>