<svg xmlns="http://www.w3.org/2000/svg" width="357" height="58.402" viewBox="0 0 357 58.402">
  <g id="Grupo_49404" data-name="Grupo 49404" transform="translate(-192 -7128)">
    <g id="Grupo_94" data-name="Grupo 94" transform="translate(192 7128)">
      <g id="Grupo_92" data-name="Grupo 92">
        <path id="Caminho_4713" data-name="Caminho 4713" d="M279.63,465.863a2.04,2.04,0,0,1-.722.4,7.306,7.306,0,0,1-.93.24q-.5.1-1.043.16t-1.09.161a8.335,8.335,0,0,0-1.011.257,3,3,0,0,0-.865.433,2.055,2.055,0,0,0-.593.69,2.216,2.216,0,0,0-.225,1.058,2.137,2.137,0,0,0,.225,1.026,1.713,1.713,0,0,0,.61.658,2.561,2.561,0,0,0,.9.336,5.713,5.713,0,0,0,1.058.1,4.024,4.024,0,0,0,2.085-.45,3.009,3.009,0,0,0,1.092-1.075,3.448,3.448,0,0,0,.433-1.267,8.778,8.778,0,0,0,.081-1.026Zm-10.521-3.368a5.293,5.293,0,0,1,.8-2.662,5.461,5.461,0,0,1,1.8-1.7,7.829,7.829,0,0,1,2.454-.914,13.992,13.992,0,0,1,2.743-.279,18.647,18.647,0,0,1,2.535.176,7.766,7.766,0,0,1,2.342.69,4.607,4.607,0,0,1,1.732,1.428,3.987,3.987,0,0,1,.674,2.422v8.631a17.3,17.3,0,0,0,.128,2.15,3.872,3.872,0,0,0,.449,1.536h-4.619a6.459,6.459,0,0,1-.208-.786,6.728,6.728,0,0,1-.112-.818,5.929,5.929,0,0,1-2.566,1.572,10.3,10.3,0,0,1-3.015.45,8.15,8.15,0,0,1-2.214-.289,5.06,5.06,0,0,1-1.8-.9,4.187,4.187,0,0,1-1.2-1.536,5.208,5.208,0,0,1-.433-2.214,4.831,4.831,0,0,1,.5-2.326,4.152,4.152,0,0,1,1.283-1.459,5.756,5.756,0,0,1,1.8-.818,19.393,19.393,0,0,1,2.037-.433q1.026-.16,2.021-.257a12.167,12.167,0,0,0,1.764-.289,3.071,3.071,0,0,0,1.219-.558,1.234,1.234,0,0,0,.419-1.075,2.419,2.419,0,0,0-.24-1.171,1.777,1.777,0,0,0-.642-.674,2.533,2.533,0,0,0-.93-.321,7.656,7.656,0,0,0-1.139-.08,3.458,3.458,0,0,0-2.118.578,2.575,2.575,0,0,0-.9,1.925Z" transform="translate(-268.585 -448.642)" fill="#fff"/>
        <path id="Caminho_4714" data-name="Caminho 4714" d="M345.671,457.4v2.246h.064a6.485,6.485,0,0,1,2.165-1.989,5.863,5.863,0,0,1,2.9-.706,6.689,6.689,0,0,1,2.871.609,4.037,4.037,0,0,1,1.972,2.15,7.063,7.063,0,0,1,2-1.925,5.329,5.329,0,0,1,3-.838,8.859,8.859,0,0,1,2.439.321,4.918,4.918,0,0,1,1.925,1.026,4.716,4.716,0,0,1,1.256,1.844,7.479,7.479,0,0,1,.449,2.743v11.1h-4.555v-9.4q0-.838-.064-1.572a3.342,3.342,0,0,0-.353-1.283,2.137,2.137,0,0,0-.85-.865,3.071,3.071,0,0,0-1.523-.321,2.918,2.918,0,0,0-1.556.369,2.673,2.673,0,0,0-.93.963,3.852,3.852,0,0,0-.449,1.347,10.286,10.286,0,0,0-.113,1.523v9.238H351.77v-9.3q0-.737-.032-1.459a4.1,4.1,0,0,0-.279-1.332,2.053,2.053,0,0,0-.8-.977,3.03,3.03,0,0,0-1.651-.368,3.421,3.421,0,0,0-.85.14,2.836,2.836,0,0,0-1.026.546,3.189,3.189,0,0,0-.85,1.154,4.685,4.685,0,0,0-.353,1.972v9.623H341.37V457.388Z" transform="translate(-322.573 -448.641)" fill="#fff"/>
        <path id="Caminho_4715" data-name="Caminho 4715" d="M459.379,461.276a3.2,3.2,0,0,0-2.486-.9,3.965,3.965,0,0,0-1.815.369,3.45,3.45,0,0,0-1.154.914,3.351,3.351,0,0,0-.61,1.154,5.193,5.193,0,0,0-.208,1.09h7.41a5.266,5.266,0,0,0-1.139-2.63M454.228,470a4.67,4.67,0,0,0,5.326.3,2.864,2.864,0,0,0,1.219-1.459h4.009a7.611,7.611,0,0,1-2.951,4.266,8.686,8.686,0,0,1-4.812,1.283,9.472,9.472,0,0,1-3.529-.625,7.331,7.331,0,0,1-2.662-1.781,8,8,0,0,1-1.683-2.758,10.086,10.086,0,0,1-.593-3.529,9.674,9.674,0,0,1,.609-3.465,8.016,8.016,0,0,1,4.411-4.619,8.585,8.585,0,0,1,3.448-.673,7.882,7.882,0,0,1,3.688.818,7.37,7.37,0,0,1,2.583,2.2,9.041,9.041,0,0,1,1.46,3.144,11.733,11.733,0,0,1,.321,3.689H453.106A4.606,4.606,0,0,0,454.223,470" transform="translate(-402.084 -448.642)" fill="#fff"/>
        <path id="Caminho_4716" data-name="Caminho 4716" d="M525.865,457.391v3.079h.064a5.583,5.583,0,0,1,.867-1.427,5.679,5.679,0,0,1,1.256-1.117,6.132,6.132,0,0,1,1.508-.722,5.432,5.432,0,0,1,1.675-.257,3.562,3.562,0,0,1,.994.161v4.234c-.214-.042-.47-.08-.771-.112a8.229,8.229,0,0,0-.865-.047,4.861,4.861,0,0,0-2.118.419,3.664,3.664,0,0,0-1.4,1.139,4.545,4.545,0,0,0-.754,1.683,9.173,9.173,0,0,0-.224,2.085v7.474h-4.555V457.4Z" transform="translate(-456.224 -448.638)" fill="#fff"/>
        <rect id="Retângulo_2888" data-name="Retângulo 2888" width="4.555" height="16.583" transform="translate(77.715 8.754)" fill="#fff"/>
        <path id="Caminho_4717" data-name="Caminho 4717" d="M605.251,460.373a3.2,3.2,0,0,0-1.829.5,3.95,3.95,0,0,0-1.2,1.283,5.548,5.548,0,0,0-.657,1.732,9.381,9.381,0,0,0-.193,1.876,9,9,0,0,0,.193,1.829,5.656,5.656,0,0,0,.625,1.685,3.6,3.6,0,0,0,1.171,1.235,3.22,3.22,0,0,0,1.8.482,3.336,3.336,0,0,0,2.513-.914,4.328,4.328,0,0,0,1.107-2.454h4.394a7.515,7.515,0,0,1-2.566,5.036,8.285,8.285,0,0,1-5.422,1.732,9.071,9.071,0,0,1-3.416-.625,7.564,7.564,0,0,1-2.652-1.748,7.947,7.947,0,0,1-1.7-2.679,9.286,9.286,0,0,1-.609-3.416,11.05,11.05,0,0,1,.558-3.576,8.038,8.038,0,0,1,1.653-2.855,7.558,7.558,0,0,1,2.662-1.876,9.05,9.05,0,0,1,3.593-.674,10.4,10.4,0,0,1,2.839.385,7.6,7.6,0,0,1,2.437,1.171,6.057,6.057,0,0,1,2.513,4.732H608.6a3.054,3.054,0,0,0-3.368-2.855" transform="translate(-512.071 -448.641)" fill="#fff"/>
        <path id="Caminho_4718" data-name="Caminho 4718" d="M677.092,465.863a2.037,2.037,0,0,1-.722.4,7.286,7.286,0,0,1-.931.24q-.5.1-1.043.16t-1.09.161a8.309,8.309,0,0,0-1.009.257,2.992,2.992,0,0,0-.867.433,2.054,2.054,0,0,0-.593.69,2.217,2.217,0,0,0-.225,1.058,2.14,2.14,0,0,0,.225,1.026,1.715,1.715,0,0,0,.609.658,2.564,2.564,0,0,0,.9.336,5.714,5.714,0,0,0,1.058.1,4.023,4.023,0,0,0,2.085-.45,3,3,0,0,0,1.09-1.075,3.441,3.441,0,0,0,.433-1.268,8.8,8.8,0,0,0,.08-1.026Zm-10.521-3.368a5.293,5.293,0,0,1,.8-2.662,5.459,5.459,0,0,1,1.8-1.7,7.818,7.818,0,0,1,2.454-.914,13.994,13.994,0,0,1,2.743-.279,18.662,18.662,0,0,1,2.534.176,7.759,7.759,0,0,1,2.341.69,4.607,4.607,0,0,1,1.732,1.428,3.988,3.988,0,0,1,.674,2.422v8.631a17.24,17.24,0,0,0,.128,2.15,3.878,3.878,0,0,0,.45,1.536h-4.62a6.449,6.449,0,0,1-.208-.786,6.614,6.614,0,0,1-.112-.818,5.937,5.937,0,0,1-2.566,1.572,10.3,10.3,0,0,1-3.015.449,8.153,8.153,0,0,1-2.213-.289,5.062,5.062,0,0,1-1.8-.9,4.18,4.18,0,0,1-1.2-1.536,5.2,5.2,0,0,1-.433-2.214,4.835,4.835,0,0,1,.5-2.326,4.151,4.151,0,0,1,1.283-1.459,5.749,5.749,0,0,1,1.8-.818,19.4,19.4,0,0,1,2.036-.433q1.026-.161,2.021-.257a12.144,12.144,0,0,0,1.764-.289,3.071,3.071,0,0,0,1.219-.558,1.234,1.234,0,0,0,.419-1.075,2.412,2.412,0,0,0-.241-1.171,1.769,1.769,0,0,0-.641-.674,2.535,2.535,0,0,0-.93-.321,7.65,7.65,0,0,0-1.139-.08,3.457,3.457,0,0,0-2.118.578,2.577,2.577,0,0,0-.9,1.925Z" transform="translate(-563.438 -448.642)" fill="#fff"/>
        <path id="Caminho_4719" data-name="Caminho 4719" d="M743.061,457.395V459.7h.1a5.228,5.228,0,0,1,2.245-2.1,6.5,6.5,0,0,1,2.824-.658,7.749,7.749,0,0,1,3,.5,4.456,4.456,0,0,1,1.844,1.379,5.351,5.351,0,0,1,.946,2.15,13.4,13.4,0,0,1,.279,2.806v10.2h-4.555V464.61a5.809,5.809,0,0,0-.642-3.063,2.485,2.485,0,0,0-2.278-1.011,3.155,3.155,0,0,0-2.694,1.107,6.151,6.151,0,0,0-.837,3.641v8.692h-4.555V457.393Z" transform="translate(-617.349 -448.641)" fill="#fff"/>
        <path id="Caminho_4720" data-name="Caminho 4720" d="M819.1,465.863a2.041,2.041,0,0,1-.722.4,7.338,7.338,0,0,1-.93.24q-.5.1-1.043.161t-1.09.161a8.355,8.355,0,0,0-1.011.257,3,3,0,0,0-.865.433,2.051,2.051,0,0,0-.593.69,2.219,2.219,0,0,0-.225,1.058,2.144,2.144,0,0,0,.225,1.026,1.709,1.709,0,0,0,.61.657,2.563,2.563,0,0,0,.9.336,5.72,5.72,0,0,0,1.058.1,4.024,4.024,0,0,0,2.085-.45,3,3,0,0,0,1.09-1.075,3.434,3.434,0,0,0,.432-1.268,8.718,8.718,0,0,0,.081-1.026Zm-10.521-3.368a5.292,5.292,0,0,1,.8-2.662,5.462,5.462,0,0,1,1.8-1.7,7.832,7.832,0,0,1,2.454-.914,14,14,0,0,1,2.743-.279,18.653,18.653,0,0,1,2.534.176,7.762,7.762,0,0,1,2.341.69,4.606,4.606,0,0,1,1.732,1.428,3.991,3.991,0,0,1,.673,2.422v8.631a17.334,17.334,0,0,0,.129,2.15,3.885,3.885,0,0,0,.449,1.536h-4.619a6.425,6.425,0,0,1-.209-.786,6.711,6.711,0,0,1-.112-.818,5.931,5.931,0,0,1-2.566,1.572,10.3,10.3,0,0,1-3.015.45,8.155,8.155,0,0,1-2.214-.289,5.07,5.07,0,0,1-1.8-.9,4.187,4.187,0,0,1-1.2-1.535,5.21,5.21,0,0,1-.433-2.214,4.829,4.829,0,0,1,.5-2.326,4.153,4.153,0,0,1,1.283-1.459,5.755,5.755,0,0,1,1.8-.818,19.391,19.391,0,0,1,2.036-.433q1.026-.16,2.021-.257a12.122,12.122,0,0,0,1.764-.289,3.077,3.077,0,0,0,1.22-.558,1.234,1.234,0,0,0,.419-1.075,2.419,2.419,0,0,0-.241-1.171,1.771,1.771,0,0,0-.641-.674,2.535,2.535,0,0,0-.931-.321,7.665,7.665,0,0,0-1.139-.08,3.458,3.458,0,0,0-2.118.578,2.576,2.576,0,0,0-.9,1.925Z" transform="translate(-668.785 -448.642)" fill="#fff"/>
        <path id="Caminho_4721" data-name="Caminho 4721" d="M881.834,469.857a2.651,2.651,0,0,0,.786.865,3.364,3.364,0,0,0,1.107.5,5.19,5.19,0,0,0,1.3.161,4.833,4.833,0,0,0,1.011-.112,3.428,3.428,0,0,0,.963-.353,2.177,2.177,0,0,0,.722-.642,1.686,1.686,0,0,0,.289-1.011q0-1.026-1.364-1.536a27.35,27.35,0,0,0-3.8-1.027q-1-.223-1.94-.529a6.589,6.589,0,0,1-1.683-.8,3.889,3.889,0,0,1-1.187-1.256,3.539,3.539,0,0,1-.449-1.845,4.986,4.986,0,0,1,.625-2.63,4.607,4.607,0,0,1,1.651-1.621,7.248,7.248,0,0,1,2.31-.838,14.226,14.226,0,0,1,2.63-.24,13.134,13.134,0,0,1,2.614.257,6.934,6.934,0,0,1,2.261.865,5.194,5.194,0,0,1,1.651,1.621,5.446,5.446,0,0,1,.786,2.55h-4.327a2,2,0,0,0-.994-1.78,4.554,4.554,0,0,0-2.118-.465,7.884,7.884,0,0,0-.838.047,2.793,2.793,0,0,0-.818.208,1.7,1.7,0,0,0-.625.465,1.228,1.228,0,0,0-.257.818,1.247,1.247,0,0,0,.448.994,3.452,3.452,0,0,0,1.171.625,14.6,14.6,0,0,0,1.651.433q.93.193,1.893.419a19.355,19.355,0,0,1,1.94.544,6.4,6.4,0,0,1,1.683.85,4.128,4.128,0,0,1,1.187,1.315,3.863,3.863,0,0,1,.449,1.94,5.036,5.036,0,0,1-2.373,4.523,7.036,7.036,0,0,1-2.422.946,14.148,14.148,0,0,1-2.775.279,13.721,13.721,0,0,1-2.822-.289,7.447,7.447,0,0,1-2.454-.962,5.5,5.5,0,0,1-1.764-1.781,5.574,5.574,0,0,1-.754-2.775h4.327a2.5,2.5,0,0,0,.3,1.268" transform="translate(-720.071 -448.642)" fill="#fff"/>
        <rect id="Retângulo_2889" data-name="Retângulo 2889" width="172.442" height="4.311" fill="#fff"/>
        <rect id="Retângulo_2890" data-name="Retângulo 2890" width="172.442" height="4.311" transform="translate(0 29.32)" fill="#fff"/>
      </g>
      <g id="Grupo_93" data-name="Grupo 93" transform="translate(188.027 2.228)">
        <path id="Caminho_4722" data-name="Caminho 4722" d="M998.81,456.871v2.82h.1a6.4,6.4,0,0,1,2.123-2.432,5.932,5.932,0,0,1,3.35-.875,5.7,5.7,0,0,1,3,.811,3.974,3.974,0,0,1,1.8,2.464,5.132,5.132,0,0,1,2.2-2.464,6.314,6.314,0,0,1,3.112-.811q5.542,0,5.542,5.863v11.345h-2.042V462.344a4.94,4.94,0,0,0-.875-3.16,3.758,3.758,0,0,0-3.079-1.086,4.379,4.379,0,0,0-2.2.5,3.87,3.87,0,0,0-1.4,1.346,5.723,5.723,0,0,0-.729,1.929,11.737,11.737,0,0,0-.211,2.253v9.464h-2.042V462.248a7.048,7.048,0,0,0-.178-1.6,3.734,3.734,0,0,0-.584-1.329,2.775,2.775,0,0,0-1.086-.892,3.832,3.832,0,0,0-1.653-.324,5.057,5.057,0,0,0-2.253.47,4.149,4.149,0,0,0-1.556,1.3,5.745,5.745,0,0,0-.892,1.945,9.686,9.686,0,0,0-.292,2.447v9.334H996.92V456.871Z" transform="translate(-996.92 -450.454)" fill="#fff"/>
        <path id="Caminho_4723" data-name="Caminho 4723" d="M1099.321,459.463a4.79,4.79,0,0,1,1.41-1.751,5.973,5.973,0,0,1,2.094-1,10.19,10.19,0,0,1,2.652-.324,11.739,11.739,0,0,1,2.2.211,5.335,5.335,0,0,1,1.977.794,4.328,4.328,0,0,1,1.427,1.638,5.914,5.914,0,0,1,.551,2.739v8.881a1.075,1.075,0,0,0,1.2,1.231,1.581,1.581,0,0,0,.648-.13v1.718q-.357.066-.632.1a6.1,6.1,0,0,1-.7.032,3.083,3.083,0,0,1-1.248-.211,1.675,1.675,0,0,1-.73-.6,2.231,2.231,0,0,1-.341-.924,7.822,7.822,0,0,1-.081-1.184h-.065a13.738,13.738,0,0,1-1.117,1.442,5.562,5.562,0,0,1-1.265,1.054,5.829,5.829,0,0,1-1.588.648,8.716,8.716,0,0,1-2.123.226,8.391,8.391,0,0,1-2.189-.279,4.9,4.9,0,0,1-1.783-.875,4.178,4.178,0,0,1-1.2-1.523,5.066,5.066,0,0,1-.438-2.187,4.328,4.328,0,0,1,.778-2.739,4.9,4.9,0,0,1,2.058-1.508,11.76,11.76,0,0,1,2.884-.729q1.6-.211,3.258-.4.648-.064,1.135-.162a1.974,1.974,0,0,0,.81-.341,1.576,1.576,0,0,0,.5-.664,2.876,2.876,0,0,0,.179-1.1,3.731,3.731,0,0,0-.34-1.7,2.7,2.7,0,0,0-.94-1.054,3.8,3.8,0,0,0-1.4-.535,9.421,9.421,0,0,0-1.7-.14,5.152,5.152,0,0,0-3.177.924,3.618,3.618,0,0,0-1.3,2.966h-2.03a6.789,6.789,0,0,1,.614-2.531Zm10.21,4.992a1.167,1.167,0,0,1-.745.518,7.553,7.553,0,0,1-.977.227q-1.3.228-2.673.4a14.679,14.679,0,0,0-2.513.535,4.918,4.918,0,0,0-1.863,1.02,2.435,2.435,0,0,0-.729,1.9,2.972,2.972,0,0,0,.308,1.378,3.337,3.337,0,0,0,.827,1.037,3.6,3.6,0,0,0,1.2.665,4.378,4.378,0,0,0,1.4.227,7.014,7.014,0,0,0,2.234-.356,5.5,5.5,0,0,0,1.864-1.037,4.933,4.933,0,0,0,1.734-3.857V464.46Z" transform="translate(-1071.898 -450.452)" fill="#fff"/>
        <path id="Caminho_4724" data-name="Caminho 4724" d="M1168.552,457.595v3.923h.064a6.422,6.422,0,0,1,2.415-3.144,6.322,6.322,0,0,1,3.909-1.005v2.042a6.162,6.162,0,0,0-2.528.373,5.584,5.584,0,0,0-3.241,3.176,6.444,6.444,0,0,0-.454,2.447v8.913h-2.042V457.595Z" transform="translate(-1122.838 -451.177)" fill="#fff"/>
        <path id="Caminho_4725" data-name="Caminho 4725" d="M1208.259,433.408v14.518l9.27-8.1h2.722l-7.13,6.191,7.616,10.534h-2.56l-6.613-9.108-3.306,2.755v6.353h-2.042V433.408Z" transform="translate(-1152.177 -433.408)" fill="#fff"/>
        <path id="Caminho_4726" data-name="Caminho 4726" d="M1268.077,468.07a6.259,6.259,0,0,0,.988,2.123,5.649,5.649,0,0,0,1.718,1.556,4.8,4.8,0,0,0,2.5.616,4.964,4.964,0,0,0,3.5-1.167,6.135,6.135,0,0,0,1.75-3.112h2.042a8.153,8.153,0,0,1-2.383,4.408,7.1,7.1,0,0,1-4.909,1.555,7.791,7.791,0,0,1-3.42-.7,6.292,6.292,0,0,1-2.349-1.912,8.313,8.313,0,0,1-1.346-2.82,12.815,12.815,0,0,1-.438-3.386,12.138,12.138,0,0,1,.438-3.241,8.706,8.706,0,0,1,1.345-2.837,6.756,6.756,0,0,1,2.349-2.01,7.23,7.23,0,0,1,3.42-.762,6.614,6.614,0,0,1,5.753,2.931,8.794,8.794,0,0,1,1.28,3.014,13.231,13.231,0,0,1,.324,3.452h-12.868a9.045,9.045,0,0,0,.308,2.289Zm10.112-6.24a6.127,6.127,0,0,0-1.054-1.9,5.222,5.222,0,0,0-1.653-1.329,4.731,4.731,0,0,0-2.2-.5,4.806,4.806,0,0,0-2.233.5,5.216,5.216,0,0,0-1.653,1.329,6.615,6.615,0,0,0-1.086,1.912,9.315,9.315,0,0,0-.535,2.219H1278.6a7.4,7.4,0,0,0-.4-2.236Z" transform="translate(-1196.325 -450.454)" fill="#fff"/>
        <path id="Caminho_4727" data-name="Caminho 4727" d="M1335.86,443.832v1.718h-3.4v11.279a3.658,3.658,0,0,0,.279,1.572q.279.567,1.378.632a15.812,15.812,0,0,0,1.75-.1v1.718c-.3,0-.6.011-.907.032s-.606.032-.907.032a3.017,3.017,0,0,1-3.629-3.727V445.545H1327.5v-1.718h2.917V438.8h2.042v5.025Z" transform="translate(-1242.147 -437.415)" fill="#fff"/>
        <path id="Caminho_4728" data-name="Caminho 4728" d="M1373.194,456.87v3.176h.064a5.467,5.467,0,0,1,2.317-2.707,6.988,6.988,0,0,1,3.646-.956,7.279,7.279,0,0,1,3.322.713,6.824,6.824,0,0,1,2.349,1.929,8.212,8.212,0,0,1,1.4,2.82,12.865,12.865,0,0,1,0,6.774,8.212,8.212,0,0,1-1.4,2.82,6.661,6.661,0,0,1-2.349,1.912,7.936,7.936,0,0,1-5.137.47,6.409,6.409,0,0,1-1.685-.681,5.549,5.549,0,0,1-1.378-1.135,4.814,4.814,0,0,1-.924-1.589h-.066v9.334h-2.042V456.87Zm11.2,5.786a7.16,7.16,0,0,0-.977-2.285,5.371,5.371,0,0,0-1.7-1.637,4.706,4.706,0,0,0-2.5-.632,6.124,6.124,0,0,0-2.82.584,4.908,4.908,0,0,0-1.815,1.555,6.123,6.123,0,0,0-.956,2.268,13.024,13.024,0,0,0-.279,2.722,10.961,10.961,0,0,0,.308,2.577,6.714,6.714,0,0,0,1,2.285,5.41,5.41,0,0,0,1.815,1.637,5.492,5.492,0,0,0,2.739.632,4.708,4.708,0,0,0,2.5-.632,5.359,5.359,0,0,0,1.7-1.637,7.136,7.136,0,0,0,.977-2.285,10.944,10.944,0,0,0,0-5.154Z" transform="translate(-1274.653 -450.453)" fill="#fff"/>
        <path id="Caminho_4729" data-name="Caminho 4729" d="M1445.552,433.408V456.55H1443.5V433.408Z" transform="translate(-1328.208 -433.408)" fill="#fff"/>
        <path id="Caminho_4730" data-name="Caminho 4730" d="M1464.42,459.462a4.788,4.788,0,0,1,1.41-1.75,5.973,5.973,0,0,1,2.094-1.005,10.2,10.2,0,0,1,2.653-.324,11.74,11.74,0,0,1,2.2.211,5.339,5.339,0,0,1,1.978.794,4.337,4.337,0,0,1,1.427,1.637,5.916,5.916,0,0,1,.551,2.739v8.881a1.075,1.075,0,0,0,1.2,1.231,1.579,1.579,0,0,0,.648-.13v1.718q-.356.066-.632.1a6.114,6.114,0,0,1-.7.032,3.084,3.084,0,0,1-1.248-.211,1.675,1.675,0,0,1-.73-.6,2.23,2.23,0,0,1-.339-.924,7.838,7.838,0,0,1-.081-1.184h-.066a13.674,13.674,0,0,1-1.117,1.442,5.549,5.549,0,0,1-1.264,1.054,5.832,5.832,0,0,1-1.588.648,8.718,8.718,0,0,1-2.122.226,8.393,8.393,0,0,1-2.189-.279,4.9,4.9,0,0,1-1.783-.875,4.17,4.17,0,0,1-1.2-1.523,5.069,5.069,0,0,1-.438-2.187,4.328,4.328,0,0,1,.778-2.739,4.894,4.894,0,0,1,2.059-1.508,11.754,11.754,0,0,1,2.884-.729q1.6-.211,3.257-.4.648-.064,1.135-.162a1.973,1.973,0,0,0,.81-.341,1.576,1.576,0,0,0,.5-.665,2.871,2.871,0,0,0,.179-1.1,3.72,3.72,0,0,0-.341-1.7,2.7,2.7,0,0,0-.939-1.054,3.791,3.791,0,0,0-1.4-.535,9.415,9.415,0,0,0-1.7-.14,5.153,5.153,0,0,0-3.177.924,3.617,3.617,0,0,0-1.3,2.966h-2.034a6.783,6.783,0,0,1,.614-2.531Zm10.21,4.992a1.168,1.168,0,0,1-.745.518,7.545,7.545,0,0,1-.977.227q-1.3.228-2.675.4a14.68,14.68,0,0,0-2.513.535,4.911,4.911,0,0,0-1.864,1.02,2.436,2.436,0,0,0-.729,1.9,2.97,2.97,0,0,0,.307,1.378,3.338,3.338,0,0,0,.827,1.037,3.591,3.591,0,0,0,1.2.664,4.379,4.379,0,0,0,1.4.227,7.018,7.018,0,0,0,2.233-.356,5.5,5.5,0,0,0,1.864-1.037,4.934,4.934,0,0,0,1.735-3.857V464.46Z" transform="translate(-1342.739 -450.452)" fill="#fff"/>
        <path id="Caminho_4731" data-name="Caminho 4731" d="M1539.583,459.172a4.449,4.449,0,0,0-3.177-1.069,5.165,5.165,0,0,0-2.56.615,5.627,5.627,0,0,0-1.831,1.621,7.359,7.359,0,0,0-1.1,2.285,9.324,9.324,0,0,0,0,5.218,7.345,7.345,0,0,0,1.1,2.285,5.625,5.625,0,0,0,1.832,1.62,5.164,5.164,0,0,0,2.56.616,4.525,4.525,0,0,0,1.782-.356,4.781,4.781,0,0,0,1.491-.988,5.282,5.282,0,0,0,1.069-1.506,5.573,5.573,0,0,0,.518-1.912h2.042a7.714,7.714,0,0,1-2.234,4.746,6.551,6.551,0,0,1-4.668,1.7,7.839,7.839,0,0,1-3.387-.7,7.186,7.186,0,0,1-2.479-1.9,8.271,8.271,0,0,1-1.523-2.8,11.534,11.534,0,0,1,0-6.84,8.273,8.273,0,0,1,1.523-2.8,7.373,7.373,0,0,1,2.479-1.912,7.688,7.688,0,0,1,3.387-.713,7.273,7.273,0,0,1,4.553,1.427,6.089,6.089,0,0,1,2.221,4.311h-2.042a5.623,5.623,0,0,0-1.556-2.947Z" transform="translate(-1391.26 -450.453)" fill="#fff"/>
        <path id="Caminho_4732" data-name="Caminho 4732" d="M1596.007,468.07a6.256,6.256,0,0,0,.989,2.123,5.647,5.647,0,0,0,1.717,1.557,4.8,4.8,0,0,0,2.5.616,4.963,4.963,0,0,0,3.5-1.167,6.135,6.135,0,0,0,1.75-3.112h2.042a8.155,8.155,0,0,1-2.383,4.408,7.1,7.1,0,0,1-4.909,1.555,7.785,7.785,0,0,1-3.42-.7,6.279,6.279,0,0,1-2.349-1.912,8.317,8.317,0,0,1-1.346-2.82,12.821,12.821,0,0,1-.437-3.387,12.137,12.137,0,0,1,.437-3.241,8.7,8.7,0,0,1,1.346-2.836,6.748,6.748,0,0,1,2.349-2.01,7.228,7.228,0,0,1,3.42-.762,6.614,6.614,0,0,1,5.753,2.931,8.8,8.8,0,0,1,1.28,3.014,13.226,13.226,0,0,1,.324,3.452H1595.7A9.04,9.04,0,0,0,1596.007,468.07Zm10.112-6.24a6.124,6.124,0,0,0-1.053-1.9,5.218,5.218,0,0,0-1.653-1.329,4.733,4.733,0,0,0-2.2-.5,4.8,4.8,0,0,0-2.233.5,5.214,5.214,0,0,0-1.653,1.329,6.608,6.608,0,0,0-1.086,1.912,9.332,9.332,0,0,0-.535,2.219h10.825a7.369,7.369,0,0,0-.4-2.236Z" transform="translate(-1439.601 -450.454)" fill="#fff"/>
      </g>
    </g>
    <g id="Grupo_95" data-name="Grupo 95" transform="translate(192.052 7175.967)">
      <path id="Caminho_4733" data-name="Caminho 4733" d="M269.828,624.919a.966.966,0,0,0,.335.331,1.5,1.5,0,0,0,.469.176,2.662,2.662,0,0,0,.537.053,3.375,3.375,0,0,0,.447-.032,1.656,1.656,0,0,0,.431-.117.812.812,0,0,0,.325-.25.666.666,0,0,0,.128-.419.6.6,0,0,0-.267-.533,2.271,2.271,0,0,0-.666-.293q-.4-.112-.868-.2a4.464,4.464,0,0,1-.868-.255,1.8,1.8,0,0,1-.666-.463,1.2,1.2,0,0,1-.267-.838,1.319,1.319,0,0,1,.187-.713,1.528,1.528,0,0,1,.479-.484,2.216,2.216,0,0,1,.66-.279,3.051,3.051,0,0,1,.73-.091,4.33,4.33,0,0,1,.863.08,1.989,1.989,0,0,1,.7.279,1.433,1.433,0,0,1,.484.533,2.02,2.02,0,0,1,.214.838h-.906a.919.919,0,0,0-.14-.443.908.908,0,0,0-.3-.279,1.363,1.363,0,0,0-.4-.155,2.065,2.065,0,0,0-.442-.047,2.685,2.685,0,0,0-.41.032,1.385,1.385,0,0,0-.378.112.758.758,0,0,0-.279.214.537.537,0,0,0-.106.346.51.51,0,0,0,.165.39,1.316,1.316,0,0,0,.419.255,3.661,3.661,0,0,0,.575.17l.639.14a6.839,6.839,0,0,1,.666.181,2.173,2.173,0,0,1,.575.279,1.379,1.379,0,0,1,.4.442,1.3,1.3,0,0,1,.155.66,1.535,1.535,0,0,1-.208.837,1.625,1.625,0,0,1-.543.533,2.276,2.276,0,0,1-.757.279,4.486,4.486,0,0,1-.838.08,3.886,3.886,0,0,1-.874-.1,2.141,2.141,0,0,1-.734-.314,1.6,1.6,0,0,1-.511-.575,1.994,1.994,0,0,1-.214-.868h.9a1.02,1.02,0,0,0,.148.508Z" transform="translate(-268.775 -617.949)" fill="#fff"/>
      <path id="Caminho_4734" data-name="Caminho 4734" d="M289.783,622.265a2.569,2.569,0,0,1,.511-.916,2.41,2.41,0,0,1,.838-.613,3.083,3.083,0,0,1,2.306,0,2.425,2.425,0,0,1,.838.613,2.571,2.571,0,0,1,.511.916,3.667,3.667,0,0,1,.17,1.135,3.616,3.616,0,0,1-.17,1.129,2.572,2.572,0,0,1-.511.91,2.36,2.36,0,0,1-.838.607,3.151,3.151,0,0,1-2.306,0,2.348,2.348,0,0,1-.838-.607,2.572,2.572,0,0,1-.511-.91,3.613,3.613,0,0,1-.17-1.129,3.665,3.665,0,0,1,.17-1.135Zm.921,2.024a1.856,1.856,0,0,0,.367.649,1.589,1.589,0,0,0,.549.4,1.676,1.676,0,0,0,1.332,0,1.594,1.594,0,0,0,.549-.4,1.861,1.861,0,0,0,.367-.649,3.034,3.034,0,0,0,0-1.778,1.922,1.922,0,0,0-.367-.655,1.569,1.569,0,0,0-.549-.4,1.675,1.675,0,0,0-1.332,0,1.569,1.569,0,0,0-.549.4,1.917,1.917,0,0,0-.367.655A3.038,3.038,0,0,0,290.7,624.289Z" transform="translate(-284.226 -617.947)" fill="#fff"/>
      <path id="Caminho_4735" data-name="Caminho 4735" d="M315.3,620.638v.81h.021a2.146,2.146,0,0,1,2.705-.724,1.192,1.192,0,0,1,.586.724,1.924,1.924,0,0,1,.73-.7,2.059,2.059,0,0,1,1-.244,2.893,2.893,0,0,1,.751.091,1.564,1.564,0,0,1,.575.279,1.281,1.281,0,0,1,.373.5,1.815,1.815,0,0,1,.14.73v4.036h-.9v-3.61a2.586,2.586,0,0,0-.043-.48.976.976,0,0,0-.159-.388.8.8,0,0,0-.325-.261,1.294,1.294,0,0,0-.537-.1,1.426,1.426,0,0,0-1.054.384,1.382,1.382,0,0,0-.383,1.022v3.43h-.906v-3.61a2.337,2.337,0,0,0-.047-.49,1.038,1.038,0,0,0-.165-.388.773.773,0,0,0-.314-.255,1.217,1.217,0,0,0-.505-.091,1.352,1.352,0,0,0-.677.159,1.535,1.535,0,0,0-.713.847,1.318,1.318,0,0,0-.08.4v3.43h-.906v-5.5Z" transform="translate(-302.647 -617.951)" fill="#fff"/>
      <path id="Caminho_4736" data-name="Caminho 4736" d="M353.654,626.125a1.282,1.282,0,0,1-.649.14.779.779,0,0,1-.558-.2.856.856,0,0,1-.208-.645,2.167,2.167,0,0,1-.868.645,3,3,0,0,1-1.778.112,1.642,1.642,0,0,1-.581-.267,1.275,1.275,0,0,1-.389-.475,1.594,1.594,0,0,1-.14-.708,1.615,1.615,0,0,1,.159-.766,1.4,1.4,0,0,1,.419-.484,1.928,1.928,0,0,1,.6-.279q.336-.1.687-.161.373-.074.708-.112a3.947,3.947,0,0,0,.591-.106.977.977,0,0,0,.4-.2.494.494,0,0,0,.149-.388.9.9,0,0,0-.112-.479.768.768,0,0,0-.288-.279,1.172,1.172,0,0,0-.394-.127,2.949,2.949,0,0,0-.431-.032,1.915,1.915,0,0,0-.959.218.925.925,0,0,0-.419.825h-.906a1.955,1.955,0,0,1,.214-.863,1.618,1.618,0,0,1,.511-.57,2.153,2.153,0,0,1,.73-.314,3.866,3.866,0,0,1,.878-.1,5.2,5.2,0,0,1,.74.053,1.943,1.943,0,0,1,.666.218,1.277,1.277,0,0,1,.479.462,1.477,1.477,0,0,1,.182.776v2.827a2.1,2.1,0,0,0,.038.468q.038.149.25.148a1.092,1.092,0,0,0,.279-.042Zm-1.47-2.823a1.131,1.131,0,0,1-.448.186q-.279.059-.581.095t-.613.085a2.254,2.254,0,0,0-.558.154,1,1,0,0,0-.4.3.838.838,0,0,0-.155.535.727.727,0,0,0,.091.377.751.751,0,0,0,.235.248.978.978,0,0,0,.335.14,1.86,1.86,0,0,0,.4.042,2.149,2.149,0,0,0,.766-.121,1.611,1.611,0,0,0,.522-.307,1.216,1.216,0,0,0,.3-.4,1.018,1.018,0,0,0,.1-.408Z" transform="translate(-327.895 -617.947)" fill="#fff"/>
      <path id="Caminho_4737" data-name="Caminho 4737" d="M372.514,620.638V621.8h.021a2.45,2.45,0,0,1,.81-.99,2.035,2.035,0,0,1,1.214-.3v.958a2.559,2.559,0,0,0-.927.149,1.465,1.465,0,0,0-.618.437,1.815,1.815,0,0,0-.341.7,3.771,3.771,0,0,0-.106.942v2.45h-.906v-5.507Z" transform="translate(-345.094 -617.945)" fill="#fff"/>
      <path id="Caminho_4738" data-name="Caminho 4738" d="M398.021,620.637v.745h.021a1.355,1.355,0,0,1,.7-.666,2.622,2.622,0,0,1,1.054-.208,2.484,2.484,0,0,1,1.117.235,2.267,2.267,0,0,1,.787.634,2.8,2.8,0,0,1,.475.921,3.762,3.762,0,0,1,.159,1.107,3.894,3.894,0,0,1-.155,1.108,2.613,2.613,0,0,1-.469.91,2.212,2.212,0,0,1-.787.613,2.56,2.56,0,0,1-1.1.223,2.715,2.715,0,0,1-.452-.043,2.54,2.54,0,0,1-.5-.14,1.928,1.928,0,0,1-.463-.261,1.451,1.451,0,0,1-.367-.41h-.021v2.832h-.906v-7.6Zm3.254,1.954a2.027,2.027,0,0,0-.309-.655,1.506,1.506,0,0,0-.533-.458,1.618,1.618,0,0,0-.761-.17,1.493,1.493,0,0,0-1.3.655,1.977,1.977,0,0,0-.293.666,3.223,3.223,0,0,0,0,1.535,1.939,1.939,0,0,0,.3.666,1.549,1.549,0,0,0,.537.463,1.675,1.675,0,0,0,.8.176,1.547,1.547,0,0,0,.783-.182,1.455,1.455,0,0,0,.505-.479,2.079,2.079,0,0,0,.279-.681,3.634,3.634,0,0,0,.085-.789,2.816,2.816,0,0,0-.1-.748Z" transform="translate(-363.976 -617.949)" fill="#fff"/>
      <path id="Caminho_4739" data-name="Caminho 4739" d="M422.18,620.638V621.8h.021a2.453,2.453,0,0,1,.81-.99,2.035,2.035,0,0,1,1.214-.3v.958a2.56,2.56,0,0,0-.927.149,1.462,1.462,0,0,0-.617.437,1.807,1.807,0,0,0-.341.7,3.773,3.773,0,0,0-.106.942v2.45h-.906v-5.507Z" transform="translate(-381.938 -617.945)" fill="#fff"/>
      <path id="Caminho_4740" data-name="Caminho 4740" d="M433.462,622.265a2.565,2.565,0,0,1,.511-.916,2.41,2.41,0,0,1,.838-.613,3.083,3.083,0,0,1,2.306,0,2.424,2.424,0,0,1,.838.613,2.573,2.573,0,0,1,.511.916,3.667,3.667,0,0,1,.17,1.135,3.617,3.617,0,0,1-.17,1.129,2.576,2.576,0,0,1-.511.91,2.36,2.36,0,0,1-.838.607,3.15,3.15,0,0,1-2.306,0,2.345,2.345,0,0,1-.838-.607,2.567,2.567,0,0,1-.511-.91,3.614,3.614,0,0,1-.17-1.129,3.663,3.663,0,0,1,.17-1.135Zm.921,2.024a1.858,1.858,0,0,0,.367.649,1.591,1.591,0,0,0,.549.4,1.676,1.676,0,0,0,1.332,0,1.594,1.594,0,0,0,.549-.4,1.863,1.863,0,0,0,.367-.649,3.033,3.033,0,0,0,0-1.778,1.925,1.925,0,0,0-.367-.655,1.571,1.571,0,0,0-.549-.4,1.674,1.674,0,0,0-1.332,0,1.569,1.569,0,0,0-.549.4,1.92,1.92,0,0,0-.367.655,3.04,3.04,0,0,0,0,1.778Z" transform="translate(-390.814 -617.947)" fill="#fff"/>
      <path id="Caminho_4741" data-name="Caminho 4741" d="M469.279,624.919a.966.966,0,0,0,.335.331,1.5,1.5,0,0,0,.469.176,2.661,2.661,0,0,0,.537.053,3.377,3.377,0,0,0,.447-.032,1.655,1.655,0,0,0,.431-.117.812.812,0,0,0,.325-.25.666.666,0,0,0,.128-.419.6.6,0,0,0-.267-.533,2.268,2.268,0,0,0-.666-.293q-.4-.112-.868-.2a4.465,4.465,0,0,1-.868-.255,1.8,1.8,0,0,1-.666-.463,1.2,1.2,0,0,1-.267-.838,1.32,1.32,0,0,1,.186-.713,1.529,1.529,0,0,1,.479-.484,2.215,2.215,0,0,1,.66-.279,3.051,3.051,0,0,1,.73-.091,4.339,4.339,0,0,1,.863.079,1.986,1.986,0,0,1,.7.279,1.43,1.43,0,0,1,.484.533,2.021,2.021,0,0,1,.214.838h-.906a.859.859,0,0,0-.438-.722,1.362,1.362,0,0,0-.4-.155,2.065,2.065,0,0,0-.442-.047,2.671,2.671,0,0,0-.41.032,1.386,1.386,0,0,0-.378.112.759.759,0,0,0-.279.214.537.537,0,0,0-.106.346.51.51,0,0,0,.165.39,1.313,1.313,0,0,0,.419.255,3.663,3.663,0,0,0,.575.17l.639.14a6.826,6.826,0,0,1,.666.181,2.175,2.175,0,0,1,.575.279,1.378,1.378,0,0,1,.4.442,1.3,1.3,0,0,1,.155.66,1.536,1.536,0,0,1-.208.837,1.623,1.623,0,0,1-.543.533,2.279,2.279,0,0,1-.757.279,4.485,4.485,0,0,1-.838.08,3.879,3.879,0,0,1-.874-.1,2.143,2.143,0,0,1-.734-.314,1.6,1.6,0,0,1-.511-.575,1.992,1.992,0,0,1-.214-.868h.9A1.02,1.02,0,0,0,469.279,624.919Z" transform="translate(-416.737 -617.949)" fill="#fff"/>
      <path id="Caminho_4742" data-name="Caminho 4742" d="M493.26,625.8a2.5,2.5,0,0,1-1.555.469,2.83,2.83,0,0,1-1.145-.214,2.254,2.254,0,0,1-.815-.6,2.532,2.532,0,0,1-.5-.916,4.409,4.409,0,0,1-.186-1.16,3.315,3.315,0,0,1,.191-1.15,2.751,2.751,0,0,1,.537-.906,2.44,2.44,0,0,1,.82-.6,2.5,2.5,0,0,1,1.038-.214,2.26,2.26,0,0,1,1.22.3,2.408,2.408,0,0,1,.778.772,3.053,3.053,0,0,1,.4,1.022,4.4,4.4,0,0,1,.091,1.054h-4.121a2.181,2.181,0,0,0,.085.687,1.553,1.553,0,0,0,.309.575,1.522,1.522,0,0,0,.543.4,1.872,1.872,0,0,0,.778.149,1.567,1.567,0,0,0,.942-.267,1.287,1.287,0,0,0,.484-.81h.895A2.2,2.2,0,0,1,493.26,625.8Zm-.218-3.536a1.535,1.535,0,0,0-1.443-.948,1.581,1.581,0,0,0-.634.123,1.467,1.467,0,0,0-.484.335,1.605,1.605,0,0,0-.32.5,1.882,1.882,0,0,0-.14.6h3.163a1.864,1.864,0,0,0-.142-.611Z" transform="translate(-432.187 -617.947)" fill="#fff"/>
      <path id="Caminho_4743" data-name="Caminho 4743" d="M516.077,626.512v-.874h-.021a1.851,1.851,0,0,1-.734.751,2.2,2.2,0,0,1-1.054.24,2.471,2.471,0,0,1-.906-.14,1.443,1.443,0,0,1-.586-.41,1.536,1.536,0,0,1-.314-.634,3.389,3.389,0,0,1-.091-.814v-3.621h.9v3.727a1.1,1.1,0,0,0,.3.81,1.109,1.109,0,0,0,.821.3,1.844,1.844,0,0,0,.719-.127,1.351,1.351,0,0,0,.505-.361,1.559,1.559,0,0,0,.3-.549,2.233,2.233,0,0,0,.1-.687v-3.11h.906v5.505Z" transform="translate(-449.478 -618.314)" fill="#fff"/>
      <path id="Caminho_4744" data-name="Caminho 4744" d="M547.626,620.637v.874h.021a1.905,1.905,0,0,1,1.79-1,2.388,2.388,0,0,1,.9.149,1.489,1.489,0,0,1,.586.419,1.547,1.547,0,0,1,.314.634,3.41,3.41,0,0,1,.091.815v3.621h-.906v-3.727a1.093,1.093,0,0,0-.3-.81,1.108,1.108,0,0,0-.819-.3,1.844,1.844,0,0,0-.719.128,1.352,1.352,0,0,0-.505.362,1.557,1.557,0,0,0-.3.549,2.231,2.231,0,0,0-.1.687v3.11h-.9v-5.511Z" transform="translate(-475 -617.95)" fill="#fff"/>
      <path id="Caminho_4745" data-name="Caminho 4745" d="M572.753,625.8a2.5,2.5,0,0,1-1.555.469,2.83,2.83,0,0,1-1.145-.214,2.252,2.252,0,0,1-.815-.6,2.526,2.526,0,0,1-.5-.916,4.4,4.4,0,0,1-.187-1.16,3.3,3.3,0,0,1,.191-1.15,2.752,2.752,0,0,1,.537-.906,2.439,2.439,0,0,1,.819-.6,2.5,2.5,0,0,1,1.039-.214,2.26,2.26,0,0,1,1.22.3,2.41,2.41,0,0,1,.778.772,3.052,3.052,0,0,1,.4,1.022,4.389,4.389,0,0,1,.091,1.054h-4.121a2.18,2.18,0,0,0,.085.687,1.554,1.554,0,0,0,.309.575,1.521,1.521,0,0,0,.543.4,1.872,1.872,0,0,0,.778.149,1.566,1.566,0,0,0,.942-.267,1.287,1.287,0,0,0,.484-.81h.895A2.2,2.2,0,0,1,572.753,625.8Zm-.218-3.536a1.536,1.536,0,0,0-1.443-.948,1.583,1.583,0,0,0-.634.123,1.468,1.468,0,0,0-.484.335,1.6,1.6,0,0,0-.32.5,1.882,1.882,0,0,0-.14.6h3.163a1.864,1.864,0,0,0-.143-.611Z" transform="translate(-491.158 -617.947)" fill="#fff"/>
      <path id="Caminho_4746" data-name="Caminho 4746" d="M595.139,627.7a2.512,2.512,0,0,1-1.938.672,3.744,3.744,0,0,1-.783-.085,2.4,2.4,0,0,1-.724-.279,1.683,1.683,0,0,1-.538-.5,1.425,1.425,0,0,1-.234-.757h.9a.668.668,0,0,0,.155.419,1.125,1.125,0,0,0,.352.279,1.7,1.7,0,0,0,.452.155,2.43,2.43,0,0,0,.469.047,1.683,1.683,0,0,0,.756-.154,1.421,1.421,0,0,0,.511-.426,1.762,1.762,0,0,0,.293-.655,3.661,3.661,0,0,0,.091-.838v-.362h-.021a1.525,1.525,0,0,1-.709.751,2.2,2.2,0,0,1-1.006.24,2.423,2.423,0,0,1-1.076-.223,2.25,2.25,0,0,1-.766-.6,2.557,2.557,0,0,1-.463-.884,3.644,3.644,0,0,1-.155-1.071,4.185,4.185,0,0,1,.128-1.006,2.747,2.747,0,0,1,.426-.938,2.334,2.334,0,0,1,.787-.7,2.45,2.45,0,0,1,1.2-.272,2.034,2.034,0,0,1,.959.229,1.614,1.614,0,0,1,.681.687h.011v-.8h.852v5.038a2.9,2.9,0,0,1-.617,2.03Zm-1.156-2.476a1.484,1.484,0,0,0,.505-.49,2.234,2.234,0,0,0,.279-.687,3.309,3.309,0,0,0,.091-.766,3.02,3.02,0,0,0-.085-.713,2,2,0,0,0-.272-.634,1.411,1.411,0,0,0-.484-.452,1.436,1.436,0,0,0-.724-.17,1.565,1.565,0,0,0-.745.165,1.453,1.453,0,0,0-.505.443,1.874,1.874,0,0,0-.288.639,3.1,3.1,0,0,0-.091.757,3.8,3.8,0,0,0,.074.746,2.118,2.118,0,0,0,.255.675,1.437,1.437,0,0,0,.48.49,1.383,1.383,0,0,0,.745.186,1.47,1.47,0,0,0,.765-.187Z" transform="translate(-507.591 -617.946)" fill="#fff"/>
      <path id="Caminho_4747" data-name="Caminho 4747" d="M614.556,614.89a2.568,2.568,0,0,1,.511-.916,2.41,2.41,0,0,1,.837-.613,3.083,3.083,0,0,1,2.306,0,2.423,2.423,0,0,1,.837.613,2.571,2.571,0,0,1,.511.916,3.664,3.664,0,0,1,.17,1.133,3.612,3.612,0,0,1-.17,1.129,2.577,2.577,0,0,1-.511.91,2.359,2.359,0,0,1-.838.607,3.152,3.152,0,0,1-2.306,0,2.349,2.349,0,0,1-.838-.607,2.572,2.572,0,0,1-.511-.91,3.613,3.613,0,0,1-.17-1.129A3.669,3.669,0,0,1,614.556,614.89Zm.921,2.024a1.855,1.855,0,0,0,.367.649,1.59,1.59,0,0,0,.549.4,1.675,1.675,0,0,0,1.332,0,1.593,1.593,0,0,0,.549-.4,1.861,1.861,0,0,0,.367-.649,3.037,3.037,0,0,0,0-1.778,1.922,1.922,0,0,0-.367-.655,1.569,1.569,0,0,0-.549-.4,1.675,1.675,0,0,0-1.332,0,1.57,1.57,0,0,0-.549.4,1.914,1.914,0,0,0-.367.655,3.038,3.038,0,0,0,0,1.778Zm1.89-6.342-1.023,1.725h.681l1.5-1.725Z" transform="translate(-525.156 -610.572)" fill="#fff"/>
      <path id="Caminho_4748" data-name="Caminho 4748" d="M641.655,621.6a1.372,1.372,0,0,0-.916-.288,1.689,1.689,0,0,0-.821.182,1.465,1.465,0,0,0-.528.479,2.026,2.026,0,0,0-.279.687,3.751,3.751,0,0,0-.085.8,3.056,3.056,0,0,0,.091.745,1.985,1.985,0,0,0,.279.645,1.423,1.423,0,0,0,.5.452,1.709,1.709,0,0,0,1.783-.182,1.589,1.589,0,0,0,.463-.99h.927a2.538,2.538,0,0,1-.762,1.576,2.392,2.392,0,0,1-1.667.558,2.863,2.863,0,0,1-1.117-.2,2.155,2.155,0,0,1-.81-.575,2.492,2.492,0,0,1-.49-.889,3.709,3.709,0,0,1-.165-1.133,4.05,4.05,0,0,1,.159-1.156,2.669,2.669,0,0,1,.485-.937,2.269,2.269,0,0,1,.815-.628,2.666,2.666,0,0,1,1.139-.229,3.342,3.342,0,0,1,.878.112,2.143,2.143,0,0,1,.724.346,1.9,1.9,0,0,1,.516.591,2.184,2.184,0,0,1,.255.847H642.1A1.38,1.38,0,0,0,641.655,621.6Z" transform="translate(-542.723 -617.946)" fill="#fff"/>
      <path id="Caminho_4749" data-name="Caminho 4749" d="M661.577,613.989v-1.108h.906v1.108Zm.906.99v5.505h-.906v-5.505Z" transform="translate(-560.165 -612.286)" fill="#fff"/>
      <path id="Caminho_4750" data-name="Caminho 4750" d="M669.548,622.265a2.572,2.572,0,0,1,.511-.916,2.41,2.41,0,0,1,.838-.613,3.083,3.083,0,0,1,2.306,0,2.433,2.433,0,0,1,.838.613,2.571,2.571,0,0,1,.511.916,3.846,3.846,0,0,1,0,2.264,2.571,2.571,0,0,1-.511.91,2.365,2.365,0,0,1-.838.607,3.15,3.15,0,0,1-2.306,0,2.347,2.347,0,0,1-.838-.607,2.572,2.572,0,0,1-.511-.91,3.611,3.611,0,0,1-.17-1.129A3.663,3.663,0,0,1,669.548,622.265Zm.921,2.024a1.857,1.857,0,0,0,.367.649,1.594,1.594,0,0,0,.549.4,1.676,1.676,0,0,0,1.332,0,1.593,1.593,0,0,0,.548-.4,1.865,1.865,0,0,0,.367-.649,3.039,3.039,0,0,0,0-1.778,1.925,1.925,0,0,0-.367-.655,1.57,1.57,0,0,0-.549-.4,1.674,1.674,0,0,0-1.332,0,1.571,1.571,0,0,0-.549.4,1.917,1.917,0,0,0-.367.655A3.033,3.033,0,0,0,670.47,624.289Z" transform="translate(-565.946 -617.947)" fill="#fff"/>
      <path id="Caminho_4751" data-name="Caminho 4751" d="M705.881,613.989v-1.108h.9v1.108Zm.9.99v5.505h-.9v-5.505Z" transform="translate(-593.031 -612.286)" fill="#fff"/>
      <path id="Caminho_4752" data-name="Caminho 4752" d="M715.56,620.638V621.8h.021a2.449,2.449,0,0,1,.81-.99,2.034,2.034,0,0,1,1.214-.3v.958a2.558,2.558,0,0,0-.927.149,1.461,1.461,0,0,0-.618.437,1.815,1.815,0,0,0-.341.7,3.77,3.77,0,0,0-.106.942v2.45h-.906v-5.507Z" transform="translate(-599.58 -617.945)" fill="#fff"/>
      <path id="Caminho_4753" data-name="Caminho 4753" d="M740.886,620.638v.81h.021a2.146,2.146,0,0,1,2.705-.724,1.193,1.193,0,0,1,.585.724,1.924,1.924,0,0,1,.73-.7,2.061,2.061,0,0,1,1-.244,2.891,2.891,0,0,1,.751.091,1.563,1.563,0,0,1,.575.279,1.278,1.278,0,0,1,.373.5,1.814,1.814,0,0,1,.14.73v4.036h-.906v-3.61a2.575,2.575,0,0,0-.042-.48.98.98,0,0,0-.159-.388.8.8,0,0,0-.325-.261,1.292,1.292,0,0,0-.537-.1,1.426,1.426,0,0,0-1.054.384,1.382,1.382,0,0,0-.384,1.022v3.43h-.9v-3.61a2.335,2.335,0,0,0-.047-.49,1.042,1.042,0,0,0-.165-.388.774.774,0,0,0-.314-.255,1.216,1.216,0,0,0-.505-.091,1.352,1.352,0,0,0-.676.159,1.535,1.535,0,0,0-.713.847,1.31,1.31,0,0,0-.08.4v3.43h-.906v-5.5Z" transform="translate(-618.366 -617.951)" fill="#fff"/>
      <path id="Caminho_4754" data-name="Caminho 4754" d="M779.245,626.125a1.281,1.281,0,0,1-.649.139.779.779,0,0,1-.558-.2.857.857,0,0,1-.208-.645,2.167,2.167,0,0,1-.868.645,3,3,0,0,1-1.779.112,1.641,1.641,0,0,1-.581-.267,1.274,1.274,0,0,1-.388-.475,1.594,1.594,0,0,1-.14-.708,1.618,1.618,0,0,1,.159-.766,1.4,1.4,0,0,1,.419-.484,1.925,1.925,0,0,1,.6-.279q.335-.1.687-.161t.708-.112a3.954,3.954,0,0,0,.592-.106.976.976,0,0,0,.4-.2.493.493,0,0,0,.149-.388.9.9,0,0,0-.112-.479.77.77,0,0,0-.287-.279,1.172,1.172,0,0,0-.394-.127,2.938,2.938,0,0,0-.431-.032,1.913,1.913,0,0,0-.959.218.927.927,0,0,0-.419.825h-.9a1.953,1.953,0,0,1,.214-.863,1.617,1.617,0,0,1,.511-.57,2.152,2.152,0,0,1,.73-.314,3.867,3.867,0,0,1,.878-.1,5.174,5.174,0,0,1,.74.053,1.936,1.936,0,0,1,.666.218,1.275,1.275,0,0,1,.479.462,1.475,1.475,0,0,1,.181.776v2.827a2.1,2.1,0,0,0,.038.468q.038.149.25.148a1.092,1.092,0,0,0,.279-.042Zm-1.47-2.823a1.128,1.128,0,0,1-.447.186q-.279.059-.581.095t-.613.085a2.254,2.254,0,0,0-.558.154,1,1,0,0,0-.4.3.838.838,0,0,0-.155.535.733.733,0,0,0,.091.377.754.754,0,0,0,.235.249.975.975,0,0,0,.335.14,1.873,1.873,0,0,0,.4.042,2.149,2.149,0,0,0,.766-.121,1.609,1.609,0,0,0,.522-.307,1.214,1.214,0,0,0,.3-.4,1.011,1.011,0,0,0,.1-.407Z" transform="translate(-643.615 -617.947)" fill="#fff"/>
      <path id="Caminho_4755" data-name="Caminho 4755" d="M797.583,613.989v-1.108h.9v1.108Zm.9.99v5.505h-.9v-5.505Z" transform="translate(-661.059 -612.286)" fill="#fff"/>
      <path id="Caminho_4756" data-name="Caminho 4756" d="M806.217,624.919a.966.966,0,0,0,.335.331,1.5,1.5,0,0,0,.469.176,2.663,2.663,0,0,0,.538.053,3.364,3.364,0,0,0,.447-.032,1.651,1.651,0,0,0,.431-.117.811.811,0,0,0,.325-.25.666.666,0,0,0,.128-.419.6.6,0,0,0-.267-.533,2.275,2.275,0,0,0-.666-.293q-.4-.112-.868-.2a4.464,4.464,0,0,1-.868-.255,1.792,1.792,0,0,1-.666-.463,1.2,1.2,0,0,1-.267-.838,1.32,1.32,0,0,1,.187-.713,1.528,1.528,0,0,1,.479-.484,2.221,2.221,0,0,1,.66-.279,3.045,3.045,0,0,1,.73-.091,4.327,4.327,0,0,1,.863.08,1.984,1.984,0,0,1,.7.279,1.428,1.428,0,0,1,.484.533,2.016,2.016,0,0,1,.214.838h-.9a.917.917,0,0,0-.14-.443.905.905,0,0,0-.3-.279,1.359,1.359,0,0,0-.4-.155,2.069,2.069,0,0,0-.443-.047,2.672,2.672,0,0,0-.411.032,1.385,1.385,0,0,0-.378.112.758.758,0,0,0-.279.214.537.537,0,0,0-.106.346.509.509,0,0,0,.165.39,1.314,1.314,0,0,0,.419.256,3.641,3.641,0,0,0,.575.17l.639.139a6.841,6.841,0,0,1,.666.181,2.173,2.173,0,0,1,.575.279,1.383,1.383,0,0,1,.4.442,1.3,1.3,0,0,1,.155.66,1.534,1.534,0,0,1-.208.837,1.627,1.627,0,0,1-.543.533,2.278,2.278,0,0,1-.757.279,4.483,4.483,0,0,1-.837.08,3.883,3.883,0,0,1-.873-.1,2.144,2.144,0,0,1-.736-.314,1.606,1.606,0,0,1-.511-.575,1.992,1.992,0,0,1-.212-.868h.906A1.015,1.015,0,0,0,806.217,624.919Z" transform="translate(-666.689 -617.949)" fill="#fff"/>
      <path id="Caminho_4757" data-name="Caminho 4757" d="M839.739,612.881v7.6h-.9v-7.6Z" transform="translate(-691.661 -612.286)" fill="#fff"/>
      <path id="Caminho_4758" data-name="Caminho 4758" d="M846.8,622.265a2.565,2.565,0,0,1,.511-.916,2.41,2.41,0,0,1,.838-.613,3.083,3.083,0,0,1,2.306,0,2.42,2.42,0,0,1,.838.613,2.573,2.573,0,0,1,.511.916,3.665,3.665,0,0,1,.17,1.135,3.609,3.609,0,0,1-.17,1.129,2.571,2.571,0,0,1-.511.91,2.357,2.357,0,0,1-.838.607,3.15,3.15,0,0,1-2.306,0,2.347,2.347,0,0,1-.838-.607,2.565,2.565,0,0,1-.511-.91,3.611,3.611,0,0,1-.17-1.129,3.662,3.662,0,0,1,.17-1.135Zm.921,2.024a1.857,1.857,0,0,0,.367.649,1.59,1.59,0,0,0,.549.4,1.675,1.675,0,0,0,1.332,0,1.593,1.593,0,0,0,.549-.4,1.866,1.866,0,0,0,.367-.649,3.039,3.039,0,0,0,0-1.778,1.928,1.928,0,0,0-.367-.655,1.57,1.57,0,0,0-.548-.4,1.675,1.675,0,0,0-1.332,0,1.567,1.567,0,0,0-.549.4,1.921,1.921,0,0,0-.367.655A3.032,3.032,0,0,0,847.722,624.289Z" transform="translate(-697.444 -617.947)" fill="#fff"/>
      <path id="Caminho_4759" data-name="Caminho 4759" d="M872.314,620.637v.874h.021a1.906,1.906,0,0,1,1.79-1,2.388,2.388,0,0,1,.9.149,1.488,1.488,0,0,1,.586.419,1.543,1.543,0,0,1,.314.634,3.426,3.426,0,0,1,.091.815v3.621h-.9v-3.727a1.094,1.094,0,0,0-.3-.81,1.108,1.108,0,0,0-.819-.3,1.85,1.85,0,0,0-.719.128,1.35,1.35,0,0,0-.505.361,1.562,1.562,0,0,0-.3.549,2.239,2.239,0,0,0-.1.687v3.11h-.906v-5.511Z" transform="translate(-715.867 -617.95)" fill="#fff"/>
      <path id="Caminho_4760" data-name="Caminho 4760" d="M897.674,627.7a2.512,2.512,0,0,1-1.937.671,3.745,3.745,0,0,1-.783-.085,2.4,2.4,0,0,1-.724-.279,1.684,1.684,0,0,1-.537-.5,1.421,1.421,0,0,1-.234-.756h.906a.666.666,0,0,0,.155.419,1.127,1.127,0,0,0,.352.279,1.7,1.7,0,0,0,.452.155,2.442,2.442,0,0,0,.469.047,1.68,1.68,0,0,0,.756-.153,1.426,1.426,0,0,0,.511-.426,1.765,1.765,0,0,0,.293-.655,3.655,3.655,0,0,0,.091-.838v-.362h-.021a1.523,1.523,0,0,1-.708.751,2.206,2.206,0,0,1-1.007.24,2.425,2.425,0,0,1-1.075-.223,2.245,2.245,0,0,1-.766-.6,2.549,2.549,0,0,1-.463-.884,3.643,3.643,0,0,1-.155-1.071,4.183,4.183,0,0,1,.128-1.006,2.741,2.741,0,0,1,.426-.938,2.332,2.332,0,0,1,.789-.7,2.449,2.449,0,0,1,1.2-.272,2.035,2.035,0,0,1,.959.229,1.615,1.615,0,0,1,.681.687h.011v-.8h.851v5.038A2.9,2.9,0,0,1,897.674,627.7Zm-1.156-2.476a1.484,1.484,0,0,0,.505-.49,2.244,2.244,0,0,0,.279-.687,3.321,3.321,0,0,0,.091-.766,3.013,3.013,0,0,0-.085-.713,1.99,1.99,0,0,0-.272-.634,1.41,1.41,0,0,0-.484-.452,1.437,1.437,0,0,0-.724-.17,1.567,1.567,0,0,0-.745.165,1.453,1.453,0,0,0-.505.442,1.877,1.877,0,0,0-.287.639,3.092,3.092,0,0,0-.091.757,3.766,3.766,0,0,0,.075.745,2.108,2.108,0,0,0,.255.676,1.442,1.442,0,0,0,.479.49,1.382,1.382,0,0,0,.745.186,1.469,1.469,0,0,0,.765-.187Z" transform="translate(-732.024 -617.946)" fill="#fff"/>
      <path id="Caminho_4761" data-name="Caminho 4761" d="M921.119,625.8a2.5,2.5,0,0,1-1.555.469,2.828,2.828,0,0,1-1.145-.214,2.257,2.257,0,0,1-.815-.6,2.525,2.525,0,0,1-.5-.916,4.418,4.418,0,0,1-.187-1.16,3.308,3.308,0,0,1,.191-1.15,2.747,2.747,0,0,1,.537-.906,2.439,2.439,0,0,1,.819-.6,2.514,2.514,0,0,1,1.039-.214,2.26,2.26,0,0,1,1.22.3,2.408,2.408,0,0,1,.777.772,3.055,3.055,0,0,1,.4,1.022,4.383,4.383,0,0,1,.091,1.054H917.88a2.178,2.178,0,0,0,.085.687,1.553,1.553,0,0,0,.309.575,1.517,1.517,0,0,0,.543.4,1.871,1.871,0,0,0,.778.149,1.567,1.567,0,0,0,.942-.267,1.286,1.286,0,0,0,.484-.81h.895a2.2,2.2,0,0,1-.8,1.4Zm-.218-3.536a1.535,1.535,0,0,0-1.443-.948,1.581,1.581,0,0,0-.634.123,1.466,1.466,0,0,0-.485.335,1.6,1.6,0,0,0-.32.5,1.887,1.887,0,0,0-.14.6h3.163a1.861,1.861,0,0,0-.142-.611Z" transform="translate(-749.591 -617.947)" fill="#fff"/>
    </g>
  </g>
</svg>