<svg id="logo-app-store" xmlns="http://www.w3.org/2000/svg" width="166.067" height="54.392" viewBox="0 0 166.067 54.392">
  <g id="g32" transform="translate(0 0)">
    <path id="path6" d="M166.059,61.617V60.361a17.932,17.932,0,0,0-.256-2.722,8.679,8.679,0,0,0-4.739-6.4,9.493,9.493,0,0,0-2.648-.853,18.574,18.574,0,0,0-2.775-.24c-.427,0-.855-.014-1.282-.017H11.712c-.427,0-.846.01-1.282.017a18.806,18.806,0,0,0-2.781.24,9.372,9.372,0,0,0-2.638.853,8.937,8.937,0,0,0-2.245,1.6A8.508,8.508,0,0,0,1.14,55.055a8.856,8.856,0,0,0-.868,2.588A17.4,17.4,0,0,0,.021,60.37c-.013.419-.014.837-.021,1.256V93.048c0,.419.009.837.021,1.256a17.405,17.405,0,0,0,.248,2.722,8.837,8.837,0,0,0,.87,2.588,8.471,8.471,0,0,0,1.637,2.2,8.7,8.7,0,0,0,2.245,1.6,9.426,9.426,0,0,0,2.638.858,19.182,19.182,0,0,0,2.781.24q.641.015,1.282.015h142.63c.427,0,.855,0,1.282-.015a18.94,18.94,0,0,0,2.775-.24,9.549,9.549,0,0,0,2.648-.858,8.938,8.938,0,0,0,3.885-3.8,8.86,8.86,0,0,0,.855-2.589,17.926,17.926,0,0,0,.256-2.722V93.047c.011-.494.011-.984.011-1.488V63.1c0-.5,0-.992-.006-1.485Zm-1.2,29.943c0,.5,0,.977-.011,1.463v1.263a16.766,16.766,0,0,1-.238,2.521,7.67,7.67,0,0,1-.749,2.271,7.787,7.787,0,0,1-3.352,3.28,8.254,8.254,0,0,1-2.315.748,17.824,17.824,0,0,1-2.594.222c-.406.01-.832.015-1.245.015H11.725c-.427,0-.835,0-1.255-.015a18.059,18.059,0,0,1-2.6-.222,8.3,8.3,0,0,1-2.3-.745,7.459,7.459,0,0,1-1.939-1.383,7.25,7.25,0,0,1-1.417-1.9,7.706,7.706,0,0,1-.754-2.253,16.528,16.528,0,0,1-.231-2.55c-.014-.292-.024-1.245-.024-1.245V61.617s.013-.939.021-1.217a16.477,16.477,0,0,1,.228-2.542,7.707,7.707,0,0,1,.755-2.26,7.312,7.312,0,0,1,1.409-1.9,7.714,7.714,0,0,1,1.946-1.4,8.185,8.185,0,0,1,2.295-.74,17.686,17.686,0,0,1,2.6-.223l1.252-.017H154.342l1.266.017a17.518,17.518,0,0,1,2.578.222,8.336,8.336,0,0,1,2.319.745A7.527,7.527,0,0,1,164.6,57.84a17.068,17.068,0,0,1,.242,2.565c0,.385,0,.8,0,1.21.011.509.011,1,.011,1.485Z" transform="translate(0 -50.134)" fill="#fff"/>
    <g id="g30" transform="translate(13.336 10.672)">
      <path id="path8" d="M30.963,72.123a6.97,6.97,0,0,1,3.4-5.872A7.349,7.349,0,0,0,28.6,63.2c-2.422-.25-4.772,1.419-6.007,1.419-1.259,0-3.16-1.4-5.208-1.354a7.694,7.694,0,0,0-6.454,3.858C8.145,71.86,10.223,78.818,12.9,82.646c1.336,1.873,2.9,3.968,4.946,3.893,1.994-.081,2.749-1.256,5.165-1.256,2.395,0,3.1,1.256,5.182,1.2,2.148-.033,3.5-1.882,4.792-3.769a15.367,15.367,0,0,0,2.191-4.373,6.76,6.76,0,0,1-4.214-6.221Z" transform="translate(-9.609 -55.748)" fill="#fff"/>
      <path id="path10" d="M23.465,62.759a6.8,6.8,0,0,0,1.611-4.935,7.2,7.2,0,0,0-4.628,2.346,6.478,6.478,0,0,0-1.655,4.753,5.958,5.958,0,0,0,4.672-2.163Z" transform="translate(-6.053 -57.824)" fill="#fff"/>
      <g id="g28" transform="translate(34.442 13.63)">
        <path id="path12" d="M45.357,80.171H38.786l-1.577,4.564H34.427l6.222-16.889h2.89l6.222,16.889H46.933Zm-5.889-2.106h5.207l-2.564-7.407h-.073Z" transform="translate(-34.427 -67.566)" fill="#fff"/>
        <path id="path14" d="M58.466,77.337c0,3.827-2.09,6.281-5.244,6.281a4.28,4.28,0,0,1-3.954-2.152h-.06v6.1H46.63V71.182h2.5v2.048h.047a4.477,4.477,0,0,1,4-2.177c3.189,0,5.291,2.471,5.291,6.285Zm-2.651,0c0-2.493-1.315-4.131-3.32-4.131-1.969,0-3.3,1.675-3.3,4.131,0,2.482,1.326,4.143,3.3,4.143,2.007,0,3.322-1.627,3.322-4.143Z" transform="translate(-29.694 -66.325)" fill="#fff"/>
        <path id="path16" d="M68.43,77.337c0,3.827-2.091,6.281-5.245,6.281a4.28,4.28,0,0,1-3.954-2.152h-.06v6.1H56.6V71.182h2.5v2.048h.047a4.477,4.477,0,0,1,4-2.177c3.181,0,5.285,2.471,5.285,6.285Zm-2.652,0c0-2.493-1.315-4.131-3.32-4.131-1.97,0-3.3,1.675-3.3,4.131,0,2.482,1.325,4.143,3.3,4.143,2.007,0,3.322-1.627,3.322-4.143Z" transform="translate(-25.828 -66.325)" fill="#fff"/>
        <path id="path18" d="M72.445,80.109c.191,1.675,1.852,2.773,4.121,2.773,2.175,0,3.739-1.1,3.739-2.61,0-1.311-.943-2.094-3.177-2.634l-2.235-.526c-3.164-.75-4.634-2.2-4.634-4.553,0-2.914,2.591-4.914,6.268-4.914,3.642,0,6.14,2,6.222,4.914h-2.6c-.155-1.685-1.577-2.7-3.655-2.7S73,70.885,73,72.383c0,1.193.907,1.9,3.134,2.434l1.9.456c3.536.819,5,2.211,5,4.68,0,3.16-2.564,5.139-6.652,5.139-3.822,0-6.41-1.932-6.57-4.987Z" transform="translate(-20.705 -67.645)" fill="#fff"/>
        <path id="path20" d="M84.58,69.045v2.914h2.39v2H84.58v6.786c0,1.054.479,1.547,1.53,1.547a8.466,8.466,0,0,0,.855-.059v1.989a7.3,7.3,0,0,1-1.432.117C82.989,84.341,82,83.4,82,81.016V73.961H80.163v-2h1.826V69.045Z" transform="translate(-16.691 -67.102)" fill="#fff"/>
        <path id="path22" d="M86.064,77.343c0-3.873,2.329-6.307,5.959-6.307s5.96,2.434,5.96,6.307-2.3,6.309-5.96,6.309S86.064,81.228,86.064,77.343Zm9.292,0c0-2.652-1.242-4.225-3.332-4.225s-3.332,1.58-3.332,4.225c0,2.667,1.242,4.225,3.332,4.225S95.356,80.01,95.356,77.343Z" transform="translate(-14.402 -66.329)" fill="#fff"/>
        <path id="path24" d="M96.185,71.182h2.46v2.094h.06a2.983,2.983,0,0,1,3.021-2.225,3.986,3.986,0,0,1,.885.095v2.363a3.666,3.666,0,0,0-1.158-.152,2.627,2.627,0,0,0-2.008.815A2.515,2.515,0,0,0,98.77,76.2v7.3H96.192Z" transform="translate(-10.478 -66.325)" fill="#fff"/>
        <path id="path26" d="M112.552,79.882c-.348,2.233-2.564,3.769-5.413,3.769-3.655,0-5.924-2.4-5.924-6.25s2.279-6.365,5.816-6.365c3.476,0,5.662,2.339,5.662,6.073v.865h-8.875v.154a3.172,3.172,0,0,0,.887,2.491,3.311,3.311,0,0,0,2.493,1,2.855,2.855,0,0,0,2.9-1.731Zm-8.718-3.675h6.281a2.925,2.925,0,0,0-.844-2.222,3.052,3.052,0,0,0-2.237-.9,3.215,3.215,0,0,0-2.263.907,3.086,3.086,0,0,0-.938,2.213Z" transform="translate(-8.528 -66.329)" fill="#fff"/>
      </g>
    </g>
  </g>
  <g id="g50" transform="translate(48.693 10.465)">
    <path id="path34" d="M34.549,64.51V56.679h3.223c1.507,0,2.413.748,2.413,1.954a1.727,1.727,0,0,1-1.406,1.685v.092A1.872,1.872,0,0,1,40.585,62.3c0,1.379-1.028,2.22-2.74,2.22Zm1.242-4.517h1.478c1.1,0,1.674-.4,1.674-1.14,0-.722-.539-1.147-1.461-1.147H35.795Zm1.8,3.487c1.122,0,1.716-.446,1.716-1.276s-.617-1.249-1.794-1.249H35.795v2.525Z" transform="translate(-34.549 -56.048)" fill="#fff"/>
    <path id="path36" d="M39.821,62.334c0-1.065.811-1.678,2.252-1.764l1.64-.093v-.51c0-.625-.424-.977-1.242-.977-.666,0-1.129.239-1.262.656H40.052c.123-1.015,1.1-1.666,2.474-1.666,1.518,0,2.374.739,2.374,1.987v4.044H43.75v-.836h-.094a2.053,2.053,0,0,1-1.818.929,1.856,1.856,0,0,1-1.41-.448,1.768,1.768,0,0,1-.607-1.322Zm3.891-.505v-.493l-1.479.092c-.828.055-1.211.332-1.211.852s.472.842,1.122.842a1.451,1.451,0,0,0,1.065-.322,1.384,1.384,0,0,0,.5-.971Z" transform="translate(-32.504 -55.542)" fill="#fff"/>
    <path id="path38" d="M44.717,57.027a.754.754,0,0,1,.444-.731.788.788,0,0,1,.859.134.744.744,0,0,1,.189.829.774.774,0,0,1-.719.477.746.746,0,0,1-.541-.194.711.711,0,0,1-.231-.516Zm.178,1.752h1.191v5.909H44.9Z" transform="translate(-30.606 -56.225)" fill="#fff"/>
    <path id="path40" d="M49.4,61.877l-1.323,2.1H46.761L48.77,61.03l-2.024-2.965H48.14l1.3,2.085h.094l1.289-2.085h1.329l-2,2.922,2.018,2.986H50.8l-1.318-2.1Z" transform="translate(-29.818 -55.509)" fill="#fff"/>
    <path id="path42" d="M51.418,62.334c0-1.065.81-1.678,2.252-1.764l1.639-.093v-.51c0-.625-.422-.977-1.242-.977-.668,0-1.129.239-1.262.656H51.648c.123-1.015,1.1-1.666,2.474-1.666,1.518,0,2.373.739,2.373,1.987v4.044H55.346v-.836h-.1a2.05,2.05,0,0,1-1.817.929,1.856,1.856,0,0,1-1.41-.448A1.768,1.768,0,0,1,51.418,62.334Zm3.889-.505v-.493l-1.478.092c-.828.055-1.213.332-1.213.852s.473.842,1.122.842A1.451,1.451,0,0,0,54.8,62.8,1.384,1.384,0,0,0,55.307,61.829Z" transform="translate(-28.008 -55.542)" fill="#fff"/>
    <path id="path44" d="M56.426,58.089h1.149V59h.09a1.645,1.645,0,0,1,1.635-1,2.564,2.564,0,0,1,.533.049v1.151a3.332,3.332,0,0,0-.666-.071,1.439,1.439,0,0,0-1.088.361,1.371,1.371,0,0,0-.457,1.03V64H56.428Z" transform="translate(-26.065 -55.539)" fill="#fff"/>
    <path id="path46" d="M62.2,58.093h1.151v.944h.088a1.817,1.817,0,0,1,1.806-1.053,1.994,1.994,0,0,1,1.589.607,1.9,1.9,0,0,1,.507,1.591v3.828H66.144V60.472c0-.95-.424-1.423-1.307-1.423a1.4,1.4,0,0,0-1.075.425,1.337,1.337,0,0,0-.37,1.074v3.459H62.2Z" transform="translate(-23.826 -55.543)" fill="#fff"/>
    <path id="path48" d="M66.985,62.334c0-1.065.81-1.678,2.25-1.764l1.64-.093v-.51c0-.625-.422-.977-1.242-.977-.666,0-1.129.239-1.261.656H67.218c.123-1.015,1.1-1.666,2.474-1.666,1.518,0,2.374.739,2.374,1.987v4.044H70.916v-.836h-.094a2.052,2.052,0,0,1-1.817.929,1.856,1.856,0,0,1-1.412-.447A1.768,1.768,0,0,1,66.985,62.334Zm3.889-.505v-.493l-1.478.092c-.835.055-1.213.332-1.213.852s.473.842,1.122.842a1.451,1.451,0,0,0,1.065-.322A1.384,1.384,0,0,0,70.875,61.829Z" transform="translate(-21.971 -55.542)" fill="#fff"/>
  </g>
</svg>