<svg id="logo-google-play" xmlns="http://www.w3.org/2000/svg" xmlns:xlink="http://www.w3.org/1999/xlink" width="186.908" height="56.248" viewBox="0 0 186.908 56.248">
  <defs>
    <linearGradient id="linear-gradient" x1="5.357" y1="0.671" x2="3.487" y2="0.174" gradientUnits="objectBoundingBox">
      <stop offset="0" stop-color="#00a0ff"/>
      <stop offset="0.007" stop-color="#00a1ff"/>
      <stop offset="0.26" stop-color="#00beff"/>
      <stop offset="0.512" stop-color="#00d2ff"/>
      <stop offset="0.76" stop-color="#00dfff"/>
      <stop offset="1" stop-color="#00e3ff"/>
    </linearGradient>
    <linearGradient id="linear-gradient-2" x1="-0.036" y1="5.107" x2="-2.358" y2="5.107" gradientUnits="objectBoundingBox">
      <stop offset="0" stop-color="#ffe000"/>
      <stop offset="0.409" stop-color="#ffbd00"/>
      <stop offset="0.775" stop-color="orange"/>
      <stop offset="1" stop-color="#ff9c00"/>
    </linearGradient>
    <linearGradient id="linear-gradient-3" x1="-0.18" y1="3.25" x2="-1.426" y2="1.152" gradientUnits="objectBoundingBox">
      <stop offset="0" stop-color="#ff3a44"/>
      <stop offset="1" stop-color="#c31162"/>
    </linearGradient>
    <linearGradient id="linear-gradient-4" x1="-1.191" y1="6.434" x2="-0.63" y2="5.49" gradientUnits="objectBoundingBox">
      <stop offset="0" stop-color="#32a071"/>
      <stop offset="0.068" stop-color="#2da771"/>
      <stop offset="0.476" stop-color="#15cf74"/>
      <stop offset="0.801" stop-color="#06e775"/>
      <stop offset="1" stop-color="#00f076"/>
    </linearGradient>
  </defs>
  <g id="g188">
    <path id="path158" d="M0,0Z" fill="rgba(255,255,255,0)" stroke="#707070" stroke-width="0.5"/>
    <rect id="rect160" width="185.184" height="54.131" rx="5" transform="translate(1.217 1.389)" fill="none" stroke="#707070" stroke-width="0.5"/>
    <g id="g164" transform="translate(0.744 0.916)">
      <path id="path162" d="M301.027,68.1a5.791,5.791,0,0,1,5.783,5.783v41.31a5.791,5.791,0,0,1-5.783,5.783H128.886a5.791,5.791,0,0,1-5.784-5.783V73.885a5.791,5.791,0,0,1,5.784-5.783H301.027m0-1.1H128.886A6.906,6.906,0,0,0,122,73.886V115.2a6.906,6.906,0,0,0,6.886,6.886H301.027a6.906,6.906,0,0,0,6.886-6.886V73.886A6.906,6.906,0,0,0,301.027,67Z" transform="translate(-122 -67)" fill="#a6a6a6" stroke="#fff" stroke-width="0.5"/>
    </g>
    <path id="path166" d="M77.47,23.608a5.858,5.858,0,1,0,5.879,5.858,5.773,5.773,0,0,0-5.879-5.858Zm0,9.4a3.561,3.561,0,1,1,3.3-3.548,3.389,3.389,0,0,1-3.3,3.548Zm-12.82-9.4a5.857,5.857,0,1,0,5.88,5.858,5.774,5.774,0,0,0-5.886-5.858Zm0,9.4a3.561,3.561,0,1,1,3.306-3.548,3.389,3.389,0,0,1-3.312,3.548ZM49.393,25.4v2.48h5.944a5.185,5.185,0,0,1-1.352,3.134,6.088,6.088,0,0,1-4.593,1.819,6.611,6.611,0,0,1,0-13.222,6.335,6.335,0,0,1,4.481,1.775l1.754-1.754a8.669,8.669,0,0,0-6.234-2.507,9.1,9.1,0,1,0,0,18.2,8.312,8.312,0,0,0,6.345-2.553,8.211,8.211,0,0,0,2.152-5.813,8.029,8.029,0,0,0-.134-1.553Zm62.393,1.929a5.444,5.444,0,0,0-5.021-3.722,5.565,5.565,0,0,0-5.524,5.858,5.732,5.732,0,0,0,5.813,5.858,5.825,5.825,0,0,0,4.885-2.6l-1.994-1.332a3.346,3.346,0,0,1-2.883,1.62,2.981,2.981,0,0,1-2.84-1.773L112.055,28ZM103.8,29.283a3.214,3.214,0,0,1,3.061-3.419,2.266,2.266,0,0,1,2.174,1.242Zm-6.366,5.679h2.573V17.743H97.433Zm-4.216-10.05h-.088A4.06,4.06,0,0,0,90.044,23.6a5.862,5.862,0,0,0,0,11.714,3.989,3.989,0,0,0,3.084-1.332h.088v.845c0,2.241-1.2,3.439-3.134,3.439a3.241,3.241,0,0,1-2.952-2.087l-2.241.932a5.581,5.581,0,0,0,5.192,3.46c3.017,0,5.57-1.775,5.57-6.1V23.955H93.211Zm-2.953,8.1a3.578,3.578,0,1,1,3.128-3.55A3.561,3.561,0,0,1,90.263,33.009ZM123.84,17.746h-6.157V34.959h2.564V28.438h3.588a5.355,5.355,0,1,0,0-10.694Zm.066,8.3H120.25v-5.9h3.655a2.951,2.951,0,1,1,0,5.9Zm15.882-2.471a4.828,4.828,0,0,0-4.585,2.634l2.279.953a2.434,2.434,0,0,1,2.348-1.264,2.474,2.474,0,0,1,2.707,2.216v.177a5.684,5.684,0,0,0-2.68-.664c-2.459,0-4.961,1.35-4.961,3.875a3.979,3.979,0,0,0,4.273,3.789,3.625,3.625,0,0,0,3.276-1.684h.088v1.329h2.48v-6.6c0-3.056-2.281-4.761-5.226-4.761Zm-.311,9.434c-.843,0-2.016-.42-2.016-1.462,0-1.329,1.462-1.839,2.724-1.839a4.585,4.585,0,0,1,2.348.57,3.115,3.115,0,0,1-3.056,2.734Zm14.573-9.058L151.1,31.412h-.088l-3.057-7.464H145.19l4.584,10.432-2.614,5.8h2.679l7.065-16.239ZM130.9,34.962h2.564V17.744H130.9Z" transform="translate(17.105 7.269)" fill="#fff" stroke="#707070" stroke-width="0.5"/>
    <g id="g186" transform="translate(14.473 10.737)">
      <path id="path168" d="M132.611,74.566a2.763,2.763,0,0,0-.637,1.934v30.457a2.762,2.762,0,0,0,.637,1.934l.1.1,17.061-17.061v-.4L132.712,74.465Z" transform="translate(-131.97 -74.006)" stroke="#707070" stroke-width="0.5" fill="url(#linear-gradient)"/>
      <path id="path170" d="M150.585,94.506,144.9,88.815v-.4l5.689-5.689.128.074,6.738,3.829c1.924,1.094,1.924,2.882,0,3.976l-6.738,3.829Z" transform="translate(-127.093 -70.892)" stroke="#707070" stroke-width="0.5" fill="url(#linear-gradient-2)"/>
      <path id="path172" d="M155.415,92.819,149.6,87l-17.164,17.165a2.241,2.241,0,0,0,2.863.084l20.117-11.43" transform="translate(-131.793 -69.279)" stroke="#707070" stroke-width="0.5" fill="url(#linear-gradient-3)"/>
      <path id="path174" d="M155.415,86.038,135.3,74.608a2.241,2.241,0,0,0-2.863.084L149.6,91.856Z" transform="translate(-131.793 -74.132)" stroke="#707070" stroke-width="0.5" fill="url(#linear-gradient-4)"/>
      <g id="g180" transform="translate(0 23.412)">
        <path id="path176" d="M155.286,91.132,135.3,102.482a2.293,2.293,0,0,1-2.759.016h0l-.1.1h0l.1.1h0a2.293,2.293,0,0,0,2.759-.016l20.117-11.43Z" transform="translate(-131.793 -91.132)" stroke="#707070" stroke-width="0.5" opacity="0.2"/>
        <path id="path178" d="M132.611,99.848a2.762,2.762,0,0,1-.637-1.934v.2a2.758,2.758,0,0,0,.637,1.933l.1-.1Z" transform="translate(-131.97 -88.574)" stroke="#707070" stroke-width="0.5" opacity="0.12"/>
      </g>
      <path id="path182" d="M155.9,88.79l-6.866,3.9.128.128,6.738-3.829A2.422,2.422,0,0,0,157.338,87h0A2.564,2.564,0,0,1,155.9,88.79Z" transform="translate(-125.536 -69.28)" stroke="#707070" stroke-width="0.5" opacity="0.12"/>
      <path id="path184" d="M135.473,74.805l26.856,15.259a2.564,2.564,0,0,1,1.443,1.788h0a2.422,2.422,0,0,0-1.443-1.994L135.473,74.6c-1.926-1.094-3.5-.185-3.5,2.018v.2C131.973,74.62,133.547,73.711,135.473,74.805Z" transform="translate(-131.968 -74.128)" fill="#fff" stroke="#707070" stroke-width="0.5" opacity="0.25"/>
    </g>
  </g>
  <g id="g214" transform="translate(57.671 8.431)">
    <path id="path190" d="M163.338,82.263V74h2.527a4.11,4.11,0,0,1,3.047,1.148,4.467,4.467,0,0,1,0,5.966,4.11,4.11,0,0,1-3.047,1.148Zm1.06-1.016h1.467a3.094,3.094,0,0,0,2.266-.821,3.561,3.561,0,0,0,0-4.587,3.1,3.1,0,0,0-2.266-.825H164.4Z" transform="translate(-163.338 -71.877)" fill="#fff" stroke="#fff" stroke-miterlimit="10" stroke-width="0.2"/>
    <path id="path192" d="M169.3,82.262V74h1.06v8.262Z" transform="translate(-161.089 -71.876)" fill="#fff" stroke="#fff" stroke-miterlimit="10" stroke-width="0.2"/>
    <path id="path194" d="M173.924,82.5a3.08,3.08,0,0,1-1.761-.588,2.718,2.718,0,0,1-1.125-1.651l.97-.392a2.212,2.212,0,0,0,.712,1.147,1.8,1.8,0,0,0,1.207.467,1.929,1.929,0,0,0,1.182-.362,1.165,1.165,0,0,0,.49-.987,1.266,1.266,0,0,0-.49-1.067,5.063,5.063,0,0,0-1.553-.7,4.142,4.142,0,0,1-1.662-.895,1.87,1.87,0,0,1-.57-1.4,2.048,2.048,0,0,1,.705-1.546,2.577,2.577,0,0,1,1.835-.658,2.652,2.652,0,0,1,1.709.524,2.437,2.437,0,0,1,.855,1.148l-.969.4a1.442,1.442,0,0,0-.514-.727,1.806,1.806,0,0,0-2.1,0,1.038,1.038,0,0,0-.427.848.966.966,0,0,0,.4.779,3.862,3.862,0,0,0,1.172.57,9.785,9.785,0,0,1,1.021.382,4.661,4.661,0,0,1,.829.49,1.924,1.924,0,0,1,.635.762,2.451,2.451,0,0,1,.215,1.056,2.279,2.279,0,0,1-.248,1.074,2.03,2.03,0,0,1-.658.751,3.319,3.319,0,0,1-1.852.57Z" transform="translate(-160.434 -71.928)" fill="#fff" stroke="#fff" stroke-miterlimit="10" stroke-width="0.2"/>
    <path id="path196" d="M177.3,82.262h-1.061V74h2.816a2.608,2.608,0,0,1,1.816.7,2.4,2.4,0,0,1,0,3.52,2.608,2.608,0,0,1-1.816.7H177.3Zm0-4.363h1.778a1.369,1.369,0,0,0,1.073-.449,1.424,1.424,0,0,0,0-1.984,1.366,1.366,0,0,0-1.073-.452H177.3Z" transform="translate(-158.471 -71.876)" fill="#fff" stroke="#fff" stroke-miterlimit="10" stroke-width="0.2"/>
    <path id="path198" d="M188.035,81.247a4.291,4.291,0,0,1-6.058,0,4.464,4.464,0,0,1,0-6.125,4.273,4.273,0,0,1,6.053,0,4.45,4.45,0,0,1,0,6.125Zm-5.271-.692a3.178,3.178,0,0,0,4.49,0,3.52,3.52,0,0,0,0-4.744,3.178,3.178,0,0,0-4.49,0A3.524,3.524,0,0,0,182.764,80.554Z" transform="translate(-156.767 -71.928)" fill="#fff" stroke="#fff" stroke-miterlimit="10" stroke-width="0.2"/>
    <path id="path200" d="M188.009,82.262V74H189.3l4.016,6.427h.047l-.047-1.593V74h1.063v8.262h-1.113l-4.2-6.739h-.046l.046,1.594v5.145Z" transform="translate(-154.034 -71.876)" fill="#fff" stroke="#fff" stroke-miterlimit="10" stroke-width="0.2"/>
    <path id="path202" d="M194.009,82.844V74.582h1.06v8.262Zm1-8.909h-.923l.6-1.477h1.154Z" transform="translate(-151.772 -72.458)" fill="#fff" stroke="#fff" stroke-miterlimit="10" stroke-width="0.2"/>
    <path id="path204" d="M198.434,82.262,195.525,74H196.7l2.261,6.705h.047L201.365,74h1.177l-3,8.262Z" transform="translate(-151.199 -71.876)" fill="#fff" stroke="#fff" stroke-miterlimit="10" stroke-width="0.2"/>
    <path id="path206" d="M206.317,75.016h-3.762v2.621h3.393v1h-3.393v2.621h3.762v1.007h-4.825V74h4.825Z" transform="translate(-148.948 -71.876)" fill="#fff" stroke="#fff" stroke-miterlimit="10" stroke-width="0.2"/>
    <path id="path208" d="M206.2,82.262V74h1.061v7.248h3.577v1.014Z" transform="translate(-147.173 -71.876)" fill="#fff" stroke="#fff" stroke-miterlimit="10" stroke-width="0.2"/>
    <path id="path210" d="M212.554,82.262V74h1.292l4.016,6.427h.046l-.046-1.593V74h1.063v8.262h-1.108l-4.2-6.739h-.046l.046,1.594v5.145Z" transform="translate(-144.777 -71.876)" fill="#fff" stroke="#fff" stroke-miterlimit="10" stroke-width="0.2"/>
    <path id="path212" d="M225.451,81.247a4.291,4.291,0,0,1-6.058,0,4.464,4.464,0,0,1,0-6.125,4.274,4.274,0,0,1,6.053,0,4.45,4.45,0,0,1,0,6.125Zm-5.271-.692a3.178,3.178,0,0,0,4.49,0,3.52,3.52,0,0,0,0-4.744,3.178,3.178,0,0,0-4.49,0,3.524,3.524,0,0,0,0,4.744Z" transform="translate(-142.657 -71.928)" fill="#fff" stroke="#fff" stroke-miterlimit="10" stroke-width="0.2"/>
  </g>
</svg>