<svg width="185" height="36" viewBox="0 0 185 36" fill="none" xmlns="http://www.w3.org/2000/svg">
<g clip-path="url(#clip0_28_5895)">
<path d="M11.8374 18.449C11.6462 18.6404 11.3904 18.7698 11.07 18.8965C10.7495 19.0231 10.429 19.0878 10.0467 19.1525C9.66441 19.2173 9.34394 19.282 8.95882 19.3439C8.5737 19.4086 8.19139 19.4733 7.80626 19.5352C7.42114 19.6 7.10349 19.7266 6.71836 19.7913C6.33324 19.9208 6.07743 20.0474 5.82162 20.2388C5.56581 20.4301 5.37465 20.6862 5.18068 21.007C4.98672 21.3278 4.92487 21.7105 4.92487 22.1607C4.92487 22.611 4.98953 22.929 5.18068 23.2498C5.30999 23.5706 5.56581 23.7619 5.82162 23.9533C6.07743 24.1446 6.3979 24.2741 6.78021 24.3388C7.16252 24.4035 7.54764 24.4683 7.93276 24.4683C8.89135 24.4683 9.6616 24.3388 10.1732 23.9561C10.6848 23.6353 11.07 23.2526 11.3258 22.8023C11.5816 22.3521 11.7109 21.9047 11.7727 21.4572C11.8374 21.0098 11.8374 20.6243 11.8374 20.3682V18.4462V18.449ZM0.576076 14.7964C0.640732 13.6427 0.961199 12.6831 1.40817 11.9767C1.91979 11.2085 2.56072 10.6316 3.32816 10.1842C4.09559 9.73676 4.99234 9.41596 5.95093 9.22461C6.90952 9.03325 7.87092 8.90381 8.89417 8.90381C9.79091 8.90381 10.6848 8.96853 11.5816 9.09516C12.4783 9.2218 13.3104 9.48069 14.0779 9.8634C14.8453 10.2489 15.4216 10.7611 15.9332 11.3999C16.4448 12.0415 16.636 12.9363 16.636 13.9635V23.1879C16.636 23.9561 16.7006 24.7243 16.7653 25.4926C16.8299 26.1961 17.0211 26.773 17.2769 27.1585H12.349C12.2844 26.8377 12.1579 26.5816 12.1579 26.2608C12.0932 26.0047 12.0286 25.6839 12.0286 25.3631C11.2611 26.1961 10.3644 26.7082 9.27648 27.029C8.25323 27.3498 7.16533 27.5412 6.07743 27.5412C5.24534 27.5412 4.41325 27.4117 3.71047 27.2204C3.00769 27.029 2.36676 26.7082 1.79048 26.2608C1.2142 25.8134 0.831888 25.3012 0.51142 24.5949C0.190953 23.9533 0.0644531 23.1203 0.0644531 22.2255C0.0644531 21.2012 0.255609 20.3682 0.576076 19.7266C0.961199 19.085 1.40817 18.5728 1.91979 18.1901C2.49607 17.8046 3.137 17.4866 3.83978 17.2925C4.54256 17.0983 5.31281 16.9717 6.01558 16.845C6.71836 16.7184 7.48861 16.6537 8.19139 16.589C8.89417 16.5242 9.5351 16.3976 10.0467 16.2681C10.623 16.1387 11.0053 15.9473 11.3258 15.6913C11.6462 15.4352 11.7727 15.0497 11.7727 14.5375C11.7727 14.0254 11.7081 13.5779 11.5169 13.2571C11.3258 12.9363 11.1318 12.6802 10.8142 12.5536C10.5583 12.3623 10.1732 12.2975 9.79091 12.2328C9.47044 12.1681 9.08813 12.1681 8.63835 12.1681C7.67976 12.1681 6.90952 12.3594 6.3979 12.8097C5.82162 13.1952 5.50115 13.8987 5.43931 14.8583H0.576076V14.7936V14.7964Z" fill="white"/>
<path d="M24.7015 9.35124V11.7854H24.7662C25.4071 10.8877 26.1745 10.1842 27.0685 9.67204C27.9652 9.15989 28.9885 8.90381 30.141 8.90381C31.2289 8.90381 32.2522 9.09516 33.2136 9.54541C34.1103 9.99284 34.8131 10.7639 35.3247 11.8501C35.8363 11.0819 36.5419 10.3756 37.4359 9.80149C38.3326 9.22461 39.4205 8.90381 40.6349 8.90381C41.5935 8.90381 42.4256 9.03325 43.2577 9.22461C44.0251 9.48069 44.7307 9.80149 45.3042 10.3136C45.8804 10.8258 46.3274 11.4674 46.6479 12.3004C46.9684 13.1333 47.1595 14.0929 47.1595 15.2467V27.0966H42.2963V17.0392C42.2963 16.4623 42.2963 15.8854 42.2316 15.3733C42.167 14.8611 42.0405 14.4137 41.8465 14.0282C41.6553 13.6426 41.3349 13.3247 40.9498 13.1305C40.5646 12.8744 39.9912 12.8097 39.3502 12.8097C38.6474 12.8097 38.133 12.9391 37.686 13.1952C37.2391 13.4513 36.9186 13.7721 36.6628 14.2195C36.407 14.667 36.2777 15.1172 36.1512 15.6294C36.0865 16.1415 36.0219 16.7184 36.0219 17.2306V27.0966H31.1586V17.1686C31.1586 16.6565 31.1586 16.1443 31.094 15.6322C31.094 15.12 30.9647 14.6726 30.7735 14.2223C30.5824 13.7721 30.3265 13.4541 29.9414 13.198C29.5563 12.942 28.9828 12.8125 28.1507 12.8125C27.8949 12.8125 27.6391 12.8772 27.254 12.942C26.8689 13.0714 26.4866 13.2628 26.1661 13.5188C25.781 13.7749 25.5252 14.2223 25.2693 14.7373C25.0135 15.2523 24.8842 15.9558 24.8842 16.8507V27.1641H20.021V9.35687H24.6931L24.7015 9.35124Z" fill="white"/>
<path d="M61.2402 13.5156C60.6639 12.874 59.7671 12.5561 58.5527 12.5561C57.7853 12.5561 57.1444 12.6855 56.6327 12.9416C56.1211 13.1977 55.736 13.5185 55.4155 13.9012C55.0951 14.2839 54.9039 14.6694 54.7746 15.1196C54.6453 15.5671 54.5834 15.9526 54.5834 16.2734H62.5192C62.1988 15.1196 61.8164 14.1601 61.2402 13.5185M55.736 22.8695C56.4388 23.573 57.5267 23.9585 58.8704 23.9585C59.829 23.9585 60.7257 23.7025 61.4313 23.1903C62.1341 22.6782 62.5839 22.166 62.7104 21.6538H66.9973C66.2945 23.7672 65.2685 25.3065 63.8629 26.2013C62.4546 27.099 60.7285 27.5464 58.7439 27.5464C57.3355 27.5464 56.1211 27.3551 54.9686 26.9048C53.816 26.4574 52.9221 25.8158 52.1518 24.9829C51.3844 24.1499 50.7435 23.1903 50.3611 22.0366C49.9142 20.8828 49.7202 19.6024 49.7202 18.2573C49.7202 16.9122 49.9114 15.6937 50.3611 14.5428C50.8081 13.389 51.3844 12.4294 52.2165 11.5965C52.9839 10.7635 53.9453 10.1219 55.0951 9.60976C56.183 9.09761 57.462 8.90625 58.8057 8.90625C60.3406 8.90625 61.6225 9.22705 62.7722 9.80393C63.922 10.3808 64.8187 11.149 65.5243 12.1733C66.2271 13.1977 66.7415 14.2867 67.0592 15.5052C67.3796 16.7856 67.5061 18.0688 67.3796 19.4758H54.5806C54.5806 21.0122 55.0276 22.166 55.7332 22.8695" fill="white"/>
<path d="M74.4213 9.35102V12.6181H74.4859C74.7417 12.0412 74.9975 11.5291 75.3827 11.0817C75.7678 10.6342 76.2148 10.184 76.7264 9.86318C77.238 9.54238 77.7496 9.2863 78.3259 9.09494C78.9022 8.90359 79.4785 8.83887 80.1166 8.83887C80.4371 8.83887 80.8194 8.90359 81.2045 9.03022V13.5777C80.9487 13.513 80.6929 13.513 80.3724 13.4483C80.0519 13.3835 79.7315 13.3835 79.4757 13.3835C78.5789 13.3835 77.8115 13.513 77.2352 13.831C76.5943 14.1518 76.1473 14.5345 75.7622 15.0494C75.377 15.5616 75.1212 16.1385 74.9301 16.842C74.7389 17.5455 74.6743 18.2518 74.6743 19.0848V27.0907H69.811V9.34539H74.4185L74.4213 9.35102Z" fill="white"/>
<path d="M87.9233 9.35107H83.0601V27.0964H87.9233V9.35107Z" fill="white"/>
<path d="M99.5699 12.5564C98.8025 12.5564 98.1615 12.7478 97.5853 13.0686C97.0736 13.4541 96.6267 13.9015 96.3062 14.4137C95.9857 14.9906 95.7299 15.5675 95.6034 16.271C95.4741 16.9745 95.4123 17.6161 95.4123 18.2577C95.4123 18.8993 95.4769 19.5381 95.6034 20.2444C95.7327 20.886 95.9885 21.5248 96.2443 22.0369C96.5648 22.5491 96.9471 22.9965 97.5234 23.382C98.035 23.7028 98.676 23.8942 99.4434 23.8942C100.596 23.8942 101.49 23.5734 102.131 22.9346C102.772 22.2958 103.154 21.3981 103.283 20.3091H107.955C107.635 22.6785 106.738 24.4739 105.203 25.6896C103.669 26.908 101.749 27.5468 99.3816 27.5468C98.0378 27.5468 96.8206 27.3555 95.7327 26.9052C94.6448 26.4578 93.6862 25.8162 92.916 25.048C92.1457 24.2797 91.5076 23.3173 91.1253 22.1664C90.6783 21.0773 90.4844 19.8617 90.4844 18.5138C90.4844 17.1658 90.6755 15.8883 91.0607 14.6698C91.4458 13.516 92.0192 12.4917 92.8513 11.594C93.6188 10.7611 94.5802 10.0576 95.6681 9.60732C96.756 9.15989 98.0997 8.90381 99.5081 8.90381C100.531 8.90381 101.555 9.03325 102.516 9.28933C103.475 9.54541 104.371 9.99284 105.139 10.5697C105.906 11.1466 106.547 11.8501 106.994 12.6831C107.441 13.516 107.761 14.4756 107.826 15.6294H103.089C102.898 13.5807 101.681 12.5536 99.5699 12.5536" fill="white"/>
<path d="M121.454 18.449C121.263 18.6404 121.007 18.7698 120.687 18.8965C120.366 19.0231 120.046 19.0878 119.664 19.1525C119.281 19.2173 118.961 19.282 118.576 19.3439C118.191 19.4086 117.808 19.4733 117.423 19.5352C117.038 19.6 116.72 19.7266 116.335 19.7913C115.95 19.9208 115.694 20.0474 115.438 20.2388C115.183 20.4301 114.992 20.6862 114.798 21.007C114.668 21.3278 114.542 21.7105 114.542 22.1607C114.542 22.611 114.606 22.929 114.798 23.2498C114.927 23.5706 115.183 23.7619 115.438 23.9533C115.694 24.1446 116.015 24.2741 116.397 24.3388C116.779 24.4035 117.165 24.4683 117.55 24.4683C118.508 24.4683 119.278 24.3388 119.79 23.9561C120.302 23.6353 120.687 23.2526 120.943 22.8023C121.198 22.3549 121.328 21.9047 121.39 21.4572C121.454 21.0098 121.454 20.6243 121.454 20.3682V18.4462V18.449ZM110.255 14.7964C110.319 13.6427 110.64 12.6831 111.087 11.9767C111.599 11.2085 112.239 10.6316 113.007 10.1842C113.774 9.73676 114.671 9.41596 115.63 9.22461C116.588 9.03325 117.55 8.90381 118.573 8.90381C119.47 8.90381 120.364 8.96853 121.26 9.09516C122.157 9.2218 122.989 9.48069 123.757 9.8634C124.524 10.2461 125.1 10.7611 125.612 11.3999C126.124 12.0386 126.315 12.9363 126.315 13.9635V23.1879C126.315 23.9561 126.379 24.7243 126.444 25.4926C126.509 26.1961 126.7 26.773 126.956 27.1585H122.028C121.963 26.9024 121.837 26.5816 121.837 26.3255C121.772 26.0694 121.707 25.7486 121.707 25.4278C120.94 26.2608 120.043 26.773 118.955 27.0938C117.932 27.4146 116.844 27.6059 115.756 27.6059C114.924 27.6059 114.092 27.4765 113.389 27.2851C112.686 27.0938 112.045 26.773 111.469 26.3255C110.893 25.8781 110.511 25.3659 110.19 24.6596C109.87 24.018 109.743 23.1851 109.743 22.2902C109.743 21.2659 109.934 20.4329 110.255 19.7913C110.64 19.1497 111.087 18.6376 111.598 18.2549C112.175 17.8693 112.816 17.5514 113.518 17.3572C114.221 17.163 114.992 17.0364 115.694 16.9097C116.397 16.7831 117.167 16.7184 117.87 16.6537C118.573 16.5889 119.214 16.4623 119.725 16.3329C120.302 16.2034 120.684 16.0121 121.004 15.756C121.325 15.4999 121.451 15.1144 121.451 14.6022C121.451 14.0901 121.387 13.6427 121.196 13.3219C121.004 13.001 120.811 12.745 120.493 12.6183C120.237 12.427 119.852 12.3623 119.47 12.2975C119.087 12.2328 118.702 12.2328 118.252 12.2328C117.294 12.2328 116.524 12.4242 116.012 12.8744C115.436 13.2599 115.115 13.9635 115.053 14.923H110.255V14.7936V14.7964Z" fill="white"/>
<path d="M134.383 9.35124V11.8501H134.512C135.153 10.8258 135.92 10.0576 136.944 9.60732C137.902 9.15989 138.928 8.90381 139.952 8.90381C141.231 8.90381 142.319 9.09516 143.151 9.41596C143.983 9.80149 144.624 10.2489 145.135 10.8905C145.582 11.5321 145.967 12.3004 146.158 13.1952C146.35 14.0901 146.479 15.1172 146.479 16.2062V27.0966H141.616V17.1039C141.616 15.6294 141.36 14.5403 140.913 13.8368C140.466 13.1333 139.634 12.7478 138.481 12.7478C137.138 12.7478 136.179 13.1333 135.603 13.9015C135.026 14.6698 134.706 16.0149 134.706 17.8102V27.0994H129.843V9.35406H134.386L134.383 9.35124Z" fill="white"/>
<path d="M160.683 18.449C160.492 18.6404 160.236 18.7698 159.916 18.8965C159.595 19.0231 159.275 19.0878 158.893 19.1525C158.51 19.2173 158.19 19.282 157.805 19.3439C157.42 19.4086 157.037 19.4733 156.652 19.5352C156.267 19.6 155.949 19.7266 155.564 19.7913C155.179 19.9208 154.923 20.0474 154.668 20.2388C154.412 20.4301 154.221 20.6862 154.027 21.007C153.833 21.3278 153.771 21.7105 153.771 22.1607C153.771 22.611 153.835 22.929 154.027 23.2498C154.156 23.5706 154.412 23.7619 154.668 23.9533C154.923 24.1446 155.244 24.2741 155.626 24.3388C156.008 24.4035 156.394 24.4683 156.779 24.4683C157.737 24.4683 158.508 24.3388 159.019 23.9561C159.531 23.6353 159.916 23.2526 160.172 22.8023C160.428 22.3549 160.557 21.9047 160.619 21.4572C160.683 21.0098 160.683 20.6243 160.683 20.3682V18.4462V18.449ZM149.422 14.7964C149.487 13.6427 149.807 12.6831 150.254 11.9767C150.766 11.2085 151.407 10.6316 152.174 10.1842C152.942 9.73676 153.838 9.41596 154.797 9.22461C155.755 9.03325 156.717 8.90381 157.74 8.90381C158.637 8.90381 159.531 8.96853 160.427 9.09516C161.324 9.2218 162.156 9.48069 162.924 9.8634C163.691 10.2461 164.267 10.7611 164.779 11.3999C165.291 12.0386 165.482 12.9363 165.482 13.9635V23.1879C165.482 23.9561 165.547 24.7243 165.611 25.4926C165.676 26.1961 165.867 26.773 166.058 27.1585H161.13C161.066 26.9024 160.939 26.5816 160.939 26.3255C160.874 26.0694 160.81 25.7486 160.81 25.4278C160.042 26.2608 159.146 26.773 158.058 27.0938C157.034 27.4146 155.947 27.6059 154.859 27.6059C154.027 27.6059 153.195 27.4765 152.492 27.2851C151.789 27.0938 151.148 26.773 150.572 26.3255C149.995 25.8781 149.613 25.3659 149.293 24.6596C148.972 24.018 148.846 23.1851 148.846 22.2902C148.846 21.2659 149.037 20.4329 149.357 19.7913C149.742 19.1497 150.189 18.6376 150.701 18.2549C151.277 17.8693 151.918 17.5514 152.621 17.3572C153.324 17.163 154.094 17.0364 154.797 16.9097C155.5 16.7831 156.27 16.7184 156.973 16.6537C157.675 16.5889 158.316 16.4623 158.828 16.3329C159.404 16.2034 159.787 16.0121 160.107 15.756C160.427 15.4999 160.554 15.1144 160.554 14.6022C160.554 14.0901 160.489 13.6427 160.298 13.3219C160.107 13.001 159.913 12.745 159.595 12.6183C159.34 12.427 158.954 12.3623 158.572 12.2975C158.19 12.2328 157.805 12.2328 157.355 12.2328C156.396 12.2328 155.626 12.4242 155.114 12.8744C154.538 13.2599 154.218 13.9635 154.156 14.923H149.419V14.7936L149.422 14.7964Z" fill="white"/>
<path d="M172.903 22.6755C173.095 23.0611 173.415 23.379 173.735 23.5732C174.056 23.8293 174.503 24.0206 174.888 24.0854C175.335 24.2148 175.785 24.2767 176.296 24.2767C176.617 24.2767 176.999 24.212 177.384 24.1473C177.769 24.0826 178.087 23.9559 178.408 23.7618C178.728 23.5676 178.984 23.3762 179.175 23.0582C179.366 22.8022 179.495 22.4166 179.495 21.9692C179.495 21.2657 178.984 20.6888 178.022 20.3033C177.061 19.9178 175.72 19.5998 173.991 19.2143C173.289 19.0848 172.583 18.8935 171.945 18.6374C171.242 18.446 170.666 18.1252 170.154 17.8044C169.642 17.4189 169.196 17.0362 168.875 16.4593C168.555 15.9472 168.363 15.2408 168.363 14.4726C168.363 13.3189 168.555 12.424 169.004 11.6529C169.451 10.9494 170.028 10.3726 170.795 9.92231C171.498 9.47488 172.33 9.2188 173.291 9.02463C174.188 8.83328 175.147 8.76855 176.108 8.76855C177.069 8.76855 178.028 8.83328 178.925 9.02463C179.822 9.21599 180.654 9.53679 181.356 9.92231C182.059 10.3697 182.635 10.9466 183.147 11.6529C183.594 12.3565 183.915 13.2541 183.979 14.4079H179.372C179.307 13.4483 178.925 12.8067 178.284 12.4859C177.643 12.1651 176.876 11.9737 176.043 11.9737C175.788 11.9737 175.467 11.9737 175.147 12.0385C174.826 12.1032 174.506 12.1679 174.25 12.2298C173.994 12.3593 173.738 12.4859 173.609 12.742C173.418 12.9333 173.353 13.2541 173.353 13.6397C173.353 14.0871 173.482 14.4079 173.865 14.7287C174.185 14.9848 174.632 15.2408 175.144 15.3703C175.655 15.5616 176.232 15.6911 176.935 15.8177C177.575 15.9472 178.278 16.0738 178.981 16.2652C179.684 16.3946 180.389 16.6507 181.028 16.842C181.73 17.0981 182.307 17.3542 182.818 17.7397C183.33 18.1252 183.777 18.5727 184.097 19.1495C184.418 19.7264 184.609 20.4299 184.609 21.1982C184.609 22.3519 184.353 23.3115 183.906 24.1445C183.459 24.9127 182.818 25.5543 182.051 26.0664C181.283 26.5786 180.451 26.8994 179.49 27.0908C178.528 27.2821 177.505 27.4116 176.547 27.4116C175.523 27.4116 174.5 27.2821 173.539 27.0908C172.577 26.8994 171.683 26.5139 170.916 26.0664C170.149 25.5543 169.508 24.9774 169.061 24.1445C168.549 23.3762 168.293 22.3519 168.229 21.1982H172.836C172.58 21.8398 172.645 22.2872 172.901 22.6727" fill="white"/>
<path d="M184.294 0H0V4.61221H184.294V0Z" fill="white"/>
<path d="M184.294 31.3877H0V35.9999H184.294V31.3877Z" fill="white"/>
</g>
<defs>
<clipPath id="clip0_28_5895">
<rect width="184.8" height="36" fill="white"/>
</clipPath>
</defs>
</svg>
