<svg width="144" height="28" viewBox="0 0 144 28" fill="none" xmlns="http://www.w3.org/2000/svg">
<g clip-path="url(#clip0_1_1141)">
<path d="M9.20703 14.3489C9.05836 14.4977 8.85939 14.5984 8.61014 14.6969C8.36089 14.7954 8.11164 14.8457 7.81428 14.896C7.51693 14.9464 7.26768 14.9967 6.96814 15.0449C6.6686 15.0952 6.37124 15.1456 6.0717 15.1937C5.77216 15.244 5.5251 15.3425 5.22556 15.3929C4.92602 15.4936 4.72705 15.592 4.52809 15.7409C4.32912 15.8897 4.18045 16.0889 4.02958 16.3384C3.87872 16.5879 3.83062 16.8856 3.83062 17.2358C3.83062 17.5859 3.88091 17.8333 4.02958 18.0828C4.13016 18.3323 4.32912 18.4811 4.52809 18.63C4.72705 18.7788 4.9763 18.8795 5.27366 18.9298C5.57101 18.9801 5.87055 19.0305 6.17009 19.0305C6.91566 19.0305 7.51474 18.9298 7.91267 18.6321C8.3106 18.3826 8.61014 18.085 8.8091 17.7348C9.00807 17.3846 9.10864 17.0366 9.15674 16.6886C9.20703 16.3406 9.20703 16.0407 9.20703 15.8416V14.3467V14.3489ZM0.448222 11.5079C0.49851 10.6106 0.747762 9.86423 1.0954 9.31486C1.49333 8.71735 1.99184 8.26866 2.58873 7.92066C3.18562 7.57266 3.88309 7.32315 4.62866 7.17432C5.37423 7.02548 6.12199 6.9248 6.91785 6.9248C7.61532 6.9248 8.3106 6.97514 9.00807 7.07364C9.70554 7.17213 10.3527 7.37349 10.9496 7.67115C11.5465 7.971 11.9947 8.36934 12.3927 8.86618C12.7906 9.3652 12.9393 10.0612 12.9393 10.8601V18.0346C12.9393 18.6321 12.9895 19.2297 13.0398 19.8272C13.0901 20.3743 13.2388 20.823 13.4378 21.1229H9.60496C9.55467 20.8734 9.45628 20.6742 9.45628 20.4247C9.406 20.2255 9.35571 19.976 9.35571 19.7265C8.75882 20.3743 8.06135 20.7727 7.2152 21.0222C6.41934 21.2717 5.5732 21.4205 4.72705 21.4205C4.07987 21.4205 3.43269 21.3199 2.88608 21.171C2.33948 21.0222 1.84097 20.7727 1.39276 20.4247C0.94454 20.0767 0.647186 19.6783 0.397934 19.129C0.148682 18.63 0.050293 17.9821 0.050293 17.2861C0.050293 16.4894 0.19897 15.8416 0.448222 15.3425C0.747762 14.8435 1.0954 14.4452 1.49333 14.1475C1.94155 13.8477 2.44005 13.6003 2.98666 13.4493C3.53326 13.2983 4.13234 13.1998 4.67895 13.1013C5.22556 13.0028 5.82464 12.9525 6.37124 12.9021C6.91785 12.8518 7.41635 12.7533 7.81428 12.6526C8.2625 12.5519 8.55985 12.4031 8.8091 12.2039C9.05836 12.0048 9.15674 11.7049 9.15674 11.3066C9.15674 10.9082 9.10646 10.5602 8.95778 10.3107C8.8091 10.0612 8.65824 9.86204 8.41117 9.76355C8.21221 9.61471 7.91267 9.56437 7.61532 9.51403C7.36606 9.46369 7.06871 9.46369 6.71888 9.46369C5.97331 9.46369 5.37423 9.61252 4.9763 9.96272C4.52809 10.2626 4.27884 10.8097 4.23073 11.5561H0.448222V11.5057V11.5079Z" fill="#F80032"/>
<path d="M19.2122 7.27281V9.16603H19.2625C19.761 8.46784 20.3579 7.92066 21.0531 7.52232C21.7506 7.12398 22.5465 6.9248 23.4429 6.9248C24.289 6.9248 25.0849 7.07364 25.8327 7.42383C26.5301 7.77183 27.0767 8.37153 27.4747 9.21637C27.8726 8.61886 28.4214 8.06949 29.1167 7.623C29.8141 7.17432 30.6603 6.9248 31.6048 6.9248C32.3504 6.9248 32.9976 7.02548 33.6448 7.17432C34.2416 7.37349 34.7904 7.623 35.2365 8.02134C35.6847 8.41969 36.0323 8.91871 36.2816 9.56656C36.5308 10.2144 36.6795 10.9608 36.6795 11.8581V21.0747H32.897V13.2523C32.897 12.8036 32.897 12.355 32.8467 11.9566C32.7964 11.5583 32.698 11.2103 32.5472 10.9104C32.3985 10.6106 32.1492 10.3632 31.8497 10.2122C31.5502 10.0131 31.1041 9.96272 30.6056 9.96272C30.059 9.96272 29.6589 10.0634 29.3113 10.2626C28.9636 10.4617 28.7144 10.7113 28.5154 11.0593C28.3164 11.4073 28.2159 11.7574 28.1175 12.1558C28.0672 12.5541 28.0169 13.0028 28.0169 13.4012V21.0747H24.2344V13.353C24.2344 12.9547 24.2344 12.5563 24.1841 12.158C24.1841 11.7596 24.0835 11.4116 23.9348 11.0614C23.7862 10.7113 23.5872 10.4639 23.2877 10.2648C22.9881 10.0656 22.5421 9.9649 21.8949 9.9649C21.6959 9.9649 21.497 10.0152 21.1974 10.0656C20.8979 10.1663 20.6006 10.3151 20.3513 10.5143C20.0518 10.7134 19.8528 11.0614 19.6538 11.462C19.4549 11.8625 19.3543 12.4097 19.3543 13.1057V21.1273H15.5718V7.27719H19.2056L19.2122 7.27281Z" fill="#F80032"/>
<path d="M47.6314 10.5118C47.1831 10.0128 46.4857 9.7655 45.5411 9.7655C44.9442 9.7655 44.4457 9.86618 44.0478 10.0653C43.6499 10.2645 43.3503 10.514 43.1011 10.8117C42.8518 11.1094 42.7032 11.4092 42.6026 11.7594C42.502 12.1074 42.4539 12.4073 42.4539 12.6568H48.6262C48.3769 11.7594 48.0796 11.0131 47.6314 10.514M43.3503 17.7871C43.8969 18.3342 44.7431 18.6341 45.7882 18.6341C46.5338 18.6341 47.2312 18.4349 47.78 18.0366C48.3266 17.6382 48.6765 17.2399 48.7748 16.8416H52.1091C51.5625 18.4853 50.7645 19.6825 49.6713 20.3785C48.5759 21.0767 47.2334 21.4247 45.6898 21.4247C44.5944 21.4247 43.6499 21.2759 42.7534 20.9257C41.857 20.5777 41.1617 20.0786 40.5626 19.4308C39.9658 18.7829 39.4672 18.0366 39.1699 17.1392C38.8222 16.2419 38.6714 15.246 38.6714 14.1998C38.6714 13.1536 38.8201 12.2059 39.1699 11.3107C39.5175 10.4134 39.9658 9.66701 40.6129 9.01915C41.2098 8.3713 41.9576 7.87228 42.8518 7.47393C43.698 7.07559 44.6928 6.92676 45.7379 6.92676C46.9317 6.92676 47.9287 7.17627 48.823 7.62495C49.7172 8.07364 50.4147 8.67115 50.9635 9.46783C51.5101 10.2645 51.9102 11.1115 52.1572 12.0593C52.4065 13.0551 52.5049 14.0532 52.4065 15.1475H42.4517C42.4517 16.3425 42.7994 17.2399 43.3481 17.7871" fill="#F80032"/>
<path d="M57.8836 7.27334V9.81442H57.9339C58.1328 9.36574 58.3318 8.96739 58.6313 8.61939C58.9309 8.27139 59.2785 7.9212 59.6765 7.67169C60.0744 7.42217 60.4723 7.223 60.9205 7.07417C61.3687 6.92534 61.817 6.875 62.3133 6.875C62.5625 6.875 62.8599 6.92534 63.1594 7.02383V10.5608C62.9605 10.5104 62.7615 10.5104 62.5122 10.4601C62.263 10.4097 62.0137 10.4097 61.8148 10.4097C61.1173 10.4097 60.5204 10.5104 60.0722 10.7577C59.5737 11.0073 59.2261 11.3049 58.9265 11.7055C58.627 12.1038 58.428 12.5525 58.2793 13.0997C58.1306 13.6468 58.0804 14.1962 58.0804 14.844V21.0709H54.2979V7.26897H57.8814L57.8836 7.27334Z" fill="#F80032"/>
<path d="M68.3846 7.27344H64.6021V21.0754H68.3846V7.27344Z" fill="#F80032"/>
<path d="M77.443 9.76573C76.8461 9.76573 76.3476 9.91456 75.8994 10.1641C75.5014 10.4639 75.1538 10.8119 74.9045 11.2103C74.6553 11.659 74.4563 12.1076 74.3579 12.6548C74.2574 13.202 74.2093 13.701 74.2093 14.2C74.2093 14.6991 74.2595 15.1959 74.3579 15.7453C74.4585 16.2443 74.6575 16.7411 74.8564 17.1395C75.1057 17.5378 75.4031 17.8858 75.8513 18.1856C76.2492 18.4352 76.7477 18.584 77.3446 18.584C78.241 18.584 78.9363 18.3345 79.4348 17.8376C79.9333 17.3408 80.2307 16.6426 80.3312 15.7956H83.9651C83.7158 17.6385 83.0184 19.0349 81.8246 19.9804C80.6308 20.9281 79.1375 21.4249 77.2965 21.4249C76.2514 21.4249 75.3047 21.2761 74.4585 20.9259C73.6124 20.5779 72.8668 20.0789 72.2677 19.4814C71.6686 18.8838 71.1723 18.1353 70.875 17.2401C70.5273 16.3931 70.3765 15.4476 70.3765 14.3992C70.3765 13.3508 70.5251 12.3572 70.8247 11.4094C71.1242 10.5121 71.5702 9.71539 72.2174 9.0172C72.8143 8.36934 73.5621 7.82217 74.4082 7.47198C75.2544 7.12398 76.2995 6.9248 77.3949 6.9248C78.1907 6.9248 78.9866 7.02548 79.7344 7.22466C80.4799 7.42383 81.1774 7.77183 81.7743 8.22051C82.3712 8.6692 82.8697 9.21637 83.2173 9.86422C83.565 10.5121 83.8142 11.2584 83.8645 12.1558H80.1804C80.0317 10.5624 79.085 9.76354 77.443 9.76354" fill="#F80032"/>
<path d="M94.4646 14.3489C94.3159 14.4977 94.117 14.5984 93.8677 14.6969C93.6184 14.7954 93.3692 14.8457 93.0718 14.896C92.7745 14.9464 92.5252 14.9967 92.2257 15.0449C91.9262 15.0952 91.6288 15.1456 91.3293 15.1937C91.0297 15.244 90.7827 15.3425 90.4831 15.3929C90.1836 15.4936 89.9846 15.592 89.7856 15.7409C89.5867 15.8897 89.438 16.0889 89.2871 16.3384C89.1866 16.5879 89.0882 16.8856 89.0882 17.2358C89.0882 17.5859 89.1385 17.8333 89.2871 18.0828C89.3877 18.3323 89.5867 18.4811 89.7856 18.63C89.9846 18.7788 90.2339 18.8795 90.5312 18.9298C90.8286 18.9801 91.1281 19.0305 91.4277 19.0305C92.1732 19.0305 92.7723 18.9298 93.1702 18.6321C93.5682 18.3826 93.8677 18.085 94.0667 17.7348C94.2656 17.3868 94.3662 17.0366 94.4143 16.6886C94.4646 16.3406 94.4646 16.0407 94.4646 15.8416V14.3467V14.3489ZM85.7539 11.5079C85.8042 10.6106 86.0534 9.86423 86.4011 9.31486C86.799 8.71735 87.2975 8.26866 87.8944 7.92066C88.4913 7.57266 89.1888 7.32315 89.9343 7.17432C90.6799 7.02548 91.4276 6.9248 92.2235 6.9248C92.921 6.9248 93.6163 6.97514 94.3137 7.07364C95.0112 7.17213 95.6584 7.37349 96.2553 7.67115C96.8522 7.96881 97.3004 8.36934 97.6983 8.86618C98.0962 9.36301 98.2449 10.0612 98.2449 10.8601V18.0346C98.2449 18.6321 98.2952 19.2297 98.3455 19.8272C98.3958 20.3743 98.5445 20.823 98.7434 21.1229H94.9106C94.8603 20.9237 94.7619 20.6742 94.7619 20.475C94.7117 20.2759 94.6614 20.0263 94.6614 19.7768C94.0645 20.4247 93.367 20.823 92.5209 21.0725C91.725 21.3221 90.8789 21.4709 90.0327 21.4709C89.3855 21.4709 88.7383 21.3702 88.1917 21.2214C87.6451 21.0725 87.1466 20.823 86.6984 20.475C86.2502 20.127 85.9528 19.7287 85.7036 19.1793C85.4543 18.6803 85.356 18.0324 85.356 17.3364C85.356 16.5398 85.5046 15.8919 85.7539 15.3929C86.0534 14.8939 86.4011 14.4955 86.799 14.1978C87.2472 13.898 87.7457 13.6507 88.2923 13.4997C88.8389 13.3486 89.438 13.2501 89.9846 13.1516C90.5312 13.0532 91.1303 13.0028 91.6769 12.9525C92.2235 12.9021 92.722 12.8036 93.1199 12.703C93.5682 12.6023 93.8655 12.4535 94.1148 12.2543C94.364 12.0551 94.4624 11.7553 94.4624 11.3569C94.4624 10.9586 94.4121 10.6106 94.2634 10.3611C94.1148 10.1115 93.9639 9.91238 93.7168 9.81388C93.5179 9.66505 93.2183 9.61471 92.921 9.56437C92.6236 9.51403 92.3241 9.51403 91.9743 9.51403C91.2287 9.51403 90.6296 9.66286 90.2317 10.0131C89.7835 10.3129 89.5342 10.8601 89.4861 11.6064H85.7539V11.5057V11.5079Z" fill="#F80032"/>
<path d="M104.52 7.27281V9.21637H104.62C105.119 8.41968 105.716 7.82217 106.512 7.47198C107.257 7.12398 108.055 6.9248 108.851 6.9248C109.846 6.9248 110.692 7.07364 111.339 7.32315C111.986 7.623 112.485 7.971 112.883 8.47002C113.231 8.96905 113.53 9.56656 113.679 10.2626C113.827 10.9586 113.928 11.7574 113.928 12.6045V21.0747H110.146V13.3027C110.146 12.1558 109.947 11.3088 109.599 10.7616C109.251 10.2144 108.604 9.91456 107.708 9.91456C106.663 9.91456 105.917 10.2144 105.469 10.8119C105.021 11.4094 104.771 12.4556 104.771 13.852V21.0769H100.989V7.275H104.522L104.52 7.27281Z" fill="#F80032"/>
<path d="M124.976 14.3489C124.827 14.4977 124.628 14.5984 124.379 14.6969C124.13 14.7954 123.881 14.8457 123.583 14.896C123.286 14.9464 123.037 14.9967 122.737 15.0449C122.438 15.0952 122.14 15.1456 121.841 15.1937C121.541 15.244 121.294 15.3425 120.995 15.3929C120.695 15.4936 120.496 15.592 120.297 15.7409C120.098 15.8897 119.949 16.0889 119.799 16.3384C119.648 16.5879 119.6 16.8856 119.6 17.2358C119.6 17.5859 119.65 17.8333 119.799 18.0828C119.899 18.3323 120.098 18.4811 120.297 18.63C120.496 18.7788 120.745 18.8795 121.043 18.9298C121.34 18.9801 121.64 19.0305 121.939 19.0305C122.685 19.0305 123.284 18.9298 123.682 18.6321C124.08 18.3826 124.379 18.085 124.578 17.7348C124.777 17.3868 124.878 17.0366 124.926 16.6886C124.976 16.3406 124.976 16.0407 124.976 15.8416V14.3467V14.3489ZM116.217 11.5079C116.268 10.6106 116.517 9.86423 116.864 9.31486C117.262 8.71735 117.761 8.26866 118.358 7.92066C118.955 7.57266 119.652 7.32315 120.398 7.17432C121.143 7.02548 121.891 6.9248 122.687 6.9248C123.384 6.9248 124.08 6.97514 124.777 7.07364C125.475 7.17213 126.122 7.37349 126.719 7.67115C127.316 7.96881 127.764 8.36934 128.162 8.86618C128.56 9.36301 128.708 10.0612 128.708 10.8601V18.0346C128.708 18.6321 128.759 19.2297 128.809 19.8272C128.859 20.3743 129.008 20.823 129.157 21.1229H125.324C125.273 20.9237 125.175 20.6742 125.175 20.475C125.125 20.2759 125.074 20.0263 125.074 19.7768C124.478 20.4247 123.78 20.823 122.934 21.0725C122.138 21.3221 121.292 21.4709 120.446 21.4709C119.799 21.4709 119.151 21.3702 118.605 21.2214C118.058 21.0725 117.56 20.823 117.112 20.475C116.663 20.127 116.366 19.7287 116.117 19.1793C115.867 18.6803 115.769 18.0324 115.769 17.3364C115.769 16.5398 115.918 15.8919 116.167 15.3929C116.467 14.8939 116.814 14.4955 117.212 14.1978C117.66 13.898 118.159 13.6507 118.705 13.4997C119.252 13.3486 119.851 13.2501 120.398 13.1516C120.944 13.0532 121.543 13.0028 122.09 12.9525C122.637 12.9021 123.135 12.8036 123.533 12.703C123.981 12.6023 124.279 12.4535 124.528 12.2543C124.777 12.0551 124.876 11.7553 124.876 11.3569C124.876 10.9586 124.825 10.6106 124.677 10.3611C124.528 10.1115 124.377 9.91238 124.13 9.81388C123.931 9.66505 123.631 9.61471 123.334 9.56437C123.037 9.51403 122.737 9.51403 122.387 9.51403C121.642 9.51403 121.043 9.66286 120.645 10.0131C120.197 10.3129 119.947 10.8601 119.899 11.6064H116.215V11.5057L116.217 11.5079Z" fill="#F80032"/>
<path d="M134.48 17.6369C134.629 17.9367 134.878 18.184 135.127 18.335C135.377 18.5342 135.724 18.6831 136.024 18.7334C136.372 18.8341 136.721 18.8822 137.119 18.8822C137.369 18.8822 137.666 18.8319 137.965 18.7815C138.265 18.7312 138.512 18.6327 138.761 18.4817C139.011 18.3307 139.209 18.1818 139.358 17.9345C139.507 17.7353 139.607 17.4355 139.607 17.0875C139.607 16.5403 139.21 16.0916 138.462 15.7918C137.714 15.4919 136.671 15.2446 135.326 14.9448C134.78 14.8441 134.231 14.6952 133.735 14.4961C133.188 14.3472 132.74 14.0977 132.342 13.8482C131.944 13.5484 131.596 13.2507 131.347 12.802C131.098 12.4037 130.949 11.8543 130.949 11.2568C130.949 10.3594 131.098 9.66343 131.448 9.06373C131.795 8.51655 132.244 8.06787 132.84 7.71768C133.387 7.36968 134.034 7.1705 134.782 7.01948C135.479 6.87065 136.225 6.82031 136.973 6.82031C137.721 6.82031 138.466 6.87065 139.164 7.01948C139.861 7.16832 140.508 7.41783 141.055 7.71768C141.601 8.06568 142.05 8.51436 142.448 9.06373C142.795 9.6109 143.044 10.3091 143.095 11.2065H139.511C139.461 10.4601 139.164 9.96109 138.665 9.71158C138.167 9.46207 137.57 9.31324 136.922 9.31324C136.724 9.31324 136.474 9.31324 136.225 9.36358C135.976 9.41392 135.727 9.46426 135.528 9.51241C135.329 9.61309 135.13 9.71158 135.029 9.91075C134.88 10.0596 134.83 10.3091 134.83 10.6089C134.83 10.957 134.931 11.2065 135.228 11.456C135.477 11.6551 135.825 11.8543 136.223 11.955C136.621 12.1038 137.069 12.2045 137.616 12.303C138.114 12.4037 138.661 12.5022 139.207 12.651C139.754 12.7517 140.303 12.9509 140.799 13.0997C141.346 13.2989 141.794 13.498 142.192 13.7979C142.59 14.0977 142.937 14.4457 143.187 14.8944C143.436 15.3431 143.585 15.8903 143.585 16.4878C143.585 17.3852 143.386 18.1315 143.038 18.7794C142.69 19.3769 142.192 19.8759 141.595 20.2742C140.998 20.6726 140.351 20.9221 139.603 21.0709C138.855 21.2198 138.059 21.3204 137.314 21.3204C136.518 21.3204 135.722 21.2198 134.974 21.0709C134.227 20.9221 133.531 20.6222 132.934 20.2742C132.338 19.8759 131.839 19.4272 131.491 18.7794C131.093 18.1818 130.895 17.3852 130.844 16.4878H134.428C134.229 16.9868 134.279 17.3348 134.478 17.6347" fill="#F80032"/>
<path d="M143.34 0H0V3.58727H143.34V0Z" fill="#F80032"/>
<path d="M143.34 24.4131H0V28.0004H143.34V24.4131Z" fill="#F80032"/>
</g>
<defs>
<clipPath id="clip0_1_1141">
<rect width="143.733" height="28" fill="white"/>
</clipPath>
</defs>
</svg>
