<svg width="32" height="32" viewBox="0 0 32 32" fill="none" xmlns="http://www.w3.org/2000/svg">
<path d="M12.8537 8.68457H4.29763C3.02879 8.68457 2 9.71336 2 10.9822V16.6663C2 17.9351 3.02879 18.9639 4.29763 18.9639H4.85489V25.2395C4.85489 26.5083 5.88368 27.5371 7.15252 27.5371H9.98168C11.2505 27.5371 12.2793 26.5083 12.2793 25.2395V18.9639H12.8451V8.68457H12.8537Z" fill="#880021"/>
<path fill-rule="evenodd" clip-rule="evenodd" d="M25.7219 13.8455V6.75544C25.7219 6.75544 25.7048 6.7383 25.6962 6.74687H25.6877C25.1475 7.28698 24.5474 7.75851 23.8958 8.16145C23.7415 8.25576 23.5872 8.35007 23.4329 8.44437C18.9491 11.0163 12.8621 11.0163 12.8621 11.0163V16.7347C12.8621 16.7347 18.9577 16.7347 23.4329 19.3067C23.5872 19.401 23.7415 19.4867 23.8958 19.5896C24.5388 20.0011 25.1475 20.4641 25.6877 20.9956H25.6962C25.6962 20.9956 25.7219 21.0127 25.7219 20.9956V13.9055C25.7219 13.9055 25.7219 13.897 25.7219 13.8884C25.7219 13.8798 25.7219 13.8798 25.7219 13.8712V13.8455ZM28.0024 11.0078V6.75544C28.0024 4.59499 25.4476 3.76338 24.0845 5.12653C22.4212 6.77259 19.755 7.73279 17.2173 8.23861C15.9913 8.48724 14.8854 8.60726 14.0795 8.66728C13.6851 8.70157 13.3593 8.71014 13.1536 8.71872C13.0507 8.71872 12.965 8.71872 12.9135 8.71872H12.8621H12.8535V19.0066H12.9135C12.965 19.0066 13.0421 19.0066 13.1536 19.0066C13.3679 19.0066 13.6851 19.0323 14.0795 19.058C14.8768 19.1181 15.9913 19.2467 17.2173 19.4867C19.755 19.9925 22.4212 20.9442 24.0845 22.5988C25.4562 23.9534 28.0024 23.1303 28.0024 20.9699V16.709C29.1169 16.6147 30 15.3715 30 13.8541C30 12.3366 29.1169 11.1021 28.0024 10.9992V11.0078Z" fill="#880021"/>
</svg>
