<svg width="39" height="37" viewBox="0 0 39 37" fill="none" xmlns="http://www.w3.org/2000/svg">
<g clip-path="url(#clip0_642_11331)">
<path d="M14.3936 24.1723C14.3817 24.8936 14.5427 25.4659 14.8705 25.8772C15.1984 26.2945 15.7409 26.5151 16.498 26.533V22.5568C16.0509 22.4376 15.6038 22.2885 15.1567 22.1216C14.7155 21.9547 14.3161 21.7342 13.9585 21.4659C13.6008 21.1976 13.3146 20.8638 13.0941 20.4525C12.8735 20.0471 12.7662 19.5464 12.7662 18.9443C12.7662 18.4197 12.8676 17.9547 13.0702 17.5553C13.2729 17.1559 13.5471 16.8221 13.8929 16.5538C14.2386 16.2856 14.6321 16.0829 15.0851 15.9398C15.5322 15.7967 16.0032 15.7252 16.498 15.7252V14.4435H17.2014V15.7252C17.6962 15.7252 18.1611 15.7908 18.5963 15.9219C19.0315 16.0531 19.413 16.2498 19.7349 16.5121C20.0568 16.7744 20.3132 17.1082 20.5099 17.5136C20.7006 17.919 20.796 18.3899 20.796 18.9264H18.9242C18.9003 18.366 18.7573 17.9428 18.489 17.6447C18.2208 17.3467 17.7916 17.2036 17.2014 17.2036V20.6671C17.6962 20.7982 18.1731 20.9532 18.644 21.1261C19.1149 21.299 19.5322 21.5255 19.8899 21.7997C20.2535 22.0739 20.5397 22.4137 20.7603 22.8191C20.9808 23.2245 21.0881 23.7193 21.0881 24.3154C21.0881 24.9294 20.9868 25.4599 20.7841 25.919C20.5814 26.372 20.3072 26.7535 19.9555 27.0516C19.6038 27.3556 19.1924 27.5821 18.7215 27.7431C18.2506 27.9041 17.7439 27.9935 17.1954 28.0114V29.293H16.492V28.0114C15.9018 27.9994 15.3594 27.904 14.8646 27.7312C14.3698 27.5583 13.9525 27.3079 13.6008 26.986C13.2491 26.6641 12.9808 26.2647 12.7901 25.7938C12.5993 25.3228 12.5099 24.7804 12.5218 24.1663H14.3936V24.1723ZM16.492 17.2036C15.9018 17.2036 15.4428 17.3288 15.1209 17.5732C14.799 17.8176 14.638 18.2349 14.638 18.8131C14.638 19.0754 14.6917 19.302 14.805 19.4868C14.9123 19.6716 15.0553 19.8325 15.2223 19.9637C15.3892 20.0948 15.5918 20.2021 15.8124 20.2856C16.0389 20.369 16.2655 20.4346 16.492 20.4883V17.2036ZM17.2014 26.533C17.7916 26.4912 18.2744 26.3184 18.6559 26.0143C19.0315 25.7163 19.2223 25.2334 19.2223 24.5777C19.2223 24.2736 19.1626 24.0114 19.0494 23.8087C18.9361 23.6 18.7811 23.4271 18.5904 23.2841C18.3996 23.141 18.185 23.0277 17.9406 22.9383C17.7021 22.8489 17.4518 22.7714 17.2014 22.7058V26.533Z" fill="#FF0023"/>
<path d="M34.8943 36.375H28.1521V34.0799H32.6111L32.6409 28.369L34.936 28.3809L34.8943 36.375Z" fill="#FF0023"/>
<path d="M24.5754 36.375H0.265381V8.26768L34.936 8.20807V15.3795H32.6409V10.5032L2.56046 10.5568V34.0799H24.5754V36.375Z" fill="#FF0023"/>
<path d="M38.1254 29.5196H29.3325V14.2707H38.1254V29.5196ZM31.6276 27.2245H35.8303V16.5658H31.6276V27.2245Z" fill="#FF0023"/>
<path d="M5.18335 7.15292C5.17739 7.08139 5.17143 7.00389 5.17143 6.93236C5.17143 5.30494 6.49483 3.97558 8.12821 3.97558C9.75563 3.97558 11.085 5.29897 11.085 6.93236C11.085 7.00985 11.079 7.08139 11.0731 7.15292H13.4814C13.4874 7.08139 13.4874 7.00389 13.4874 6.93236C13.4874 3.97558 11.085 1.57319 8.12821 1.57319C5.17143 1.56723 2.76904 3.96962 2.76904 6.9264C2.76904 7.00389 2.76904 7.07543 2.775 7.14696L5.18335 7.15292Z" fill="#FF0023"/>
<path d="M14.8645 0.375C13.5352 0.375 12.3191 0.863823 11.3772 1.66859C12.1224 2.04415 12.7662 2.59259 13.261 3.25428C13.72 2.95622 14.2744 2.77738 14.8645 2.77738C16.492 2.77738 17.8213 4.10078 17.8213 5.73417C17.8213 6.08588 17.7617 6.41971 17.6484 6.72969H20.1343C20.1939 6.40779 20.2297 6.07396 20.2297 5.73417C20.2297 2.77738 17.8213 0.375 14.8645 0.375Z" fill="#FF0023"/>
</g>
<defs>
<clipPath id="clip0_642_11331">
<rect width="37.8599" height="36" fill="white" transform="translate(0.265381 0.375)"/>
</clipPath>
</defs>
</svg>
