<svg width="32" height="32" viewBox="0 0 32 32" fill="none" xmlns="http://www.w3.org/2000/svg">
<path d="M16.0004 15.198C19.644 15.198 22.6044 12.2376 22.6044 8.59406C22.6044 4.95049 19.644 2 16.0004 2C12.3569 2 9.39648 4.9604 9.39648 8.60396C9.39648 12.2475 12.347 15.2079 16.0004 15.2079V15.198Z" fill="#880021"/>
<path d="M16.0002 18.6138C11.713 18.6138 8.55462 19.3563 6.3962 20.495C4.30709 21.594 2.88135 23.2573 2.88135 25.1286V28.2672C2.88135 29.2276 3.65363 29.9999 4.61402 29.9999H27.3863C28.3467 29.9999 29.119 29.2276 29.119 28.2672V25.1286C29.119 23.3167 27.8616 21.6435 25.7526 20.5049C23.6338 19.3563 20.4556 18.6138 16.0002 18.6138Z" fill="#880021"/>
</svg>
