<svg width="40" height="40" viewBox="0 0 40 40" fill="none" xmlns="http://www.w3.org/2000/svg">
<path fill-rule="evenodd" clip-rule="evenodd" d="M2 9.87246C2 5.52441 5.52435 2.00006 9.8724 2.00006C14.2205 2.00006 17.7448 5.52441 17.7448 9.87246C17.7448 14.2205 14.2205 17.7449 9.8724 17.7449C5.52435 17.7449 2 14.234 2 9.87246ZM9.8724 6.49665C8.00895 6.49665 6.49659 8.00901 6.49659 9.87246C6.49659 11.7359 8.00895 13.2483 9.8724 13.2483C11.7359 13.2483 13.2482 11.7359 13.2482 9.87246C13.2482 8.00901 11.7359 6.49665 9.8724 6.49665Z" fill="#F80032"/>
<path fill-rule="evenodd" clip-rule="evenodd" d="M22.2554 30.1275C22.2554 25.7794 25.7797 22.2551 30.1278 22.2551C34.4758 22.2551 38.0002 25.7794 38.0002 30.1275C38.0002 34.4755 34.4758 37.9999 30.1278 37.9999C25.7797 37.9999 22.2554 34.4755 22.2554 30.1275ZM30.1278 26.7517C28.2643 26.7517 26.752 28.264 26.752 30.1275C26.752 31.9909 28.2643 33.5033 30.1278 33.5033C31.9912 33.5033 33.5036 31.9909 33.5036 30.1275C33.5036 28.264 31.9912 26.7517 30.1278 26.7517Z" fill="#F80032"/>
<path fill-rule="evenodd" clip-rule="evenodd" d="M36.5414 3.47207C37.5946 4.52532 37.5946 6.24024 36.5414 7.29349L7.27982 36.5416C6.22657 37.5948 4.51165 37.5948 3.4584 36.5416C2.40514 35.4883 2.40514 33.7734 3.4584 32.7201L32.72 3.47207C33.7732 2.41882 35.4881 2.41882 36.5414 3.47207Z" fill="#F80032"/>
</svg>
