<svg id="suba-white" xmlns="http://www.w3.org/2000/svg" width="52.702" height="28" viewBox="0 0 52.702 28">
  <path id="suba-white-2" data-name="suba-white" d="M1789.015,1032.407h-8.458v-2.314a3.621,3.621,0,0,0-3.691-3.657h-3.4v-3.562c0-1.091.175-1.191,1.729-1.191a1.751,1.751,0,0,0,1.727-1.727,1.73,1.73,0,0,0-1.64-1.727h-3.548a1.719,1.719,0,0,0-1.727,1.727v6.481h-3.563a3.552,3.552,0,0,0-3.651,3.657v2.314h-8.324a6.9,6.9,0,0,0-6.674,5.2h-1.117v-1.727a1.727,1.727,0,0,0-3.454,0v6.909a1.727,1.727,0,0,0,3.454,0v-1.727h1.131a6.9,6.9,0,0,0,6.661,5.164h34.545a6.91,6.91,0,1,0,0-13.821" transform="translate(-1743.222 -1018.229)" fill="#fff"/>
</svg>