<svg xmlns="http://www.w3.org/2000/svg" width="28.121" height="24.302" viewBox="0 0 28.121 24.302">
  <path id="telegram" d="M401.9-318.913l-24.971,9.8s-1.182.4-1.088,1.15,1.058,1.088,1.058,1.088l6.281,2.114,15.082-9.578s.87-.528.84,0c0,0,.156.094-.31.528s-11.848,10.666-11.848,10.666l-.82,6.995a.711.711,0,0,0,.665-.09l4.06-3.7h0l6.33,4.851a1.646,1.646,0,0,0,1.349.122,1.646,1.646,0,0,0,.984-.93l4.447-22.421C403.955-319.812,401.9-318.913,401.9-318.913Z" transform="translate(-375.838 319.182)" fill="#fff"/>
</svg>