<svg width="184" height="64" viewBox="0 0 184 64" fill="none" xmlns="http://www.w3.org/2000/svg">
<g id="vertical" clip-path="url(#clip0_1123_1075)">
<g id="Group">
<g id="Group_2">
<path id="Vector" d="M11.7441 18.3127C11.5362 18.4997 11.2868 18.6452 10.975 18.7492C10.6632 18.8531 10.3306 18.9362 9.97727 18.9986C9.6239 19.061 9.24976 19.1233 8.87561 19.1649C8.48068 19.2065 8.10653 19.2688 7.7116 19.3312C7.33745 19.3935 6.98409 19.4975 6.63072 19.6014C6.27736 19.7053 5.96557 19.8716 5.71614 20.0587C5.44592 20.2458 5.23806 20.4952 5.09256 20.7862C4.92628 21.0772 4.86392 21.4513 4.86392 21.9086C4.86392 22.3451 4.94706 22.6985 5.09256 22.9895C5.25885 23.2805 5.46671 23.5092 5.73693 23.6962C6.00715 23.8625 6.31894 23.9872 6.69308 24.0496C7.04644 24.1119 7.44138 24.1535 7.81552 24.1535C8.77168 24.1535 9.49919 23.9872 10.0396 23.6754C10.5593 23.3637 10.9542 22.9687 11.2036 22.5322C11.4531 22.0957 11.5986 21.6384 11.6609 21.1811C11.7233 20.7238 11.7441 20.3705 11.7441 20.1003V18.3127ZM0.561221 14.7167C0.623579 13.5735 0.914583 12.6381 1.41345 11.8898C1.91231 11.1415 2.55667 10.5387 3.32576 10.0814C4.09484 9.62413 4.96785 9.31234 5.924 9.10448C6.88016 8.91741 7.8571 8.81348 8.83404 8.81348C9.72783 8.81348 10.6216 8.87583 11.5362 9.00055C12.4508 9.12527 13.2822 9.3747 14.0305 9.72806C14.7788 10.1022 15.4024 10.6011 15.8805 11.2454C16.3586 11.8898 16.5872 12.742 16.5872 13.8229V22.9895C16.5872 23.7794 16.6288 24.5485 16.7327 25.276C16.8159 26.0035 16.9821 26.5439 17.2108 26.9181H12.2845C12.2014 26.6478 12.1182 26.3568 12.0559 26.0866C11.9935 25.7956 11.9519 25.5046 11.9311 25.2136C11.1621 26.0035 10.2475 26.5647 9.20819 26.8765C8.16889 27.1883 7.08802 27.3546 6.00715 27.3546C5.17571 27.3546 4.38584 27.2506 3.65833 27.0428C2.93082 26.8349 2.28646 26.5231 1.74602 26.0866C1.20559 25.6501 0.769081 25.1097 0.457291 24.4445C0.145502 23.7794 0 23.0103 0 22.0957C0 21.098 0.166288 20.2665 0.519649 19.6222C0.873011 18.9778 1.3303 18.4582 1.89152 18.0632C2.45274 17.6683 3.07632 17.3773 3.80383 17.1902C4.51056 17.0031 5.23806 16.8369 5.96557 16.7329C6.69308 16.629 7.39981 16.5251 8.10653 16.4627C8.81325 16.4004 9.43683 16.2964 9.97727 16.1509C10.5177 16.0054 10.9542 15.8183 11.266 15.5481C11.5778 15.2779 11.7233 14.9038 11.7025 14.4049C11.7025 13.8853 11.6194 13.4695 11.4531 13.1577C11.2868 12.846 11.0581 12.6173 10.7671 12.451C10.4761 12.2847 10.1436 12.16 9.76941 12.1184C9.39526 12.0561 9.00033 12.0353 8.56382 12.0353C7.60767 12.0353 6.85937 12.2432 6.31893 12.6589C5.7785 13.0746 5.44592 13.7605 5.36278 14.6959H0.561221V14.7167Z" fill="white"/>
<path id="Vector_2" d="M24.5483 9.31206V11.7024H24.6106C25.255 10.7879 26.0241 10.0811 26.9179 9.58228C27.8117 9.08342 28.851 8.83398 29.9942 8.83398C31.1166 8.83398 32.1351 9.04184 33.0497 9.47835C33.9643 9.91485 34.671 10.6631 35.1491 11.7648C35.6688 10.9957 36.3755 10.3098 37.2901 9.72778C38.1839 9.14577 39.2439 8.83398 40.4703 8.83398C41.4057 8.83398 42.2579 8.93791 43.0686 9.16656C43.8584 9.39521 44.5444 9.74857 45.1056 10.2474C45.6668 10.7463 46.1241 11.4114 46.4359 12.2013C46.7477 13.012 46.914 13.9889 46.914 15.1113V26.9178H42.0708V16.9405C42.0708 16.3585 42.05 15.7973 42.0085 15.2776C41.9669 14.758 41.8422 14.3007 41.6343 13.9058C41.4265 13.5108 41.1355 13.2198 40.7405 12.9912C40.3456 12.7625 39.8052 12.6586 39.1192 12.6586C38.4333 12.6586 37.8928 12.7833 37.4563 13.0535C37.0406 13.3238 36.708 13.6563 36.4586 14.072C36.23 14.4878 36.0637 14.9658 35.9805 15.5063C35.8974 16.0467 35.8558 16.5872 35.8558 17.1276V26.9386H31.0127V17.0444C31.0127 16.5248 30.9919 16.0051 30.9711 15.4855C30.9503 14.9658 30.8464 14.5086 30.6801 14.072C30.5138 13.6355 30.2228 13.303 29.8279 13.0328C29.433 12.7625 28.851 12.6378 28.0819 12.6378C27.8532 12.6378 27.5622 12.6794 27.1881 12.7833C26.8139 12.8872 26.4398 13.0743 26.1072 13.3653C25.7538 13.6563 25.4628 14.0513 25.2134 14.5917C24.964 15.1321 24.8393 15.8181 24.8393 16.6911V26.9178H19.9753V9.31206H24.5483Z" fill="white"/>
<path id="Vector_3" d="M60.9028 13.4274C60.3208 12.783 59.4478 12.4713 58.263 12.4713C57.4939 12.4713 56.8496 12.596 56.3299 12.8662C55.8103 13.1364 55.4154 13.4482 55.1036 13.8431C54.7918 14.2381 54.5839 14.633 54.4592 15.0695C54.3345 15.506 54.2513 15.8801 54.2305 16.2335H62.1084C61.8798 15.0071 61.4849 14.0718 60.9028 13.4274ZM55.4361 22.6979C56.1636 23.4047 57.2029 23.758 58.5748 23.758C59.5518 23.758 60.3832 23.5086 61.0899 23.0305C61.7966 22.5524 62.2331 22.0328 62.3787 21.4716H66.6398C65.9538 23.5917 64.9145 25.0883 63.5011 26.0029C62.0876 26.9175 60.3832 27.3748 58.3877 27.3748C56.9951 27.3748 55.7479 27.1461 54.6463 26.7096C53.5238 26.2731 52.5885 25.6288 51.8194 24.8181C51.0503 24.0075 50.4475 23.0305 50.0318 21.8873C49.6161 20.7441 49.4082 19.4969 49.4082 18.1458C49.4082 16.8363 49.6161 15.6099 50.0526 14.4667C50.4891 13.3235 51.0919 12.3465 51.9025 11.5151C52.6924 10.6837 53.6485 10.0393 54.7502 9.56122C55.8519 9.08314 57.0782 8.85449 58.4085 8.85449C59.9051 8.85449 61.2146 9.1455 62.3371 9.7275C63.4595 10.3095 64.3741 11.0786 65.0808 12.0555C65.7875 13.0325 66.3072 14.1549 66.6398 15.4021C66.9516 16.6492 67.0763 17.9587 66.9724 19.3306H54.2513C54.3137 20.8688 54.7086 21.9912 55.4361 22.6979Z" fill="white"/>
<path id="Vector_4" d="M74.0187 9.31206V12.5755H74.0811C74.3098 12.035 74.6215 11.5154 74.9957 11.0581C75.3906 10.6008 75.8271 10.1851 76.326 9.87328C76.8249 9.54071 77.3653 9.29128 77.9265 9.1042C78.4877 8.91713 79.0905 8.83398 79.6933 8.83398C80.0051 8.83398 80.3585 8.89634 80.7534 9.00027V13.5108C80.5248 13.4693 80.2545 13.4277 79.9428 13.3861C79.631 13.3445 79.3192 13.3445 79.0282 13.3445C78.1344 13.3445 77.3861 13.49 76.7833 13.781C76.1597 14.072 75.6816 14.4878 75.3075 14.9866C74.9333 15.5063 74.6631 16.0883 74.4968 16.7742C74.3305 17.4602 74.2682 18.1877 74.2682 18.9983V26.9386H69.425V9.31206H74.0187Z" fill="white"/>
<path id="Vector_5" d="M87.4467 9.3125H82.6035V26.939H87.4467V9.3125Z" fill="white"/>
<path id="Vector_6" d="M99.0452 12.4713C98.2761 12.4713 97.6317 12.6375 97.0913 12.9909C96.5717 13.3443 96.1351 13.8016 95.8026 14.3628C95.47 14.924 95.2413 15.5268 95.0958 16.2127C94.9503 16.8779 94.888 17.543 94.888 18.2082C94.888 18.8525 94.9503 19.4969 95.0958 20.1413C95.2413 20.8064 95.4492 21.3884 95.761 21.9289C96.0728 22.4693 96.4885 22.9058 97.0082 23.2384C97.5278 23.571 98.1722 23.758 98.9205 23.758C100.084 23.758 100.978 23.4255 101.602 22.7811C102.225 22.1367 102.62 21.2637 102.787 20.1828H107.464C107.152 22.5317 106.237 24.2985 104.741 25.5456C103.244 26.772 101.311 27.3956 98.9828 27.3956C97.6733 27.3956 96.4469 27.1669 95.3453 26.7304C94.2436 26.2939 93.3083 25.6703 92.5392 24.8805C91.7701 24.0906 91.1673 23.1345 90.7308 22.0328C90.2943 20.9311 90.0864 19.7256 90.0864 18.3953C90.0864 17.0234 90.2943 15.7554 90.6892 14.5914C91.0842 13.4274 91.6662 12.4089 92.4352 11.5567C93.2043 10.7044 94.1605 10.0393 95.2621 9.56122C96.3846 9.08314 97.6525 8.85449 99.0868 8.85449C100.126 8.85449 101.145 8.99999 102.101 9.27021C103.057 9.54043 103.93 9.95615 104.699 10.5174C105.468 11.0786 106.071 11.7645 106.549 12.596C107.027 13.4274 107.297 14.4043 107.36 15.5476H102.62C102.309 13.4898 101.124 12.4713 99.0452 12.4713Z" fill="white"/>
<path id="Vector_7" d="M120.808 18.3127C120.6 18.4997 120.351 18.6452 120.039 18.7492C119.727 18.8531 119.395 18.9362 119.041 18.9986C118.688 19.061 118.314 19.1233 117.94 19.1649C117.545 19.2065 117.17 19.2688 116.776 19.3312C116.401 19.3935 116.048 19.4975 115.695 19.6014C115.341 19.7053 115.03 19.8716 114.78 20.0587C114.51 20.2458 114.302 20.4952 114.156 20.7862C113.99 21.0772 113.928 21.4513 113.928 21.9086C113.928 22.3451 114.011 22.6985 114.156 22.9895C114.323 23.2805 114.531 23.5092 114.801 23.6962C115.071 23.8625 115.383 23.9872 115.757 24.0496C116.11 24.1119 116.505 24.1535 116.879 24.1535C117.836 24.1535 118.563 23.9872 119.104 23.6754C119.623 23.3637 120.018 22.9687 120.268 22.5322C120.517 22.0957 120.663 21.6384 120.725 21.1811C120.787 20.7238 120.808 20.3705 120.808 20.1003V18.3127ZM109.625 14.7167C109.688 13.5735 109.979 12.6381 110.477 11.8898C110.976 11.1415 111.621 10.5387 112.39 10.0814C113.159 9.62413 114.032 9.31234 114.988 9.10448C115.944 8.91741 116.921 8.81348 117.898 8.81348C118.792 8.81348 119.686 8.87583 120.6 9.00055C121.515 9.12527 122.346 9.3747 123.094 9.72806C123.843 10.1022 124.466 10.6011 124.944 11.2454C125.422 11.8898 125.651 12.742 125.651 13.8229V22.9895C125.651 23.7794 125.693 24.5485 125.797 25.276C125.88 26.0035 126.046 26.5439 126.275 26.9181H121.369C121.286 26.6478 121.203 26.3568 121.141 26.0866C121.078 25.7956 121.037 25.5046 121.016 25.2136C120.247 26.0035 119.332 26.5647 118.293 26.8765C117.254 27.1883 116.173 27.3546 115.092 27.3546C114.26 27.3546 113.471 27.2506 112.743 27.0428C112.016 26.8349 111.371 26.5231 110.831 26.0866C110.29 25.6501 109.854 25.1097 109.542 24.4445C109.23 23.7794 109.085 23.0103 109.085 22.0957C109.085 21.098 109.251 20.2665 109.604 19.6222C109.958 18.9778 110.415 18.4582 110.976 18.0632C111.537 17.6683 112.161 17.3773 112.889 17.1902C113.595 17.0031 114.323 16.8369 115.05 16.7329C115.778 16.629 116.485 16.5251 117.191 16.4627C117.898 16.4004 118.522 16.2964 119.062 16.1509C119.602 16.0054 120.039 15.8183 120.351 15.5481C120.663 15.2779 120.808 14.9038 120.787 14.4049C120.787 13.8853 120.704 13.4695 120.538 13.1577C120.372 12.846 120.143 12.6173 119.852 12.451C119.561 12.2847 119.228 12.16 118.854 12.1184C118.48 12.0561 118.085 12.0353 117.649 12.0353C116.692 12.0353 115.944 12.2432 115.404 12.6589C114.863 13.0746 114.531 13.7605 114.447 14.6959H109.625V14.7167Z" fill="white"/>
<path id="Vector_8" d="M133.633 9.31206V11.7648H133.737C134.361 10.7463 135.15 9.998 136.127 9.54071C137.104 9.08342 138.102 8.83398 139.121 8.83398C140.409 8.83398 141.469 9.00027 142.301 9.35363C143.132 9.70699 143.777 10.1851 144.255 10.8294C144.733 11.453 145.065 12.2221 145.252 13.1159C145.439 14.0097 145.543 15.0074 145.543 16.1091V26.9593H140.721V16.9821C140.721 15.5271 140.492 14.4462 140.035 13.7187C139.578 13.012 138.767 12.6378 137.624 12.6378C136.314 12.6378 135.358 13.0327 134.755 13.8226C134.173 14.6125 133.862 15.9012 133.862 17.6888V26.9386H129.019V9.31206H133.633Z" fill="white"/>
<path id="Vector_9" d="M159.782 18.3127C159.574 18.4997 159.325 18.6452 159.013 18.7492C158.701 18.8531 158.368 18.9362 158.015 18.9986C157.662 19.061 157.288 19.1233 156.913 19.1649C156.518 19.2065 156.144 19.2688 155.749 19.3312C155.375 19.3935 155.022 19.4975 154.669 19.6014C154.315 19.7053 154.003 19.8716 153.754 20.0587C153.484 20.2458 153.276 20.4952 153.13 20.7862C152.964 21.0772 152.902 21.4513 152.902 21.9086C152.902 22.3451 152.985 22.6985 153.13 22.9895C153.297 23.2805 153.505 23.5092 153.775 23.6962C154.045 23.8625 154.357 23.9872 154.731 24.0496C155.084 24.1119 155.479 24.1535 155.853 24.1535C156.809 24.1535 157.537 23.9872 158.077 23.6754C158.597 23.3637 158.992 22.9687 159.241 22.5322C159.491 22.0957 159.636 21.6384 159.699 21.1811C159.761 20.7238 159.782 20.3705 159.782 20.1003V18.3127ZM148.599 14.7167C148.661 13.5735 148.952 12.6381 149.451 11.8898C149.95 11.1415 150.594 10.5387 151.364 10.0814C152.133 9.62413 153.006 9.31234 153.962 9.10448C154.918 8.91741 155.895 8.81348 156.872 8.81348C157.766 8.81348 158.659 8.87583 159.574 9.00055C160.489 9.12527 161.32 9.3747 162.068 9.72806C162.817 10.1022 163.44 10.6011 163.918 11.2454C164.396 11.8898 164.625 12.742 164.625 13.8229V22.9895C164.625 23.7794 164.667 24.5485 164.771 25.276C164.854 26.0035 165.02 26.5439 165.249 26.9181H160.343C160.26 26.6478 160.177 26.3568 160.114 26.0866C160.052 25.7956 160.011 25.5046 159.99 25.2136C159.221 26.0035 158.306 26.5647 157.267 26.8765C156.227 27.1883 155.147 27.3546 154.066 27.3546C153.234 27.3546 152.444 27.2506 151.717 27.0428C150.989 26.8349 150.345 26.5231 149.805 26.0866C149.264 25.6501 148.828 25.1097 148.516 24.4445C148.204 23.7794 148.059 23.0103 148.059 22.0957C148.059 21.098 148.225 20.2665 148.578 19.6222C148.932 18.9778 149.389 18.4582 149.95 18.0632C150.511 17.6683 151.135 17.3773 151.862 17.1902C152.569 17.0031 153.297 16.8369 154.024 16.7329C154.752 16.629 155.458 16.5251 156.165 16.4627C156.872 16.4004 157.495 16.2964 158.036 16.1509C158.576 16.0054 159.013 15.8183 159.325 15.5481C159.636 15.2779 159.782 14.9038 159.761 14.4049C159.761 13.8853 159.678 13.4695 159.512 13.1577C159.345 12.846 159.117 12.6173 158.826 12.451C158.535 12.2847 158.202 12.16 157.828 12.1184C157.454 12.0561 157.059 12.0353 156.622 12.0353C155.666 12.0353 154.918 12.2432 154.378 12.6589C153.837 13.0746 153.505 13.7605 153.421 14.6959H148.599V14.7167Z" fill="white"/>
<path id="Vector_10" d="M171.942 22.5526C172.15 22.9267 172.441 23.2385 172.773 23.4672C173.106 23.6958 173.501 23.8829 173.958 23.9868C174.394 24.0907 174.852 24.1531 175.33 24.1531C175.662 24.1531 176.036 24.1115 176.411 24.0284C176.785 23.9452 177.117 23.8205 177.429 23.6542C177.741 23.488 177.99 23.2593 178.198 22.9683C178.406 22.6773 178.51 22.3239 178.51 21.8874C178.51 21.1599 178.032 20.6195 177.055 20.2453C176.099 19.892 174.748 19.5178 173.023 19.1437C172.316 18.9774 171.63 18.7903 170.965 18.5825C170.3 18.3746 169.697 18.0836 169.177 17.7302C168.657 17.3769 168.242 16.9404 167.909 16.3999C167.597 15.8595 167.431 15.2151 167.431 14.4461C167.431 13.3028 167.66 12.3675 168.096 11.6399C168.533 10.9124 169.115 10.3304 169.842 9.91471C170.57 9.49899 171.38 9.20799 172.295 9.02092C173.21 8.85463 174.145 8.77148 175.101 8.77148C176.057 8.77148 176.972 8.85463 177.886 9.0417C178.78 9.22878 179.591 9.54057 180.298 9.95628C181.004 10.3928 181.586 10.954 182.044 11.6815C182.501 12.3882 182.792 13.3028 182.875 14.3837H178.281C178.219 13.4483 177.866 12.8247 177.221 12.4922C176.577 12.1596 175.829 11.9933 174.976 11.9933C174.706 11.9933 174.415 12.0141 174.083 12.0349C173.771 12.0765 173.48 12.1388 173.21 12.2635C172.939 12.3675 172.732 12.5337 172.544 12.7624C172.357 12.9703 172.274 13.2613 172.274 13.6354C172.274 14.0719 172.441 14.4253 172.752 14.6955C173.064 14.9657 173.48 15.1944 173.999 15.3606C174.519 15.5269 175.101 15.6932 175.745 15.8179C176.411 15.9634 177.076 16.1089 177.762 16.2544C178.468 16.4207 179.154 16.6078 179.82 16.8364C180.485 17.0651 181.087 17.3561 181.607 17.7302C182.127 18.1044 182.542 18.5617 182.875 19.1229C183.187 19.6841 183.353 20.3701 183.353 21.1807C183.353 22.3447 183.125 23.3217 182.646 24.0907C182.189 24.8806 181.566 25.5042 180.817 25.9823C180.069 26.4603 179.217 26.7929 178.24 26.98C177.284 27.1671 176.286 27.271 175.288 27.271C174.27 27.271 173.272 27.1671 172.295 26.9592C171.318 26.7514 170.445 26.4188 169.697 25.9407C168.928 25.4626 168.304 24.839 167.826 24.0492C167.327 23.2593 167.078 22.2824 167.015 21.0976H171.609C171.63 21.7211 171.734 22.1784 171.942 22.5526Z" fill="white"/>
<path id="Vector_11" d="M183.311 0H0V4.57291H183.311V0Z" fill="white"/>
<path id="Vector_12" d="M183.311 31.1582H0V35.7311H183.311V31.1582Z" fill="white"/>
</g>
<g id="Group_3">
<g id="Group_4">
<path id="Vector_13" d="M51.5493 46.1241V48.3275H51.6325C52.0482 47.5168 52.6094 46.8932 53.2953 46.4359C53.9813 45.9786 54.8543 45.75 55.9144 45.75C56.7666 45.75 57.5565 45.9579 58.2632 46.3736C58.9699 46.7893 59.4272 47.4337 59.6766 48.3067C60.0716 47.4544 60.6328 46.8101 61.4019 46.3736C62.171 45.9579 62.9816 45.75 63.8338 45.75C66.7231 45.75 68.1573 47.2882 68.1573 50.3437V59.2193H66.5568V50.4268C66.5568 49.346 66.3282 48.5145 65.8709 47.9533C65.4136 47.3921 64.6029 47.1011 63.4597 47.1011C62.7737 47.1011 62.1917 47.2258 61.7345 47.496C61.2772 47.7662 60.9238 48.0988 60.6536 48.5561C60.3834 48.9926 60.1963 49.4915 60.0924 50.0735C59.9884 50.6347 59.9261 51.2167 59.9261 51.8403V59.2401H58.3256V50.3645C58.3256 49.928 58.284 49.5123 58.18 49.1173C58.0969 48.7224 57.9306 48.369 57.7228 48.078C57.5149 47.787 57.2239 47.5584 56.8705 47.3713C56.5172 47.205 56.0807 47.1219 55.5818 47.1219C54.8959 47.1219 54.3139 47.2466 53.815 47.496C53.3161 47.7455 52.9212 48.078 52.5886 48.5145C52.2768 48.951 52.0482 49.4499 51.8819 50.0319C51.7364 50.6139 51.6533 51.2583 51.6533 51.9442V59.2401H50.0527V46.1657H51.5493V46.1241Z" fill="#FBD1F6"/>
<path id="Vector_14" d="M71.5039 48.1407C71.7741 47.5794 72.1483 47.1222 72.6056 46.7688C73.0628 46.4154 73.6241 46.1452 74.2476 45.9789C74.8712 45.8126 75.5572 45.7295 76.3262 45.7295C76.9083 45.7295 77.4695 45.7919 78.0515 45.8958C78.6335 45.9997 79.1323 46.2076 79.5896 46.5194C80.0469 46.8311 80.4211 47.2469 80.7121 47.8081C81.0031 48.3485 81.1486 49.076 81.1486 49.949V56.8916C81.1486 57.5359 81.4604 57.8477 82.084 57.8477C82.271 57.8477 82.4373 57.8061 82.5828 57.7438V59.0949C82.3957 59.1364 82.2295 59.1572 82.084 59.178C81.9385 59.1988 81.7514 59.1988 81.5435 59.1988C81.1278 59.1988 80.816 59.1364 80.5666 59.0325C80.3172 58.9286 80.1301 58.7623 80.0054 58.5544C79.8599 58.3466 79.7767 58.1179 79.7351 57.8269C79.6936 57.5567 79.6728 57.2449 79.6728 56.9123H79.6104C79.3194 57.3281 79.0284 57.7022 78.7374 58.0348C78.4464 58.3674 78.1138 58.6376 77.7397 58.8662C77.3863 59.0949 76.9706 59.2612 76.4925 59.3651C76.0352 59.4898 75.474 59.5522 74.8297 59.5522C74.2269 59.5522 73.6449 59.4898 73.1252 59.3443C72.5848 59.1988 72.1275 58.9702 71.7325 58.6584C71.3376 58.3466 71.0258 57.9516 70.7972 57.4736C70.5685 56.9955 70.4646 56.4135 70.4646 55.7691C70.4646 54.8545 70.6725 54.1478 71.0674 53.6282C71.4831 53.1085 72.0028 52.7136 72.6679 52.4434C73.3331 52.1731 74.0814 51.9861 74.9128 51.8821C75.7442 51.7782 76.5965 51.6743 77.4695 51.5704C77.802 51.5288 78.0931 51.4872 78.3633 51.4456C78.6127 51.4041 78.8206 51.3001 78.9868 51.1754C79.1531 51.0507 79.2778 50.8844 79.3818 50.6558C79.4649 50.4271 79.5273 50.1569 79.5273 49.8035C79.5273 49.2631 79.4441 48.8266 79.2571 48.4732C79.07 48.1199 78.8413 47.8497 78.5296 47.6418C78.2178 47.4339 77.8436 47.3092 77.4487 47.2261C77.033 47.1429 76.5965 47.1222 76.1184 47.1222C75.0999 47.1222 74.2684 47.3716 73.6449 47.8497C73.0005 48.3277 72.6679 49.0968 72.6263 50.1777H71.0258C71.0882 49.367 71.2337 48.7019 71.5039 48.1407ZM79.4857 52.0484C79.3818 52.2355 79.1947 52.3602 78.9037 52.4641C78.6127 52.5473 78.3633 52.6096 78.1346 52.6512C77.4487 52.7759 76.7627 52.8799 76.0352 52.963C75.3077 53.0462 74.6634 53.1917 74.0814 53.3787C73.4993 53.5658 73.0005 53.836 72.6263 54.1686C72.2522 54.522 72.0651 55 72.0651 55.6444C72.0651 56.0601 72.1483 56.4135 72.3145 56.7253C72.4808 57.0371 72.6887 57.3073 72.9589 57.5359C73.2291 57.7646 73.5409 57.9309 73.8943 58.0556C74.2476 58.1803 74.6218 58.2426 74.9752 58.2426C75.578 58.2426 76.16 58.1595 76.7212 57.9724C77.2824 57.7854 77.7605 57.5151 78.1762 57.1618C78.5919 56.8084 78.9245 56.3719 79.1739 55.873C79.4234 55.3742 79.5481 54.7922 79.5481 54.1478V52.0692H79.4857V52.0484Z" fill="#FBD1F6"/>
<path id="Vector_15" d="M85.8047 46.1238V49.2002H85.8462C86.262 48.1401 86.8855 47.3086 87.7378 46.7474C88.59 46.1654 89.6085 45.916 90.7933 45.9576V47.5581C90.0658 47.5165 89.4006 47.6204 88.8186 47.8491C88.2366 48.0777 87.717 48.4103 87.2805 48.826C86.844 49.2417 86.5114 49.7406 86.2827 50.3434C86.0541 50.9254 85.9294 51.5698 85.9294 52.2557V59.219H84.3289V46.1446H85.8047V46.1238Z" fill="#FBD1F6"/>
<path id="Vector_16" d="M93.9111 41.0938V52.4429L101.165 46.1032H103.286L97.7149 50.9463L103.66 59.1776H101.664L96.4885 52.048L93.9111 54.2097V59.1776H92.3105V41.0938H93.9111Z" fill="#FBD1F6"/>
<path id="Vector_17" d="M106.154 54.875C106.32 55.4986 106.57 56.0391 106.923 56.5379C107.277 57.0368 107.734 57.4317 108.274 57.7643C108.815 58.0761 109.459 58.2424 110.228 58.2424C111.392 58.2424 112.307 57.9306 112.972 57.3278C113.637 56.725 114.094 55.9143 114.344 54.8958H115.944C115.612 56.3924 114.988 57.5356 114.074 58.3463C113.18 59.157 111.891 59.5727 110.228 59.5727C109.189 59.5727 108.316 59.3856 107.547 59.0322C106.798 58.6789 106.175 58.18 105.718 57.5356C105.24 56.9121 104.886 56.1638 104.658 55.3323C104.429 54.5009 104.325 53.6071 104.325 52.6925C104.325 51.8403 104.429 50.9881 104.658 50.1566C104.886 49.3252 105.24 48.5977 105.718 47.9325C106.196 47.2882 106.798 46.7685 107.547 46.3528C108.295 45.9579 109.189 45.75 110.228 45.75C111.267 45.75 112.161 45.9579 112.91 46.3736C113.658 46.7893 114.261 47.3505 114.718 48.0365C115.175 48.7224 115.508 49.5123 115.716 50.3853C115.924 51.2791 116.007 52.1729 115.965 53.0874H105.905C105.925 53.6695 106.009 54.2515 106.154 54.875ZM114.074 49.9903C113.886 49.4291 113.595 48.9303 113.242 48.5145C112.889 48.078 112.452 47.7455 111.953 47.4752C111.455 47.205 110.873 47.0803 110.228 47.0803C109.563 47.0803 108.981 47.205 108.482 47.4752C107.983 47.7455 107.547 48.078 107.193 48.5145C106.84 48.951 106.549 49.4499 106.341 50.0111C106.133 50.5723 105.988 51.1544 105.925 51.7571H114.385C114.365 51.1336 114.261 50.5516 114.074 49.9903Z" fill="#FBD1F6"/>
<path id="Vector_18" d="M123.323 46.1239V47.4749H120.663V56.2882C120.663 56.8078 120.725 57.2236 120.87 57.5146C121.016 57.8056 121.369 57.9719 121.951 58.0134C122.409 58.0134 122.866 57.9927 123.323 57.9303V59.2814C123.095 59.2814 122.845 59.2814 122.616 59.3022C122.388 59.323 122.138 59.323 121.91 59.323C120.85 59.323 120.101 59.1151 119.686 58.6994C119.27 58.2837 119.062 57.5146 119.083 56.4129V47.4749H116.796V46.1239H119.083V42.1953H120.683V46.1239H123.323Z" fill="#FBD1F6"/>
<path id="Vector_19" d="M127.106 46.1244V48.598H127.148C127.522 47.6834 128.125 46.9767 128.956 46.4778C129.788 45.9789 130.744 45.7295 131.804 45.7295C132.802 45.7295 133.675 45.9166 134.402 46.2907C135.13 46.6649 135.753 47.1637 136.231 47.8081C136.73 48.4317 137.084 49.18 137.312 50.0114C137.541 50.8428 137.666 51.7366 137.666 52.6512C137.666 53.5866 137.541 54.4596 137.312 55.291C137.084 56.1225 136.71 56.8708 136.231 57.4944C135.733 58.1179 135.13 58.6168 134.402 58.9909C133.675 59.3443 132.802 59.5314 131.804 59.5314C131.326 59.5314 130.848 59.469 130.391 59.3443C129.913 59.2196 129.476 59.0533 129.081 58.8039C128.665 58.5752 128.312 58.2634 128 57.9101C127.688 57.5567 127.439 57.141 127.273 56.6629H127.231V63.9588H125.631V46.0621H127.106V46.1244ZM135.857 50.635C135.691 49.9698 135.442 49.367 135.088 48.8474C134.735 48.3277 134.298 47.8912 133.758 47.5587C133.217 47.2261 132.573 47.0598 131.804 47.0598C130.931 47.0598 130.183 47.2053 129.601 47.5171C129.019 47.8289 128.541 48.2238 128.187 48.7435C127.834 49.2423 127.584 49.8451 127.439 50.5103C127.293 51.1962 127.231 51.9029 127.231 52.6304C127.231 53.3164 127.314 53.9815 127.481 54.6467C127.647 55.3118 127.896 55.9146 128.27 56.4343C128.624 56.9539 129.102 57.3904 129.684 57.723C130.266 58.0556 130.973 58.2219 131.825 58.2219C132.594 58.2219 133.238 58.0556 133.779 57.723C134.319 57.3904 134.756 56.9747 135.109 56.4343C135.462 55.9146 135.712 55.3118 135.878 54.6467C136.044 53.9815 136.128 53.3164 136.128 52.6304C136.107 51.9861 136.024 51.3001 135.857 50.635Z" fill="#FBD1F6"/>
<path id="Vector_20" d="M141.802 41.0938V59.1776H140.201V41.0938H141.802Z" fill="#FBD1F6"/>
<path id="Vector_21" d="M145.19 48.1407C145.46 47.5794 145.835 47.1222 146.292 46.7688C146.749 46.4154 147.31 46.1452 147.934 45.9789C148.557 45.8126 149.243 45.7295 150.012 45.7295C150.595 45.7295 151.156 45.7919 151.738 45.8958C152.32 45.9997 152.819 46.2076 153.276 46.5194C153.733 46.8311 154.107 47.2469 154.398 47.8081C154.689 48.3485 154.835 49.076 154.835 49.949V56.8916C154.835 57.5359 155.147 57.8477 155.77 57.8477C155.957 57.8477 156.124 57.8061 156.269 57.7438V59.0949C156.082 59.1364 155.916 59.1572 155.77 59.178C155.625 59.1988 155.438 59.1988 155.23 59.1988C154.814 59.1988 154.502 59.1364 154.253 59.0325C154.003 58.9286 153.816 58.7623 153.692 58.5544C153.546 58.3466 153.463 58.1179 153.421 57.8269C153.38 57.5567 153.359 57.2449 153.359 56.9123H153.317C153.026 57.3281 152.735 57.7022 152.444 58.0348C152.153 58.3674 151.821 58.6376 151.447 58.8662C151.093 59.0949 150.678 59.2612 150.2 59.3651C149.742 59.4898 149.181 59.5522 148.537 59.5522C147.934 59.5522 147.352 59.4898 146.832 59.3443C146.292 59.1988 145.835 58.9702 145.44 58.6584C145.045 58.3466 144.733 57.9516 144.504 57.4736C144.276 56.9955 144.172 56.4135 144.172 55.7691C144.172 54.8545 144.379 54.1478 144.774 53.6282C145.19 53.1085 145.71 52.7136 146.375 52.4434C147.04 52.1731 147.788 51.9861 148.62 51.8821C149.451 51.7782 150.303 51.6743 151.177 51.5704C151.509 51.5288 151.8 51.4872 152.07 51.4456C152.32 51.4041 152.528 51.3001 152.694 51.1754C152.86 51.0507 152.985 50.8844 153.089 50.6558C153.172 50.4271 153.234 50.1569 153.234 49.8035C153.234 49.2631 153.151 48.8266 152.964 48.4732C152.777 48.1199 152.548 47.8497 152.237 47.6418C151.925 47.4339 151.551 47.3092 151.156 47.2261C150.74 47.1429 150.303 47.1222 149.825 47.1222C148.807 47.1222 147.975 47.3716 147.352 47.8497C146.708 48.3277 146.375 49.0968 146.333 50.1777H144.733C144.774 49.367 144.92 48.7019 145.19 48.1407ZM153.172 52.0484C153.068 52.2355 152.881 52.3602 152.59 52.4641C152.299 52.5473 152.05 52.6096 151.821 52.6512C151.135 52.7759 150.449 52.8799 149.721 52.963C148.994 53.0462 148.35 53.1917 147.768 53.3787C147.186 53.5658 146.687 53.836 146.313 54.1686C145.938 54.522 145.751 55 145.751 55.6444C145.751 56.0601 145.835 56.4135 146.001 56.7253C146.167 57.0371 146.375 57.3073 146.645 57.5359C146.915 57.7646 147.227 57.9309 147.581 58.0556C147.934 58.1803 148.308 58.2426 148.661 58.2426C149.264 58.2426 149.846 58.1595 150.407 57.9724C150.969 57.7854 151.447 57.5151 151.862 57.1618C152.278 56.8084 152.611 56.3719 152.86 55.873C153.11 55.3742 153.234 54.7922 153.234 54.1478V52.0692H153.172V52.0484Z" fill="#FBD1F6"/>
<path id="Vector_22" d="M166.018 47.9117C165.436 47.3505 164.604 47.0803 163.544 47.0803C162.775 47.0803 162.11 47.2466 161.549 47.5584C160.967 47.8702 160.489 48.3067 160.114 48.8263C159.74 49.346 159.449 49.9488 159.262 50.6139C159.075 51.2791 158.971 51.965 158.971 52.6509C158.971 53.3369 159.075 54.0228 159.262 54.688C159.449 55.3531 159.74 55.9559 160.114 56.4756C160.489 56.9952 160.967 57.4317 161.549 57.7435C162.131 58.0553 162.796 58.2216 163.544 58.2216C164.043 58.2216 164.5 58.1384 164.937 57.9514C165.373 57.7643 165.768 57.5149 166.101 57.1823C166.433 56.8497 166.724 56.4548 166.932 55.9975C167.161 55.5402 167.286 55.0413 167.348 54.5009H168.948C168.72 56.0806 168.138 57.3278 167.202 58.2216C166.246 59.1154 165.041 59.5519 163.544 59.5519C162.546 59.5519 161.673 59.3648 160.904 59.0114C160.135 58.6581 159.491 58.1592 158.971 57.5356C158.451 56.9121 158.057 56.1846 157.786 55.3531C157.516 54.5217 157.371 53.6279 157.371 52.6717C157.371 51.7156 157.495 50.8426 157.786 49.9903C158.057 49.1589 158.451 48.4314 158.971 47.8078C159.491 47.1842 160.135 46.6854 160.904 46.3112C161.673 45.9371 162.546 45.75 163.544 45.75C164.937 45.75 166.142 46.1241 167.098 46.8724C168.075 47.6207 168.657 48.7432 168.844 50.2398H167.244C167.015 49.242 166.62 48.473 166.018 47.9117Z" fill="#FBD1F6"/>
<path id="Vector_23" d="M172.336 54.875C172.503 55.4986 172.752 56.0391 173.106 56.5379C173.459 57.0368 173.916 57.4317 174.457 57.7643C174.997 58.0761 175.641 58.2424 176.411 58.2424C177.575 58.2424 178.489 57.9306 179.154 57.3278C179.819 56.725 180.277 55.9143 180.526 54.8958H182.127C181.794 56.3924 181.171 57.5356 180.256 58.3463C179.362 59.157 178.073 59.5727 176.411 59.5727C175.371 59.5727 174.498 59.3856 173.729 59.0322C172.981 58.6789 172.357 58.18 171.9 57.5356C171.422 56.9121 171.069 56.1638 170.84 55.3323C170.611 54.5009 170.507 53.6071 170.507 52.6925C170.507 51.8403 170.611 50.9881 170.84 50.1566C171.069 49.3252 171.422 48.5977 171.9 47.9325C172.378 47.2882 172.981 46.7685 173.729 46.3528C174.477 45.9579 175.371 45.75 176.411 45.75C177.45 45.75 178.344 45.9579 179.092 46.3736C179.84 46.7893 180.443 47.3505 180.9 48.0365C181.358 48.7224 181.69 49.5123 181.898 50.3853C182.106 51.2583 182.189 52.1729 182.147 53.0874H172.108C172.108 53.6695 172.191 54.2515 172.336 54.875ZM180.256 49.9903C180.069 49.4291 179.778 48.9303 179.425 48.5145C179.071 48.078 178.635 47.7455 178.136 47.4752C177.637 47.205 177.055 47.0803 176.411 47.0803C175.745 47.0803 175.163 47.205 174.665 47.4752C174.166 47.7455 173.729 48.078 173.376 48.5145C173.022 48.951 172.731 49.4499 172.524 50.0111C172.316 50.5723 172.17 51.1544 172.108 51.7571H180.568C180.547 51.1336 180.443 50.5516 180.256 49.9903Z" fill="#FBD1F6"/>
</g>
</g>
</g>
</g>
<defs>
<clipPath id="clip0_1123_1075">
<rect width="184" height="64" fill="white"/>
</clipPath>
</defs>
</svg>
