<svg xmlns="http://www.w3.org/2000/svg" width="32.627" height="22.84" viewBox="0 0 32.627 22.84">
  <path id="youtube" d="M31.948-2.508a4.086,4.086,0,0,0-2.875-2.875c-2.556-.7-12.763-.7-12.763-.7S6.1-6.082,3.546-5.41a4.169,4.169,0,0,0-2.874,2.9A43.062,43.062,0,0,0,0,5.339a42.9,42.9,0,0,0,.672,7.845,4.088,4.088,0,0,0,2.875,2.875c2.579.7,12.763.7,12.763.7s10.211,0,12.763-.672a4.086,4.086,0,0,0,2.875-2.875,43.076,43.076,0,0,0,.674-7.847,40.877,40.877,0,0,0-.676-7.872ZM13.059,10.228V.448l8.487,4.891Zm0,0" transform="translate(0.001 6.082)" fill="#fff"/>
</svg>